<?xml version="1.0" encoding="utf-8"?>
<!-- Generator: Adobe Illustrator 27.0.0, SVG Export Plug-In . SVG Version: 6.00 Build 0)  -->
<svg version="1.1" id="Layer_1" xmlns="http://www.w3.org/2000/svg" xmlns:xlink="http://www.w3.org/1999/xlink" x="0px" y="0px"
	 viewBox="0 0 512 512" style="enable-background:new 0 0 512 512;" xml:space="preserve">
<style type="text/css">
	.st0{fill:#FFFFFF;}
	.st1{fill:#00458C;}
	.st2{fill:none;}
</style>
<g id="XMLID_1_">
	<circle id="XMLID_3_" class="st0" cx="256" cy="256" r="250.67"/>
	<circle id="XMLID_4_" class="st1" cx="256" cy="506.67" r="5.33"/>
	<circle id="XMLID_5_" class="st1" cx="243.52" cy="506.39" r="5.33"/>
	<circle id="XMLID_6_" class="st1" cx="231.04" cy="505.41" r="5.33"/>
	<circle id="XMLID_7_" class="st1" cx="218.71" cy="503.87" r="5.33"/>
	<circle id="XMLID_8_" class="st1" cx="206.37" cy="501.77" r="5.33"/>
	<circle id="XMLID_9_" class="st1" cx="194.17" cy="498.96" r="5.33"/>
	<circle id="XMLID_10_" class="st1" cx="182.12" cy="495.6" r="5.33"/>
	<circle id="XMLID_11_" class="st1" cx="170.2" cy="491.53" r="5.33"/>
	<circle id="XMLID_12_" class="st1" cx="158.56" cy="487.04" r="5.33"/>
	<circle id="XMLID_13_" class="st1" cx="147.21" cy="481.86" r="5.33"/>
	<circle id="XMLID_14_" class="st1" cx="136.13" cy="476.11" r="5.33"/>
	<circle id="XMLID_15_" class="st1" cx="125.34" cy="469.94" r="5.33"/>
	<circle id="XMLID_16_" class="st1" cx="114.82" cy="463.07" r="5.33"/>
	<circle id="XMLID_17_" class="st1" cx="104.59" cy="455.78" r="5.33"/>
	<circle id="XMLID_18_" class="st1" cx="94.91" cy="448.07" r="5.33"/>
	<circle id="XMLID_19_" class="st1" cx="85.52" cy="439.8" r="5.33"/>
	<circle id="XMLID_20_" class="st1" cx="76.55" cy="431.11" r="5.33"/>
	<circle id="XMLID_21_" class="st1" cx="68" cy="421.85" r="5.33"/>
	<circle id="XMLID_22_" class="st1" cx="60" cy="412.32" r="5.33"/>
	<circle id="XMLID_23_" class="st1" cx="52.43" cy="402.37" r="5.33"/>
	<circle id="XMLID_24_" class="st1" cx="45.42" cy="391.99" r="5.33"/>
	<circle id="XMLID_25_" class="st1" cx="38.97" cy="381.34" r="5.33"/>
	<circle id="XMLID_26_" class="st1" cx="32.95" cy="370.4" r="5.33"/>
	<circle id="XMLID_27_" class="st1" cx="27.48" cy="359.19" r="5.33"/>
	<circle id="XMLID_28_" class="st1" cx="22.71" cy="347.55" r="5.33"/>
	<circle id="XMLID_29_" class="st1" cx="18.37" cy="335.77" r="5.33"/>
	<circle id="XMLID_30_" class="st1" cx="14.72" cy="323.86" r="5.33"/>
	<circle id="XMLID_31_" class="st1" cx="11.64" cy="311.8" r="5.33"/>
	<circle id="XMLID_32_" class="st1" cx="9.11" cy="299.46" r="5.33"/>
	<circle id="XMLID_33_" class="st1" cx="7.29" cy="287.12" r="5.33"/>
	<circle id="XMLID_34_" class="st1" cx="6.03" cy="274.79" r="5.33"/>
	<circle id="XMLID_35_" class="st1" cx="5.47" cy="262.31" r="5.33"/>
	<circle id="XMLID_36_" class="st1" cx="5.47" cy="249.69" r="5.33"/>
	<circle id="XMLID_37_" class="st1" cx="6.03" cy="237.21" r="5.33"/>
	<circle id="XMLID_38_" class="st1" cx="7.29" cy="224.88" r="5.33"/>
	<circle id="XMLID_39_" class="st1" cx="9.11" cy="212.54" r="5.33"/>
	<circle id="XMLID_40_" class="st1" cx="11.64" cy="200.2" r="5.33"/>
	<circle id="XMLID_41_" class="st1" cx="14.72" cy="188.14" r="5.33"/>
	<circle id="XMLID_42_" class="st1" cx="18.37" cy="176.23" r="5.33"/>
	<circle id="XMLID_43_" class="st1" cx="22.71" cy="164.45" r="5.33"/>
	<circle id="XMLID_44_" class="st1" cx="27.48" cy="152.81" r="5.33"/>
	<circle id="XMLID_45_" class="st1" cx="32.95" cy="141.6" r="5.33"/>
	<circle id="XMLID_46_" class="st1" cx="38.97" cy="130.66" r="5.33"/>
	<circle id="XMLID_47_" class="st1" cx="45.42" cy="120.01" r="5.33"/>
	<circle id="XMLID_48_" class="st1" cx="52.43" cy="109.63" r="5.33"/>
	<circle id="XMLID_49_" class="st1" cx="60" cy="99.68" r="5.33"/>
	<circle id="XMLID_50_" class="st1" cx="68" cy="90.15" r="5.33"/>
	<circle id="XMLID_51_" class="st1" cx="76.55" cy="80.89" r="5.33"/>
	<circle id="XMLID_52_" class="st1" cx="85.52" cy="72.2" r="5.33"/>
	<circle id="XMLID_53_" class="st1" cx="94.91" cy="63.93" r="5.33"/>
	<circle id="XMLID_54_" class="st1" cx="104.59" cy="56.22" r="5.33"/>
	<circle id="XMLID_55_" class="st1" cx="114.82" cy="48.93" r="5.33"/>
	<circle id="XMLID_56_" class="st1" cx="125.34" cy="42.06" r="5.33"/>
	<circle id="XMLID_57_" class="st1" cx="136.13" cy="35.89" r="5.33"/>
	<circle id="XMLID_58_" class="st1" cx="147.21" cy="30.14" r="5.33"/>
	<circle id="XMLID_59_" class="st1" cx="158.56" cy="24.96" r="5.33"/>
	<circle id="XMLID_60_" class="st1" cx="170.2" cy="20.47" r="5.33"/>
	<circle id="XMLID_61_" class="st1" cx="182.12" cy="16.4" r="5.33"/>
	<circle id="XMLID_62_" class="st1" cx="194.17" cy="13.04" r="5.33"/>
	<circle id="XMLID_63_" class="st1" cx="206.37" cy="10.23" r="5.33"/>
	<circle id="XMLID_64_" class="st1" cx="218.71" cy="8.13" r="5.33"/>
	<circle id="XMLID_65_" class="st1" cx="231.04" cy="6.59" r="5.33"/>
	<circle id="XMLID_66_" class="st1" cx="243.52" cy="5.61" r="5.33"/>
	<circle id="XMLID_67_" class="st1" cx="256" cy="5.33" r="5.33"/>
	
		<ellipse id="XMLID_68_" transform="matrix(0.1602 -0.9871 0.9871 0.1602 219.9367 269.7204)" class="st1" cx="268.48" cy="5.61" rx="5.33" ry="5.33"/>
	<circle id="XMLID_69_" class="st1" cx="280.96" cy="6.59" r="5.33"/>
	<circle id="XMLID_70_" class="st1" cx="293.29" cy="8.13" r="5.33"/>
	<circle id="XMLID_71_" class="st1" cx="305.63" cy="10.23" r="5.33"/>
	<circle id="XMLID_72_" class="st1" cx="317.83" cy="13.04" r="5.33"/>
	<circle id="XMLID_73_" class="st1" cx="329.88" cy="16.4" r="5.33"/>
	<circle id="XMLID_74_" class="st1" cx="341.8" cy="20.47" r="5.33"/>
	<circle id="XMLID_75_" class="st1" cx="353.44" cy="24.96" r="5.33"/>
	<circle id="XMLID_76_" class="st1" cx="364.79" cy="30.14" r="5.33"/>
	<circle id="XMLID_77_" class="st1" cx="375.87" cy="35.89" r="5.33"/>
	<circle id="XMLID_78_" class="st1" cx="386.66" cy="42.06" r="5.33"/>
	<circle id="XMLID_79_" class="st1" cx="397.18" cy="48.93" r="5.33"/>
	<circle id="XMLID_80_" class="st1" cx="407.41" cy="56.22" r="5.33"/>
	<circle id="XMLID_81_" class="st1" cx="417.09" cy="63.93" r="5.33"/>
	<circle id="XMLID_82_" class="st1" cx="426.48" cy="72.2" r="5.33"/>
	<circle id="XMLID_83_" class="st1" cx="435.45" cy="80.89" r="5.33"/>
	<circle id="XMLID_84_" class="st1" cx="444" cy="90.15" r="5.33"/>
	<circle id="XMLID_85_" class="st1" cx="452" cy="99.68" r="5.33"/>
	<circle id="XMLID_86_" class="st1" cx="459.57" cy="109.63" r="5.33"/>
	<circle id="XMLID_87_" class="st1" cx="466.58" cy="120.01" r="5.33"/>
	<circle id="XMLID_88_" class="st1" cx="473.03" cy="130.66" r="5.33"/>
	<circle id="XMLID_89_" class="st1" cx="479.05" cy="141.6" r="5.33"/>
	<circle id="XMLID_90_" class="st1" cx="484.52" cy="152.81" r="5.33"/>
	<circle id="XMLID_91_" class="st1" cx="489.29" cy="164.45" r="5.33"/>
	<circle id="XMLID_92_" class="st1" cx="493.63" cy="176.23" r="5.33"/>
	<circle id="XMLID_93_" class="st1" cx="497.28" cy="188.14" r="5.33"/>
	<circle id="XMLID_94_" class="st1" cx="500.36" cy="200.2" r="5.33"/>
	<circle id="XMLID_95_" class="st1" cx="502.89" cy="212.54" r="5.33"/>
	<circle id="XMLID_96_" class="st1" cx="504.71" cy="224.88" r="5.33"/>
	<circle id="XMLID_97_" class="st1" cx="505.97" cy="237.21" r="5.33"/>
	<circle id="XMLID_98_" class="st1" cx="506.53" cy="249.69" r="5.33"/>
	<circle id="XMLID_99_" class="st1" cx="506.53" cy="262.31" r="5.33"/>
	<circle id="XMLID_100_" class="st1" cx="505.97" cy="274.79" r="5.33"/>
	<circle id="XMLID_101_" class="st1" cx="504.71" cy="287.12" r="5.33"/>
	<circle id="XMLID_102_" class="st1" cx="502.89" cy="299.46" r="5.33"/>
	<circle id="XMLID_103_" class="st1" cx="500.36" cy="311.8" r="5.33"/>
	<circle id="XMLID_104_" class="st1" cx="497.28" cy="323.86" r="5.33"/>
	<circle id="XMLID_105_" class="st1" cx="493.63" cy="335.77" r="5.33"/>
	<circle id="XMLID_106_" class="st1" cx="489.29" cy="347.55" r="5.33"/>
	<circle id="XMLID_107_" class="st1" cx="484.52" cy="359.19" r="5.33"/>
	<circle id="XMLID_108_" class="st1" cx="479.05" cy="370.4" r="5.33"/>
	<circle id="XMLID_109_" class="st1" cx="473.03" cy="381.34" r="5.33"/>
	<circle id="XMLID_110_" class="st1" cx="466.58" cy="391.99" r="5.33"/>
	<circle id="XMLID_111_" class="st1" cx="459.57" cy="402.37" r="5.33"/>
	<circle id="XMLID_112_" class="st1" cx="452" cy="412.32" r="5.33"/>
	<circle id="XMLID_113_" class="st1" cx="444" cy="421.85" r="5.33"/>
	<circle id="XMLID_114_" class="st1" cx="435.45" cy="431.11" r="5.33"/>
	<circle id="XMLID_115_" class="st1" cx="426.48" cy="439.8" r="5.33"/>
	<circle id="XMLID_116_" class="st1" cx="417.09" cy="448.07" r="5.33"/>
	<circle id="XMLID_117_" class="st1" cx="407.41" cy="455.78" r="5.33"/>
	<circle id="XMLID_118_" class="st1" cx="397.18" cy="463.07" r="5.33"/>
	<circle id="XMLID_119_" class="st1" cx="386.66" cy="469.94" r="5.33"/>
	<circle id="XMLID_120_" class="st1" cx="375.87" cy="476.11" r="5.33"/>
	<circle id="XMLID_121_" class="st1" cx="364.79" cy="481.86" r="5.33"/>
	<circle id="XMLID_122_" class="st1" cx="353.44" cy="487.04" r="5.33"/>
	<circle id="XMLID_123_" class="st1" cx="341.8" cy="491.53" r="5.33"/>
	<circle id="XMLID_124_" class="st1" cx="329.88" cy="495.6" r="5.33"/>
	<circle id="XMLID_125_" class="st1" cx="317.83" cy="498.96" r="5.33"/>
	<circle id="XMLID_126_" class="st1" cx="305.63" cy="501.77" r="5.33"/>
	<circle id="XMLID_127_" class="st1" cx="293.29" cy="503.87" r="5.33"/>
	<circle id="XMLID_128_" class="st1" cx="280.96" cy="505.41" r="5.33"/>
	<circle id="XMLID_129_" class="st1" cx="268.48" cy="506.39" r="5.33"/>
	<line id="XMLID_130_" class="st2" x1="218.43" y1="98.14" x2="175.81" y2="99.26"/>
	<polyline id="XMLID_131_" class="st1" points="218.43,96.88 175.81,98.14 175.81,100.52 218.43,99.26 	"/>
	<line id="XMLID_132_" class="st2" x1="223.47" y1="103.04" x2="130.66" y2="130.66"/>
	<polyline id="XMLID_133_" class="st1" points="223.05,101.92 130.24,129.4 131.08,131.93 223.75,104.31 	"/>
	<line id="XMLID_134_" class="st2" x1="228.38" y1="108.09" x2="95.61" y2="198.38"/>
	<polyline id="XMLID_135_" class="st1" points="227.68,107.11 94.91,197.26 96.32,199.36 229.08,109.07 	"/>
	<line id="XMLID_136_" class="st2" x1="230.9" y1="115.66" x2="80.47" y2="252.21"/>
	<polyline id="XMLID_137_" class="st1" points="230.06,114.68 79.63,251.37 81.31,253.2 231.75,116.5 	"/>
	<line id="XMLID_138_" class="st2" x1="230.9" y1="126.88" x2="88.04" y2="288.53"/>
	<polyline id="XMLID_139_" class="st1" points="229.92,126.04 87.06,287.82 89.03,289.37 231.89,127.72 	"/>
	<line id="XMLID_140_" class="st2" x1="235.95" y1="133.19" x2="99.26" y2="331.15"/>
	<polyline id="XMLID_141_" class="st1" points="234.97,132.49 98.28,330.44 100.38,331.85 236.93,133.89 	"/>
	<line id="XMLID_142_" class="st2" x1="238.48" y1="143.14" x2="140.76" y2="393.81"/>
	<polyline id="XMLID_143_" class="st1" points="237.35,142.72 139.5,393.39 141.88,394.37 239.6,143.7 	"/>
	<line id="XMLID_144_" class="st2" x1="247.17" y1="133.19" x2="168.24" y2="411.48"/>
	<polyline id="XMLID_145_" class="st1" points="246.05,132.77 167.12,411.06 169.5,411.76 248.43,133.47 	"/>
	<line id="XMLID_146_" class="st2" x1="253.48" y1="129.4" x2="198.38" y2="406.43"/>
	<polyline id="XMLID_147_" class="st1" points="252.21,129.12 197.12,406.15 199.64,406.71 254.74,129.68 	"/>
	<line id="XMLID_148_" class="st2" x1="233.43" y1="393.81" x2="228.38" y2="432.79"/>
	<polyline id="XMLID_149_" class="st1" points="232.17,393.67 227.12,432.51 229.64,432.93 234.69,394.09 	"/>
	<line id="XMLID_150_" class="st2" x1="289.79" y1="103.04" x2="336.19" y2="106.83"/>
	<polyline id="XMLID_151_" class="st1" points="289.79,104.31 336.05,108.09 336.33,105.57 289.93,101.78 	"/>
	<line id="XMLID_152_" class="st2" x1="286.14" y1="108.09" x2="391.43" y2="150.71"/>
	<polyline id="XMLID_153_" class="st1" points="285.58,109.21 390.87,151.83 391.85,149.59 286.56,106.97 	"/>
	<line id="XMLID_154_" class="st2" x1="286.14" y1="115.66" x2="421.43" y2="198.38"/>
	<polyline id="XMLID_155_" class="st1" points="285.44,116.64 420.73,199.36 422.13,197.26 286.7,114.54 	"/>
	<line id="XMLID_156_" class="st2" x1="286.14" y1="123.09" x2="429" y2="241"/>
	<polyline id="XMLID_157_" class="st1" points="285.3,124.07 428.16,241.98 429.7,240.02 286.84,122.11 	"/>
	<line id="XMLID_158_" class="st2" x1="281.1" y1="130.66" x2="426.48" y2="291.05"/>
	<polyline id="XMLID_159_" class="st1" points="280.11,131.5 425.5,291.89 427.32,290.21 281.94,129.82 	"/>
	<line id="XMLID_160_" class="st2" x1="291.05" y1="155.76" x2="418.91" y2="323.72"/>
	<polyline id="XMLID_161_" class="st1" points="290.07,156.46 417.93,324.42 419.89,322.87 292.03,154.92 	"/>
	<line id="XMLID_162_" class="st2" x1="316.14" y1="205.81" x2="401.38" y2="353.72"/>
	<polyline id="XMLID_163_" class="st1" points="315.02,206.51 400.26,354.42 402.51,353.16 317.27,205.25 	"/>
	<line id="XMLID_164_" class="st2" x1="271" y1="130.66" x2="373.77" y2="388.91"/>
	<polyline id="XMLID_165_" class="st1" points="269.88,131.08 372.64,389.33 375.03,388.35 272.26,130.24 	"/>
	<line id="XMLID_166_" class="st2" x1="259.79" y1="129.4" x2="334.93" y2="402.65"/>
	<polyline id="XMLID_167_" class="st1" points="258.52,129.68 333.81,402.93 336.19,402.37 260.91,129.12 	"/>
	<line id="XMLID_168_" class="st2" x1="294.83" y1="393.81" x2="296.1" y2="425.22"/>
	<polyline id="XMLID_169_" class="st1" points="293.57,393.95 294.83,425.22 297.36,425.22 296.1,393.81 	"/>
	<line id="XMLID_170_" class="st2" x1="261.05" y1="393.81" x2="262.31" y2="433.91"/>
	<polyline id="XMLID_171_" class="st1" points="259.79,393.95 261.05,434.05 263.57,433.91 262.31,393.81 	"/>
	<path id="XMLID_172_" class="st0" d="M125.62,326.24c-7.57,7.57-13.74,10.09-13.74,22.57s13.74,12.48,16.26,12.48
		c2.52,0,12.48-2.52,12.48,11.22c0,13.74,20.05,17.52,20.05,31.4c1.26,7.57,2.52-12.48-2.52-17.52c2.52-2.52,1.26-2.52,3.79-7.57
		c2.52,2.52,20.05,17.52,22.57,17.52c7.57,0,3.79-16.26-5.05-7.57c-3.79-3.79-3.79-11.22-8.83-11.22s-5.05-5.05-5.05-10.09
		c0-5.05,0-21.31-35.05-21.31c-7.57,0-7.57,0-7.57-5.05c0-5.05,2.52-10.09,2.52-12.48v-2.38H125.62z"/>
	<path id="XMLID_173_" class="st1" d="M125.62,326.24l-0.84-0.84c-3.65,3.65-7.15,6.17-9.81,9.53c-2.66,3.36-4.35,7.43-4.35,13.88
		c0,3.36,0.98,6.03,2.38,7.99c2.24,2.94,5.61,4.35,8.55,5.05c2.94,0.7,5.61,0.7,6.59,0.7c0.84,0,1.96-0.14,3.22-0.14
		c1.82,0,3.79,0.28,5.19,1.68c1.54,1.26,2.8,3.79,2.8,8.55c0,3.79,1.4,6.87,3.36,9.53c2.94,3.93,7.29,7.01,10.65,10.37
		c1.68,1.68,3.22,3.36,4.35,5.19c1.12,1.82,1.68,3.79,1.68,6.17v0.14v0.14c0.14,0.56,0.14,1.12,0.28,1.54l0.28,0.56l0.42,0.42
		c0.14,0.14,0.42,0.28,0.84,0.28c0.28,0,0.56-0.14,0.84-0.28c0.28-0.28,0.42-0.42,0.56-0.7c0.14-0.28,0.14-0.56,0.28-0.84
		c0.14-0.84,0.28-2.24,0.28-3.79c0-2.52-0.28-5.61-0.84-8.41c-0.56-2.94-1.54-5.61-3.22-7.29l-0.84,0.84l0.84,0.84
		c0.7-0.7,1.12-1.26,1.4-1.68c0.56-0.84,0.7-1.54,0.98-2.38c0.28-0.84,0.7-1.96,1.54-3.79l-1.12-0.56l-0.84,0.84
		c0.7,0.7,2.24,2.1,4.35,3.93c3.08,2.66,7.15,6.17,10.8,8.83c1.82,1.4,3.5,2.66,4.91,3.5c0.7,0.42,1.26,0.84,1.82,1.12
		c0.56,0.28,0.98,0.42,1.68,0.56c1.68,0,3.22-0.7,4.07-1.96c0.84-1.12,1.26-2.52,1.26-3.93c0-1.54-0.42-3.22-1.26-4.49
		c-0.84-1.26-2.38-2.24-4.07-2.24c-1.82,0-3.79,0.98-5.75,2.94l0.84,0.84l0.84-0.84c-1.54-1.54-2.52-4.21-3.65-6.73
		c-0.56-1.26-1.26-2.38-2.1-3.36c-0.98-0.98-2.24-1.68-3.79-1.54c-0.98,0-1.68-0.28-2.1-0.56c-0.7-0.56-1.12-1.54-1.4-2.94
		c-0.28-1.4-0.28-3.36-0.28-5.19c0-2.52,0-8.27-4.77-13.46c-4.77-5.05-13.88-9.11-31.68-9.11c-1.82,0-3.22,0-4.21-0.14
		c-0.7,0-1.26-0.14-1.4-0.28l-0.28-0.14c0,0-0.14-0.28-0.28-0.84c0-0.56,0-1.4,0-2.38c0-2.24,0.56-4.77,1.26-6.87
		c0.28-1.12,0.56-2.1,0.84-3.08c0.28-0.98,0.42-1.82,0.42-2.66v-2.52v-3.08l-2.1,2.1L125.62,326.24h-1.26v2.52
		c0,0.42-0.14,1.12-0.42,1.96c-0.7,2.66-2.1,6.45-2.1,10.51c0,1.26,0,2.24,0.14,3.08c0.14,0.7,0.28,1.26,0.84,1.82
		c0.42,0.42,0.84,0.7,1.4,0.84c1.54,0.56,3.36,0.42,6.45,0.42c17.38,0,25.8,4.07,29.72,8.41c4.07,4.35,4.07,9.25,4.07,11.64
		c0,2.52,0,5.05,0.7,7.29c0.42,1.12,0.98,2.1,1.96,2.8c0.98,0.7,2.24,1.12,3.65,1.12c0.98,0,1.54,0.28,2.1,0.84
		c0.84,0.84,1.68,2.52,2.38,4.49c0.84,1.82,1.68,3.93,3.36,5.61l0.84,0.84l0.84-0.84c1.68-1.68,3.08-2.24,3.93-2.24
		c0.84,0,1.54,0.42,2.1,1.26c0.56,0.84,0.84,1.96,0.84,3.08c0,0.98-0.28,1.82-0.7,2.38c-0.42,0.56-0.98,0.98-2.1,0.98v0.42v-0.42
		l0,0v0.42v-0.42h-0.14c-0.28-0.14-0.84-0.42-1.68-0.84c-2.66-1.68-7.15-5.33-11.22-8.69c-4.07-3.36-7.71-6.59-8.69-7.57l-1.26-1.26
		l-0.84,1.54c-1.26,2.52-1.68,3.93-1.96,4.91c-0.14,0.42-0.28,0.7-0.42,0.98c-0.14,0.28-0.56,0.7-1.12,1.26l-0.56,0.98l0.84,0.84
		c1.12,0.98,1.96,3.36,2.52,6.03c0.56,2.66,0.7,5.61,0.7,7.99c0,1.26,0,2.24-0.14,2.94c0,0.28-0.14,0.56-0.14,0.7l0,0l0.56,0.14
		l-0.42-0.42l-0.14,0.14l0.56,0.14l-0.42-0.42l0.84,0.7l-0.56-0.84l-0.28,0.28l0.84,0.7l-0.56-0.84l0.56,0.98v-1.12
		c-0.28,0-0.42,0.14-0.56,0.14l0.56,0.98v-1.12v1.12l0.7-0.98c-0.14-0.14-0.42-0.28-0.7-0.28v1.12l0.7-0.98l-0.42,0.7l0.7-0.42
		c0,0,0-0.14-0.28-0.28l-0.42,0.7l0.7-0.42l0,0c0-0.14-0.14-0.56-0.28-1.12l-1.26,0.14h1.26c0-3.79-1.4-6.87-3.36-9.53
		c-2.94-3.93-7.29-7.01-10.65-10.37c-1.68-1.68-3.22-3.36-4.35-5.19c-1.12-1.82-1.68-3.79-1.68-6.17c0-5.19-1.4-8.55-3.65-10.51
		c-2.24-1.96-4.91-2.24-6.87-2.24c-1.54,0-2.8,0.14-3.22,0.14c-1.26,0-5.19,0-8.55-1.4c-1.68-0.7-3.36-1.82-4.49-3.36
		c-1.12-1.54-1.96-3.65-1.96-6.45c0-6.03,1.4-9.39,3.79-12.34c2.38-2.94,5.75-5.47,9.67-9.25L125.62,326.24h-1.26H125.62z"/>
	<path id="XMLID_174_" class="st0" d="M136.97,141.88H241c7.57,0,12.48,10.09,15,12.48c2.52-2.52,7.57-12.48,15-12.48h104.03v223.05
		H265.95c0,5.05-20.05,5.05-20.05,0H136.83V141.88H136.97z"/>
	<path id="XMLID_175_" class="st1" d="M136.97,141.88v1.26H241c1.54,0,3.08,0.56,4.49,1.4c2.1,1.26,4.07,3.5,5.61,5.61
		c0.84,0.98,1.54,2.1,2.24,2.94c0.7,0.84,1.26,1.68,1.82,2.24l0.84,0.84l0.84-0.84c0.7-0.7,1.54-1.82,2.52-3.22
		c1.4-1.96,3.08-4.21,5.05-6.03c1.96-1.82,4.21-2.94,6.59-2.94h102.76v220.53H264.69v1.26c0,0.14,0,0.42-0.42,0.7
		c-0.56,0.42-1.68,0.98-3.22,1.26c-1.54,0.28-3.36,0.56-5.05,0.56c-2.38,0-4.77-0.28-6.45-0.84c-0.84-0.28-1.54-0.56-1.82-0.98
		c-0.42-0.28-0.42-0.56-0.42-0.7v-1.26H138.23V141.88H136.97v1.26V141.88h-1.26v224.32h110.34v-1.26h-1.26
		c0,1.12,0.56,1.96,1.26,2.66c1.12,0.98,2.66,1.54,4.35,1.82c1.68,0.42,3.65,0.56,5.61,0.56c2.66,0,5.19-0.28,7.29-0.98
		c0.98-0.28,1.96-0.84,2.66-1.4c0.7-0.56,1.26-1.54,1.26-2.66h-1.26v1.26h110.34V140.76H271c-2.1,0-4.07,0.7-5.89,1.82
		c-2.52,1.54-4.63,3.93-6.31,6.17c-0.84,1.12-1.54,2.1-2.24,2.94c-0.7,0.84-1.12,1.54-1.54,1.96l0.84,0.84l0.84-0.84
		c-0.56-0.42-1.26-1.54-2.24-2.8c-1.4-1.96-3.22-4.35-5.47-6.45c-2.24-1.96-5.05-3.65-8.27-3.65H135.43v1.26h1.54V141.88z"/>
	<path id="XMLID_176_" class="st1" d="M165.71,141.88v206.79h75.15c1.54,0,3.08,0.56,4.49,1.4c2.1,1.26,4.07,3.5,5.61,5.61
		c0.84,0.98,1.54,2.1,2.24,2.94c0.7,0.84,1.26,1.68,1.82,2.24l0.84,0.84l0.84-0.84c0.7-0.7,1.54-1.82,2.52-3.22
		c1.4-1.96,3.08-4.21,5.05-6.03s4.21-2.94,6.59-2.94h75.15V141.88h-2.52v204.27h-72.76c-2.1,0-4.07,0.7-5.89,1.82
		c-2.52,1.54-4.63,3.93-6.31,6.17c-0.84,1.12-1.54,2.1-2.24,2.94s-1.12,1.54-1.54,1.96l0.84,0.84l0.84-0.84
		c-0.56-0.42-1.26-1.54-2.24-2.8c-1.4-1.96-3.22-4.35-5.47-6.45c-2.24-1.96-5.05-3.65-8.27-3.65h-72.76V141.88H165.71L165.71,141.88
		z"/>
	<path id="XMLID_177_" class="st1" d="M158.28,141.88v211.14H241c1.54,0,3.08,0.56,4.49,1.4c2.1,1.26,4.07,3.5,5.61,5.61
		c0.84,0.98,1.54,2.1,2.24,2.94s1.26,1.68,1.82,2.24l0.84,0.84l0.84-0.84c0.7-0.7,1.54-1.82,2.52-3.22c1.4-1.96,3.08-4.21,5.05-6.03
		c1.96-1.82,4.21-2.94,6.59-2.94h82.72V141.88h-2.52v208.75H271c-2.1,0-4.07,0.7-5.89,1.82c-2.52,1.54-4.63,3.93-6.31,6.17
		c-0.84,1.12-1.54,2.1-2.24,2.94s-1.12,1.54-1.54,1.96l0.84,0.84l0.84-0.84c-0.56-0.42-1.26-1.54-2.24-2.8
		c-1.4-1.96-3.22-4.35-5.47-6.45c-2.24-1.96-5.05-3.65-8.27-3.65h-80.19V141.88L158.28,141.88L158.28,141.88z"/>
	<path id="XMLID_178_" class="st1" d="M150.71,141.88V357.5H241c3.36,0,6.31,1.4,8.69,3.22s4.21,3.93,5.47,5.19l0.84,0.84l0.84-0.84
		c1.26-1.26,3.08-3.36,5.47-5.19c2.38-1.82,5.19-3.22,8.69-3.22h90.29V141.88h-2.52v213.1H271c-4.07,0-7.57,1.68-10.09,3.65
		c-2.66,1.96-4.63,4.21-5.75,5.47l0.84,0.84l0.84-0.84c-1.26-1.12-3.08-3.5-5.75-5.47c-2.66-1.96-6.03-3.65-10.09-3.65h-87.76
		v-213.1H150.71L150.71,141.88z"/>
	<path id="XMLID_179_" class="st1" d="M143.14,141.88v219.97h97.72c7.29,0,12.06,1.82,14.16,4.07l0.84,0.84l0.84-0.84
		c2.1-2.1,6.87-4.07,14.16-4.07h97.72V141.88h-2.52v217.45h-95.19c-7.71,0-13.04,1.96-15.98,4.77l0.84,0.84l0.84-0.84
		c-2.94-2.8-8.27-4.77-15.98-4.77h-95.19V141.88H143.14L143.14,141.88z"/>
	<line id="XMLID_180_" class="st2" x1="256" y1="154.5" x2="256" y2="360.03"/>
	<polyline id="XMLID_181_" class="st1" points="254.74,154.5 254.74,360.03 257.26,360.03 257.26,154.5 	"/>
	<path id="XMLID_182_" class="st0" d="M245.91,365.07c0-15,20.05-15,20.05,0C266.09,370.12,245.91,370.12,245.91,365.07z"/>
	<path id="XMLID_183_" class="st1" d="M245.91,365.07h1.26c0-3.5,1.12-5.89,2.8-7.57c1.68-1.68,3.79-2.38,6.03-2.38
		s4.35,0.84,6.03,2.38c1.68,1.68,2.8,4.07,2.8,7.57c0,0.14,0,0.42-0.42,0.7c-0.56,0.42-1.68,0.98-3.22,1.26
		c-1.54,0.28-3.36,0.56-5.05,0.56c-2.38,0-4.77-0.28-6.45-0.84c-0.84-0.28-1.54-0.56-1.82-0.98c-0.42-0.28-0.42-0.56-0.42-0.7
		L245.91,365.07l-1.12,0c0,1.12,0.56,1.96,1.26,2.66c1.12,0.98,2.66,1.54,4.35,1.82c1.68,0.42,3.65,0.56,5.61,0.56
		c2.66,0,5.19-0.28,7.29-0.98c0.98-0.28,1.96-0.84,2.66-1.4s1.26-1.54,1.26-2.66c0-4.07-1.4-7.29-3.5-9.39
		c-2.1-2.1-4.91-3.22-7.71-3.22c-2.8,0-5.61,1.12-7.71,3.22c-2.1,2.1-3.5,5.33-3.5,9.39L245.91,365.07L245.91,365.07z"/>
	<path id="XMLID_367_" class="st1" d="M271,153.66h7.57v-2.52H271V153.66z M286.14,153.66h5.05v-2.52h-5.05V153.66z M293.57,153.66
		h7.57v-2.52h-7.57V153.66z M308.57,153.66h17.52v-2.52h-17.52V153.66z M328.76,153.66h10.09v-2.52h-10.09V153.66z M271,161.65h2.52
		v-2.52H271V161.65z M276.05,161.65h32.53v-2.52h-32.53V161.65z M316.14,161.65h22.57v-2.52h-22.57V161.65z M271,169.64h10.09v-2.52
		H271V169.64z M283.62,169.64h7.57v-2.52h-7.57V169.64z M298.62,169.64h17.52v-2.52h-17.52V169.64z M318.67,169.64h10.09v-2.52
		h-10.09V169.64z M331.15,169.64h7.57v-2.52h-7.57V169.64z M271,177.63h67.72v-2.52H271V177.63z M271,185.62h2.52v-2.52H271V185.62z
		 M276.05,185.62h22.57v-2.52h-22.57V185.62z M301.14,185.62h12.48v-2.52h-12.48V185.62z M316.14,185.62h22.57v-2.52h-22.57V185.62z
		 M271,193.75h12.48v-2.52H271V193.75z M286.14,193.75h17.52v-2.52h-17.52V193.75z M306.19,193.75h17.52v-2.52h-17.52V193.75z
		 M331.15,193.75h7.57v-2.52h-7.57V193.75z M271,201.74h2.52v-2.52H271V201.74z M281.1,201.74h12.48v-2.52H281.1V201.74z
		 M296.1,201.74h7.57v-2.52h-7.57V201.74z M311.1,201.74h17.52v-2.52H311.1V201.74z M331.15,201.74h7.57v-2.52h-7.57V201.74z
		 M271,209.73h10.09v-2.52H271V209.73z M288.53,209.73h15.14v-2.52h-15v2.52H288.53z M306.19,209.73h10.09v-2.52h-10.09V209.73z
		 M323.72,209.73h15v-2.52h-15V209.73z M271,217.73h2.52v-2.52H271V217.73z M276.05,217.73h22.57v-2.52h-22.57V217.73z
		 M301.14,217.73h12.48v-2.52h-12.48V217.73z M316.14,217.73h22.57v-2.52h-22.57V217.73z M271,225.86h5.05v-2.52H271V225.86z
		 M278.57,225.86h7.57v-2.52h-7.57V225.86z M293.57,225.86h2.52v-2.52h-2.52V225.86z M298.62,225.86h7.57v-2.52h-7.57V225.86z
		 M313.62,225.86h2.52v-2.52h-2.52V225.86z M318.67,225.86h7.57v-2.52h-7.57V225.86z M333.67,225.86h5.05v-2.52h-5.05V225.86z
		 M271,233.85h5.05v-2.52H271V233.85z M278.57,233.85h12.48v-2.52h-12.48V233.85z M293.57,233.85h7.57v-2.52h-7.57V233.85z
		 M308.57,233.85h15v-2.52h-15V233.85z M326.24,233.85h12.48v-2.52h-12.48V233.85z M271,241.84h25.1v-2.52H271V241.84z
		 M298.62,241.84h40.1v-2.52h-40.1V241.84z M271,249.83h5.05v-2.52H271V249.83z M278.57,249.83h30.14v-2.52h-30.14V249.83z
		 M316.14,249.83h22.57v-2.52h-22.57V249.83z M271,257.82h10.09v-2.52H271V257.82z M283.62,257.82h12.48v-2.52h-12.48V257.82z
		 M303.67,257.82h17.52v-2.52h-17.52V257.82z M323.72,257.82h15v-2.52h-15V257.82z M271,265.95h67.72v-2.52H271V265.95z M271,273.95
		h22.57v-2.52H271V273.95z M301.14,273.95h37.57v-2.52h-37.57V273.95z M271,281.94h7.57v-2.52H271V281.94z M281.1,281.94h5.05v-2.52
		h-5.05V281.94z M288.53,281.94h15.14v-2.52h-15v2.52H288.53z M306.19,281.94h10.09v-2.52h-10.09V281.94z M318.67,281.94h20.05
		v-2.52h-20.05V281.94z M271,289.93h25.1v-2.52H271V289.93z M298.62,289.93h40.1v-2.52h-40.1V289.93z M271,297.92h67.72v-2.52H271
		V297.92z M271,306.05h22.57v-2.52H271V306.05z M301.14,306.05h37.57v-2.52h-37.57V306.05z M271,314.04h3.79v-2.52H271V314.04z
		 M277.31,314.04h48.09v-2.52h-48.09V314.04z M332.97,314.04h1.54v-2.52h-1.54V314.04z M337.03,314.04h1.82v-2.52h-1.82V314.04z
		 M271,322.03h1.26v-2.52H271V322.03z M274.79,322.03h63.93v-2.52h-63.93V322.03z M271,330.02h2.94v-2.52H271V330.02z
		 M276.61,330.02h62.11v-2.52h-62.11V330.02z M271,338.16h67.72v-2.52H271V338.16z M173.28,153.66h7.57v-2.52h-7.57V153.66z
		 M188.28,153.66h10.09v-2.52h-10.09V153.66z M200.9,153.66h12.48v-2.52H200.9V153.66z M215.9,153.66h12.48v-2.52H215.9V153.66z
		 M230.9,153.66H241v-2.52H230.9V153.66z M173.28,161.65h45.14v-2.52h-45.14V161.65z M220.95,161.65H241v-2.52h-20.05V161.65z
		 M173.28,169.64h37.57v-2.52h-37.57V169.64z M213.38,169.64h12.48v-2.52h-12.48V169.64z M233.43,169.64H241v-2.52h-7.57V169.64z
		 M173.28,177.63h45.14v-2.52h-45.14V177.63z M225.86,177.63h15v-2.52h-15V177.63z M173.28,185.62H241v-2.52h-67.72V185.62z
		 M173,193.75h7.57v-2.52H173V193.75z M188,193.75h10.09v-2.52H188V193.75z M200.62,193.75h10.09v-2.52h-10.09V193.75z
		 M218.15,193.75h17.52v-2.52h-17.52V193.75z M238.19,193.75h2.52v-2.52h-2.52V193.75z M173,201.74h12.48v-2.52H173V201.74z
		 M188,201.74h37.57v-2.52H188V201.74z M233.15,201.74h7.57v-2.52h-7.57V201.74z M173,209.73h10.09v-2.52H173V209.73z
		 M185.62,209.73h7.57v-2.52h-7.57V209.73z M200.62,209.73h17.52v-2.52h-17.52V209.73z M220.67,209.73h12.48v-2.52h-12.48V209.73z
		 M235.67,209.73h5.05v-2.52h-5.05V209.73z M173,217.73h5.05v-2.52H173V217.73z M180.57,217.73h7.57v-2.52h-7.57V217.73z
		 M195.58,217.73h3.79v-2.52h-3.79V217.73z M201.88,217.73h7.57v-2.52h-7.57V217.73z M216.88,217.73h2.52v-2.52h-2.52V217.73z
		 M221.93,217.73h10.09v-2.52h-10.09V217.73z M239.46,217.73h1.26v-2.52h-1.26V217.73z M173,225.86h67.72v-2.52H173V225.86z
		 M173,233.85h15v-2.52h-15V233.85z M195.58,233.85h20.05v-2.52h-20.05V233.85z M223.19,233.85h12.48v-2.52h-12.48V233.85z
		 M238.19,233.85h2.52v-2.52h-2.52V233.85z M173,241.84h5.05v-2.52H173V241.84z M185.62,241.84h17.52v-2.52h-17.52V241.84z
		 M210.58,241.84h15v-2.52h-15V241.84z M233.15,241.84h7.57v-2.52h-7.57V241.84z M173,249.83h67.72v-2.52H173V249.83z M173,257.82
		h12.48v-2.52H173V257.82z M188,257.82h22.57v-2.52H188V257.82z M213.1,257.82h20.05v-2.52H213.1V257.82z M235.67,257.82h5.05v-2.52
		h-5.05V257.82z M173,265.95h27.62v-2.52H173V265.95z M208.05,265.95h32.53v-2.52h-32.53V265.95z M173,273.95h25.1v-2.52H173V273.95
		z M200.62,273.95h20.05v-2.52h-20.05V273.95z M228.24,273.95h12.48v-2.52h-12.48V273.95z M173,281.94h12.48v-2.52H173V281.94z
		 M193.05,281.94h42.62v-2.52h-42.62V281.94z M238.19,281.94h2.52v-2.52h-2.52V281.94z M173,289.93h5.05v-2.52H173V289.93z
		 M180.57,289.93h12.48v-2.52h-12.48V289.93z M195.58,289.93h7.57v-2.52h-7.57V289.93z M210.58,289.93h20.05v-2.52h-20.05V289.93z
		 M233.15,289.93h7.57v-2.52h-7.57V289.93z M173,297.92h7.57v-2.52H173V297.92z M188,297.92h20.05v-2.52H188V297.92z M215.62,297.92
		h12.48v-2.52h-12.48V297.92z M235.67,297.92h5.05v-2.52h-5.05V297.92z M173,306.05h17.52v-2.52H173V306.05z M193.05,306.05h12.48
		v-2.52h-12.48V306.05z M213.1,306.05h17.52v-2.52H213.1V306.05z M233.15,306.05h7.57v-2.52h-7.57V306.05z M173,314.04h22.57v-2.52
		H173V314.04z M203.15,314.04h12.48v-2.52h-12.48V314.04z M218.15,314.04h17.52v-2.52h-17.52V314.04z M238.19,314.04h2.52v-2.52
		h-2.52V314.04z M173,322.03h23.83v-2.52H173V322.03z M199.36,322.03h2.52v-2.52h-2.52V322.03z M209.31,322.03h2.52v-2.52h-2.52
		V322.03z M214.36,322.03h2.52v-2.52h-2.52V322.03z M224.46,322.03h2.52v-2.52h-2.52V322.03z M229.36,322.03h2.52v-2.52h-2.52
		V322.03z M239.46,322.03h1.26v-2.52h-1.26V322.03z M173,330.02h67.72v-2.52H173V330.02z M173,338.16h67.72v-2.52H173V338.16z
		 M239.46,153.66h1.26c1.54,0,3.08,0.56,4.49,1.4c2.1,1.26,4.07,3.5,5.61,5.61c0.84,0.98,1.54,2.1,2.24,2.94
		c0.7,0.84,1.26,1.68,1.82,2.24l0.84,0.84l0.84-0.84c0.7-0.7,1.54-1.82,2.52-3.22c1.4-1.96,3.08-4.21,5.05-6.03
		c1.96-1.82,4.21-2.94,6.59-2.94h1.26v-2.52h-1.26c-2.1,0-4.07,0.7-5.89,1.82c-2.52,1.54-4.63,3.93-6.31,6.17
		c-0.84,1.12-1.54,2.1-2.24,2.94c-0.7,0.84-1.12,1.54-1.54,1.96l0.84,0.84l0.84-0.84c-0.56-0.42-1.26-1.54-2.24-2.8
		c-1.4-1.96-3.22-4.35-5.47-6.45c-2.24-1.96-5.05-3.65-8.27-3.65h-1.26v2.52H239.46z M239.46,161.65h1.26c1.54,0,3.08,0.56,4.49,1.4
		c2.1,1.26,4.07,3.5,5.61,5.61c0.84,0.98,1.54,2.1,2.24,2.94s1.26,1.68,1.82,2.24l0.84,0.84l0.84-0.84c0.7-0.7,1.54-1.82,2.52-3.22
		c1.4-1.96,3.08-4.21,5.05-6.03c1.96-1.82,4.21-2.94,6.59-2.94h1.26v-2.52h-1.26c-2.1,0-4.07,0.7-5.89,1.82
		c-2.52,1.54-4.63,3.93-6.31,6.17c-0.84,1.12-1.54,2.1-2.24,2.94c-0.7,0.84-1.12,1.54-1.54,1.96l0.84,0.84l0.84-0.84
		c-0.56-0.42-1.26-1.54-2.24-2.8c-1.4-1.96-3.22-4.35-5.47-6.45c-2.24-1.96-5.05-3.65-8.27-3.65h-1.26v2.52H239.46z M239.46,169.64
		h1.26c1.54,0,3.08,0.56,4.49,1.4c2.1,1.26,4.07,3.5,5.61,5.61c0.84,0.98,1.54,2.1,2.24,2.94c0.7,0.84,1.26,1.68,1.82,2.24
		l0.84,0.84l0.84-0.84c0.7-0.7,1.54-1.82,2.52-3.22c1.4-1.96,3.08-4.21,5.05-6.03c1.96-1.82,4.21-2.94,6.59-2.94h1.26v-2.52h-1.26
		c-2.1,0-4.07,0.7-5.89,1.82c-2.52,1.54-4.63,3.93-6.31,6.17c-0.84,1.12-1.54,2.1-2.24,2.94c-0.7,0.84-1.12,1.54-1.54,1.96
		l0.84,0.84l0.84-0.84c-0.56-0.42-1.26-1.54-2.24-2.8c-1.4-1.96-3.22-4.35-5.47-6.45c-2.24-1.96-5.05-3.65-8.27-3.65h-1.26v2.52
		H239.46z M239.46,177.63h1.26c1.54,0,3.08,0.56,4.49,1.4c2.1,1.26,4.07,3.5,5.61,5.61c0.84,0.98,1.54,2.1,2.24,2.94
		c0.7,0.84,1.26,1.68,1.82,2.24l0.84,0.84l0.84-0.84c0.7-0.7,1.54-1.82,2.52-3.22c1.4-1.96,3.08-4.21,5.05-6.03
		c1.96-1.82,4.21-2.94,6.59-2.94h1.26v-2.52h-1.26c-2.1,0-4.07,0.7-5.89,1.82c-2.52,1.54-4.63,3.93-6.31,6.17
		c-0.84,1.12-1.54,2.1-2.24,2.94c-0.7,0.84-1.12,1.54-1.54,1.96l0.84,0.84l0.84-0.84c-0.56-0.42-1.26-1.54-2.24-2.8
		c-1.4-1.96-3.22-4.35-5.47-6.45c-2.24-1.96-5.05-3.65-8.27-3.65h-1.26v2.52H239.46z M239.46,185.62h1.26c1.54,0,3.08,0.56,4.49,1.4
		c2.1,1.26,4.07,3.5,5.61,5.61c0.84,0.98,1.54,2.1,2.24,2.94s1.26,1.68,1.82,2.24l0.84,0.84l0.84-0.84c0.7-0.7,1.54-1.82,2.52-3.22
		c1.4-1.96,3.08-4.21,5.05-6.03c1.96-1.82,4.21-2.94,6.59-2.94h1.26v-2.52h-1.26c-2.1,0-4.07,0.7-5.89,1.82
		c-2.52,1.54-4.63,3.93-6.31,6.17c-0.84,1.12-1.54,2.1-2.24,2.94c-0.7,0.84-1.12,1.54-1.54,1.96l0.84,0.84l0.84-0.84
		c-0.56-0.42-1.26-1.54-2.24-2.8c-1.4-1.96-3.22-4.35-5.47-6.45c-2.24-1.96-5.05-3.65-8.27-3.65h-1.26v2.52H239.46z M239.46,193.75
		h1.26c1.54,0,3.08,0.56,4.49,1.4c2.1,1.26,4.07,3.5,5.61,5.61c0.84,0.98,1.54,2.1,2.24,2.94s1.26,1.68,1.82,2.24l0.84,0.84
		l0.84-0.84c0.7-0.7,1.54-1.82,2.52-3.22c1.4-1.96,3.08-4.21,5.05-6.03c1.96-1.82,4.21-2.94,6.59-2.94h1.26v-2.52h-1.26
		c-2.1,0-4.07,0.7-5.89,1.82c-2.52,1.54-4.63,3.93-6.31,6.17c-0.84,1.12-1.54,2.1-2.24,2.94c-0.7,0.84-1.12,1.54-1.54,1.96
		l0.84,0.84l0.84-0.84c-0.56-0.42-1.26-1.54-2.24-2.8c-1.4-1.96-3.22-4.35-5.47-6.45c-2.24-1.96-5.05-3.65-8.27-3.65h-1.26v2.52
		H239.46z M239.46,201.74h1.26c1.54,0,3.08,0.56,4.49,1.4c2.1,1.26,4.07,3.5,5.61,5.61c0.84,0.98,1.54,2.1,2.24,2.94
		c0.7,0.84,1.26,1.68,1.82,2.24l0.84,0.84l0.84-0.84c0.7-0.7,1.54-1.82,2.52-3.22c1.4-1.96,3.08-4.21,5.05-6.03
		c1.96-1.82,4.21-2.94,6.59-2.94h1.26v-2.52h-1.26c-2.1,0-4.07,0.7-5.89,1.82c-2.52,1.54-4.63,3.93-6.31,6.17
		c-0.84,1.12-1.54,2.1-2.24,2.94c-0.7,0.84-1.12,1.54-1.54,1.96l0.84,0.84l0.84-0.84c-0.56-0.42-1.26-1.54-2.24-2.8
		c-1.4-1.96-3.22-4.35-5.47-6.45c-2.24-1.96-5.05-3.65-8.27-3.65h-1.26v2.52H239.46z M239.46,209.73h1.26c1.54,0,3.08,0.56,4.49,1.4
		c2.1,1.26,4.07,3.5,5.61,5.61c0.84,0.98,1.54,2.1,2.24,2.94s1.26,1.68,1.82,2.24l0.84,0.84l0.84-0.84c0.7-0.7,1.54-1.82,2.52-3.22
		c1.4-1.96,3.08-4.21,5.05-6.03c1.96-1.82,4.21-2.94,6.59-2.94h1.26v-2.52h-1.26c-2.1,0-4.07,0.7-5.89,1.82
		c-2.52,1.54-4.63,3.93-6.31,6.17c-0.84,1.12-1.54,2.1-2.24,2.94c-0.7,0.84-1.12,1.54-1.54,1.96l0.84,0.84l0.84-0.84
		c-0.56-0.42-1.26-1.54-2.24-2.8c-1.4-1.96-3.22-4.35-5.47-6.45c-2.24-1.96-5.05-3.65-8.27-3.65h-1.26v2.52H239.46z M239.46,217.73
		h1.26c1.54,0,3.08,0.56,4.49,1.4c2.1,1.26,4.07,3.5,5.61,5.61c0.84,0.98,1.54,2.1,2.24,2.94c0.7,0.84,1.26,1.68,1.82,2.24
		l0.84,0.84l0.84-0.84c0.7-0.7,1.54-1.82,2.52-3.22c1.4-1.96,3.08-4.21,5.05-6.03c1.96-1.82,4.21-2.94,6.59-2.94h1.26v-2.52h-1.26
		c-2.1,0-4.07,0.7-5.89,1.82c-2.52,1.54-4.63,3.93-6.31,6.17c-0.84,1.12-1.54,2.1-2.24,2.94c-0.7,0.84-1.12,1.54-1.54,1.96
		l0.84,0.84l0.84-0.84c-0.56-0.42-1.26-1.54-2.24-2.8c-1.4-1.96-3.22-4.35-5.47-6.45c-2.24-1.96-5.05-3.65-8.27-3.65h-1.26v2.52
		H239.46z M239.46,225.86h1.26c1.54,0,3.08,0.56,4.49,1.4c2.1,1.26,4.07,3.5,5.61,5.61c0.84,0.98,1.54,2.1,2.24,2.94
		c0.7,0.84,1.26,1.68,1.82,2.24l0.84,0.84l0.84-0.84c0.7-0.7,1.54-1.82,2.52-3.22c1.4-1.96,3.08-4.21,5.05-6.03
		c1.96-1.82,4.21-2.94,6.59-2.94h1.26v-2.52h-1.26c-2.1,0-4.07,0.7-5.89,1.82c-2.52,1.54-4.63,3.93-6.31,6.17
		c-0.84,1.12-1.54,2.1-2.24,2.94c-0.7,0.84-1.12,1.54-1.54,1.96l0.84,0.84l0.84-0.84c-0.56-0.42-1.26-1.54-2.24-2.8
		c-1.4-1.96-3.22-4.35-5.47-6.45c-2.24-1.96-5.05-3.65-8.27-3.65h-1.26v2.52H239.46z M239.46,233.85h1.26c1.54,0,3.08,0.56,4.49,1.4
		c2.1,1.26,4.07,3.5,5.61,5.61c0.84,0.98,1.54,2.1,2.24,2.94s1.26,1.68,1.82,2.24l0.84,0.84l0.84-0.84c0.7-0.7,1.54-1.82,2.52-3.22
		c1.4-1.96,3.08-4.21,5.05-6.03c1.96-1.82,4.21-2.94,6.59-2.94h1.26v-2.52h-1.26c-2.1,0-4.07,0.7-5.89,1.82
		c-2.52,1.54-4.63,3.93-6.31,6.17c-0.84,1.12-1.54,2.1-2.24,2.94c-0.7,0.84-1.12,1.54-1.54,1.96l0.84,0.84l0.84-0.84
		c-0.56-0.42-1.26-1.54-2.24-2.8c-1.4-1.96-3.22-4.35-5.47-6.45c-2.24-1.96-5.05-3.65-8.27-3.65h-1.26v2.52H239.46z M239.46,241.84
		h1.26c1.54,0,3.08,0.56,4.49,1.4c2.1,1.26,4.07,3.5,5.61,5.61c0.84,0.98,1.54,2.1,2.24,2.94c0.7,0.84,1.26,1.68,1.82,2.24
		l0.84,0.84l0.84-0.84c0.7-0.7,1.54-1.82,2.52-3.22c1.4-1.96,3.08-4.21,5.05-6.03c1.96-1.82,4.21-2.94,6.59-2.94h1.26v-2.52h-1.26
		c-2.1,0-4.07,0.7-5.89,1.82c-2.52,1.54-4.63,3.93-6.31,6.17c-0.84,1.12-1.54,2.1-2.24,2.94c-0.7,0.84-1.12,1.54-1.54,1.96
		l0.84,0.84l0.84-0.84c-0.56-0.42-1.26-1.54-2.24-2.8c-1.4-1.96-3.22-4.35-5.47-6.45c-2.24-1.96-5.05-3.65-8.27-3.65h-1.26v2.52
		H239.46z M239.46,249.83h1.26c1.54,0,3.08,0.56,4.49,1.4c2.1,1.26,4.07,3.5,5.61,5.61c0.84,0.98,1.54,2.1,2.24,2.94
		s1.26,1.68,1.82,2.24l0.84,0.84l0.84-0.84c0.7-0.7,1.54-1.82,2.52-3.22c1.4-1.96,3.08-4.21,5.05-6.03
		c1.96-1.82,4.21-2.94,6.59-2.94h1.26v-2.52h-1.26c-2.1,0-4.07,0.7-5.89,1.82c-2.52,1.54-4.63,3.93-6.31,6.17
		c-0.84,1.12-1.54,2.1-2.24,2.94c-0.7,0.84-1.12,1.54-1.54,1.96l0.84,0.84l0.84-0.84c-0.56-0.42-1.26-1.54-2.24-2.8
		c-1.4-1.96-3.22-4.35-5.47-6.45c-2.24-1.96-5.05-3.65-8.27-3.65h-1.26v2.52H239.46z M239.46,257.82h1.26c1.54,0,3.08,0.56,4.49,1.4
		c2.1,1.26,4.07,3.5,5.61,5.61c0.84,0.98,1.54,2.1,2.24,2.94s1.26,1.68,1.82,2.24l0.84,0.84l0.84-0.84c0.7-0.7,1.54-1.82,2.52-3.22
		c1.4-1.96,3.08-4.21,5.05-6.03c1.96-1.82,4.21-2.94,6.59-2.94h1.26v-2.52h-1.26c-2.1,0-4.07,0.7-5.89,1.82
		c-2.52,1.54-4.63,3.93-6.31,6.17c-0.84,1.12-1.54,2.1-2.24,2.94c-0.7,0.84-1.12,1.54-1.54,1.96l0.84,0.84l0.84-0.84
		c-0.56-0.42-1.26-1.54-2.24-2.8c-1.4-1.96-3.22-4.35-5.47-6.45c-2.24-1.96-5.05-3.65-8.27-3.65h-1.26v2.52H239.46z M239.46,265.95
		h1.26c1.54,0,3.08,0.56,4.49,1.4c2.1,1.26,4.07,3.5,5.61,5.61c0.84,0.98,1.54,2.1,2.24,2.94s1.26,1.68,1.82,2.24l0.84,0.84
		l0.84-0.84c0.7-0.7,1.54-1.82,2.52-3.22c1.4-1.96,3.08-4.21,5.05-6.03c1.96-1.82,4.21-2.94,6.59-2.94h1.26v-2.52h-1.26
		c-2.1,0-4.07,0.7-5.89,1.82c-2.52,1.54-4.63,3.93-6.31,6.17c-0.84,1.12-1.54,2.1-2.24,2.94c-0.7,0.84-1.12,1.54-1.54,1.96
		l0.84,0.84l0.84-0.84c-0.56-0.42-1.26-1.54-2.24-2.8c-1.4-1.96-3.22-4.35-5.47-6.45c-2.24-1.96-5.05-3.65-8.27-3.65h-1.26v2.52
		H239.46z M239.46,273.95h1.26c1.54,0,3.08,0.56,4.49,1.4c2.1,1.26,4.07,3.5,5.61,5.61c0.84,0.98,1.54,2.1,2.24,2.94
		s1.26,1.68,1.82,2.24l0.84,0.84l0.84-0.84c0.7-0.7,1.54-1.82,2.52-3.22c1.4-1.96,3.08-4.21,5.05-6.03
		c1.96-1.82,4.21-2.94,6.59-2.94h1.26v-2.52h-1.26c-2.1,0-4.07,0.7-5.89,1.82c-2.52,1.54-4.63,3.93-6.31,6.17
		c-0.84,1.12-1.54,2.1-2.24,2.94c-0.7,0.84-1.12,1.54-1.54,1.96l0.84,0.84l0.84-0.84c-0.56-0.42-1.26-1.54-2.24-2.8
		c-1.4-1.96-3.22-4.35-5.47-6.45c-2.24-1.96-5.05-3.65-8.27-3.65h-1.26v2.52H239.46z M239.46,281.94h1.26c1.54,0,3.08,0.56,4.49,1.4
		c2.1,1.26,4.07,3.5,5.61,5.61c0.84,0.98,1.54,2.1,2.24,2.94c0.7,0.84,1.26,1.68,1.82,2.24l0.84,0.84l0.84-0.84
		c0.7-0.7,1.54-1.82,2.52-3.22c1.4-1.96,3.08-4.21,5.05-6.03c1.96-1.82,4.21-2.94,6.59-2.94h1.26v-2.52h-1.26
		c-2.1,0-4.07,0.7-5.89,1.82c-2.52,1.54-4.63,3.93-6.31,6.17c-0.84,1.12-1.54,2.1-2.24,2.94c-0.7,0.84-1.12,1.54-1.54,1.96
		l0.84,0.84l0.84-0.84c-0.56-0.42-1.26-1.54-2.24-2.8c-1.4-1.96-3.22-4.35-5.47-6.45c-2.24-1.96-5.05-3.65-8.27-3.65h-1.26v2.52
		H239.46z M239.46,289.93h1.26c1.54,0,3.08,0.56,4.49,1.4c2.1,1.26,4.07,3.5,5.61,5.61c0.84,0.98,1.54,2.1,2.24,2.94
		s1.26,1.68,1.82,2.24l0.84,0.84l0.84-0.84c0.7-0.7,1.54-1.82,2.52-3.22c1.4-1.96,3.08-4.21,5.05-6.03
		c1.96-1.82,4.21-2.94,6.59-2.94h1.26v-2.52h-1.26c-2.1,0-4.07,0.7-5.89,1.82c-2.52,1.54-4.63,3.93-6.31,6.17
		c-0.84,1.12-1.54,2.1-2.24,2.94c-0.7,0.84-1.12,1.54-1.54,1.96l0.84,0.84l0.84-0.84c-0.56-0.42-1.26-1.54-2.24-2.8
		c-1.4-1.96-3.22-4.35-5.47-6.45c-2.24-1.96-5.05-3.65-8.27-3.65h-1.26v2.52H239.46z M239.46,297.92h1.26c1.54,0,3.08,0.56,4.49,1.4
		c2.1,1.26,4.07,3.5,5.61,5.61c0.84,0.98,1.54,2.1,2.24,2.94s1.26,1.68,1.82,2.24l0.84,0.84l0.84-0.84c0.7-0.7,1.54-1.82,2.52-3.22
		c1.4-1.96,3.08-4.21,5.05-6.03c1.96-1.82,4.21-2.94,6.59-2.94h1.26v-2.52h-1.26c-2.1,0-4.07,0.7-5.89,1.82
		c-2.52,1.54-4.63,3.93-6.31,6.17c-0.84,1.12-1.54,2.1-2.24,2.94c-0.7,0.84-1.12,1.54-1.54,1.96l0.84,0.84l0.84-0.84
		c-0.56-0.42-1.26-1.54-2.24-2.8c-1.4-1.96-3.22-4.35-5.47-6.45c-2.24-1.96-5.05-3.65-8.27-3.65h-1.26v2.52H239.46z M239.46,306.05
		h1.26c1.54,0,3.08,0.56,4.49,1.4c2.1,1.26,4.07,3.5,5.61,5.61c0.84,0.98,1.54,2.1,2.24,2.94s1.26,1.68,1.82,2.24l0.84,0.84
		l0.84-0.84c0.7-0.7,1.54-1.82,2.52-3.22c1.4-1.96,3.08-4.21,5.05-6.03c1.96-1.82,4.21-2.94,6.59-2.94h1.26v-2.52h-1.26
		c-2.1,0-4.07,0.7-5.89,1.82c-2.52,1.54-4.63,3.93-6.31,6.17c-0.84,1.12-1.54,2.1-2.24,2.94c-0.7,0.84-1.12,1.54-1.54,1.96
		l0.84,0.84l0.84-0.84c-0.56-0.42-1.26-1.54-2.24-2.8c-1.4-1.96-3.22-4.35-5.47-6.45c-2.24-1.96-5.05-3.65-8.27-3.65h-1.26v2.52
		H239.46z M239.46,314.04h1.26c1.54,0,3.08,0.56,4.49,1.4c2.1,1.26,4.07,3.5,5.61,5.61c0.84,0.98,1.54,2.1,2.24,2.94
		s1.26,1.68,1.82,2.24l0.84,0.84l0.84-0.84c0.7-0.7,1.54-1.82,2.52-3.22c1.4-1.96,3.08-4.21,5.05-6.03
		c1.96-1.82,4.21-2.94,6.59-2.94h1.26v-2.52h-1.26c-2.1,0-4.07,0.7-5.89,1.82c-2.52,1.54-4.63,3.93-6.31,6.17
		c-0.84,1.12-1.54,2.1-2.24,2.94c-0.7,0.84-1.12,1.54-1.54,1.96l0.84,0.84l0.84-0.84c-0.56-0.42-1.26-1.54-2.24-2.8
		c-1.4-1.96-3.22-4.35-5.47-6.45c-2.24-1.96-5.05-3.65-8.27-3.65h-1.26v2.52H239.46z M239.46,322.03h1.26c1.54,0,3.08,0.56,4.49,1.4
		c2.1,1.26,4.07,3.5,5.61,5.61c0.84,0.98,1.54,2.1,2.24,2.94s1.26,1.68,1.82,2.24l0.84,0.84l0.84-0.84c0.7-0.7,1.54-1.82,2.52-3.22
		c1.4-1.96,3.08-4.21,5.05-6.03c1.96-1.82,4.21-2.94,6.59-2.94h1.26v-2.52h-1.26c-2.1,0-4.07,0.7-5.89,1.82
		c-2.52,1.54-4.63,3.93-6.31,6.17c-0.84,1.12-1.54,2.1-2.24,2.94c-0.7,0.84-1.12,1.54-1.54,1.96l0.84,0.84l0.84-0.84
		c-0.56-0.42-1.26-1.54-2.24-2.8c-1.4-1.96-3.22-4.35-5.47-6.45c-2.24-1.96-5.05-3.65-8.27-3.65h-1.26v2.52H239.46z M239.46,330.02
		h1.26c1.54,0,3.08,0.56,4.49,1.4c2.1,1.26,4.07,3.5,5.61,5.61c0.84,0.98,1.54,2.1,2.24,2.94s1.26,1.68,1.82,2.24l0.84,0.84
		l0.84-0.84c0.7-0.7,1.54-1.82,2.52-3.22c1.4-1.96,3.08-4.21,5.05-6.03c1.96-1.82,4.21-2.94,6.59-2.94h1.26v-2.52h-1.26
		c-2.1,0-4.07,0.7-5.89,1.82c-2.52,1.54-4.63,3.93-6.31,6.17c-0.84,1.12-1.54,2.1-2.24,2.94c-0.7,0.84-1.12,1.54-1.54,1.96
		l0.84,0.84l0.84-0.84c-0.56-0.42-1.26-1.54-2.24-2.8c-1.4-1.96-3.22-4.35-5.47-6.45c-2.24-1.96-5.05-3.65-8.27-3.65h-1.26v2.52
		H239.46z M239.46,338.16h1.26c1.54,0,3.08,0.56,4.49,1.4c2.1,1.26,4.07,3.5,5.61,5.61c0.84,0.98,1.54,2.1,2.24,2.94
		s1.26,1.68,1.82,2.24l0.84,0.84l0.84-0.84c0.7-0.7,1.54-1.82,2.52-3.22c1.4-1.96,3.08-4.21,5.05-6.03
		c1.96-1.82,4.21-2.94,6.59-2.94h1.26v-2.52h-1.26c-2.1,0-4.07,0.7-5.89,1.82c-2.52,1.54-4.63,3.93-6.31,6.17
		c-0.84,1.12-1.54,2.1-2.24,2.94c-0.7,0.84-1.12,1.54-1.54,1.96l0.84,0.84l0.84-0.84c-0.56-0.42-1.26-1.54-2.24-2.8
		c-1.4-1.96-3.22-4.35-5.47-6.45c-2.24-1.96-5.05-3.65-8.27-3.65h-1.26v2.52H239.46z"/>
	<rect id="XMLID_368_" x="174.55" y="160.39" class="st0" width="24.11" height="24.11"/>
	<polygon id="XMLID_369_" class="st0" points="174.55,160.39 169.5,160.39 169.5,189.41 203.57,189.41 203.57,155.34 169.5,155.34 
		169.5,160.39 174.55,160.39 174.55,165.43 193.61,165.43 193.61,179.45 179.59,179.45 179.59,160.39 174.55,160.39 174.55,165.43 	
		"/>
	<path id="XMLID_373_" class="st1" d="M174.55,160.39h-1.26v25.38h26.64v-26.64h-26.64v1.26H174.55v1.26h22.85v21.59h-21.59v-22.85
		L174.55,160.39v1.26V160.39z M179.45,182.26l7.15-14.3l7.15,14.3l2.24-1.12l-9.39-18.79l-9.39,18.79L179.45,182.26L179.45,182.26z
		 M182.4,174.69h8.27v-2.52h-8.27V174.69z"/>
	<path id="XMLID_374_" class="st0" d="M308.57,368.86c-17.52-12.48-15-30.14,2.52-32.53l-17.52-5.05
		c-37.57,15-22.57,36.31,10.09,37.57L308.57,368.86L308.57,368.86z"/>
	<path id="XMLID_375_" class="st1" d="M308.57,368.86l0.7-0.98c-7.99-5.61-11.5-12.2-11.5-17.66c0-3.08,1.12-5.89,3.36-8.13
		c2.24-2.24,5.61-3.93,10.09-4.49l0.14-2.38l-17.95-5.19l-0.42,0.14c-7.85,3.22-13.6,6.59-17.24,10.23
		c-3.79,3.5-5.61,7.29-5.61,11.08c0,2.66,0.98,5.05,2.52,7.29c2.52,3.22,6.59,6.03,11.78,7.99c5.19,1.96,11.64,3.22,18.93,3.5l0,0
		h8.97l-3.22-2.24L308.57,368.86v-1.26h-4.91v1.26v-1.26c-9.39-0.42-17.24-2.38-22.71-5.47c-2.66-1.54-4.77-3.22-6.17-5.05
		c-1.4-1.82-2.1-3.79-2.1-5.75c0-2.8,1.4-5.89,4.77-9.25c3.36-3.22,8.83-6.59,16.54-9.67l-0.42-1.12l-0.28,1.26l17.52,5.05
		l0.28-1.26l-0.14-1.26c-4.91,0.7-8.83,2.52-11.5,5.19c-2.66,2.66-4.07,6.17-4.07,9.95c0,6.59,4.07,13.74,12.48,19.77L308.57,368.86
		v-1.26V368.86z"/>
	<path id="XMLID_376_" class="st0" d="M163.19,303.67c12.48,0,17.52,7.57,25.1,15c7.57,7.57,8.83,6.31,17.52,12.48
		c8.83,6.31,11.22,15,22.57,30.14c11.22,15,32.53,17.52,37.57,17.52c5.05,0,20.05,1.26,25.1-2.52c5.05-3.79,5.05-11.22,13.74-11.22
		c8.83,0,11.22,12.48,11.22,17.52c0,5.05-5.05,35.05-55.1,33.79c-50.19-1.26-62.67-32.53-71.5-45.14
		c-8.83-12.48-5.05-40.1-67.72-40.1c0-5.05,1.26-7.57,1.26-12.48c0-5.05,0-10.09,17.52-12.48
		C158.28,303.67,150.71,303.67,163.19,303.67z"/>
	<path id="XMLID_377_" class="st1" d="M163.19,303.67v1.26c6.03,0,10.09,1.82,13.6,4.49c3.65,2.66,6.73,6.45,10.51,10.23
		c3.79,3.79,6.17,5.47,8.55,6.87c2.38,1.4,4.77,2.66,9.11,5.75c4.21,2.94,6.87,6.59,9.95,11.36c3.08,4.77,6.59,10.8,12.34,18.37
		c5.89,7.85,14.3,12.34,21.73,14.86c7.57,2.52,14.16,3.22,16.82,3.22c1.96,0,5.61,0.14,9.53,0.14c2.94,0,6.17-0.14,8.97-0.56
		c2.8-0.42,5.47-1.12,7.29-2.38c2.8-2.1,4.07-5.19,5.75-7.29c0.84-1.12,1.68-1.96,2.8-2.66c1.12-0.7,2.52-1.12,4.49-1.12
		c1.82,0,3.36,0.7,4.63,1.68c1.96,1.68,3.36,4.35,4.21,7.15c0.84,2.8,1.26,5.61,1.26,7.43c0,0.98-0.28,3.65-1.4,7.01
		c-1.68,4.91-5.33,11.36-12.9,16.4c-7.57,5.19-19.07,9.25-36.59,9.25c-0.98,0-1.96,0-2.94,0c-24.81-0.7-40.1-8.69-50.47-17.95
		c-10.37-9.39-15.56-20.19-20.05-26.64c-2.1-2.94-3.5-6.87-5.33-11.36c-2.8-6.59-6.73-14.02-16.12-19.77
		c-9.25-5.75-23.69-9.53-47.25-9.53v1.26h1.26c0-2.38,0.28-4.21,0.56-6.03c0.28-1.82,0.7-3.93,0.7-6.45c0-1.26,0-2.38,0.28-3.5
		c0.42-1.54,1.12-2.8,3.36-4.21c2.38-1.4,6.31-2.66,12.76-3.65c8.83-1.26,11.36-1.96,13.18-2.24c0.84-0.14,1.54-0.28,2.94-0.28
		c1.26,0,3.22,0,6.31,0v-1.12v-1.26c-3.08,0-5.05,0-6.45,0c-2.1,0-2.94,0.28-4.91,0.56c-1.96,0.42-4.91,0.98-11.5,1.82
		c-8.83,1.26-13.46,3.08-16.12,5.75c-1.26,1.26-1.96,2.66-2.24,4.07c-0.28,1.4-0.28,2.8-0.28,4.07c0,2.38-0.28,4.21-0.56,6.03
		s-0.7,3.93-0.7,6.45v1.26h1.26c15.56,0,26.92,1.68,35.33,4.49c12.62,4.07,18.65,10.37,22.43,16.82c3.79,6.45,5.33,13.32,8.83,18.23
		c4.35,6.17,9.67,17.24,20.33,27.06c10.65,9.81,26.78,18.09,52.01,18.65c0.98,0,2.1,0,3.08,0c23.97,0,37.43-7.29,44.72-15.56
		c3.65-4.07,5.89-8.27,7.15-11.78c1.26-3.5,1.54-6.31,1.54-7.71c0-2.66-0.7-7.15-2.52-11.22c-0.98-1.96-2.1-3.93-3.79-5.33
		c-1.68-1.4-3.79-2.38-6.31-2.38c-2.38,0-4.21,0.56-5.75,1.4c-2.24,1.4-3.65,3.36-4.77,5.19c-1.26,1.96-2.24,3.65-3.93,4.91
		c-1.12,0.84-3.36,1.54-6.17,1.96c-2.66,0.42-5.75,0.56-8.69,0.56c-3.93,0-7.43-0.14-9.53-0.14c-2.38,0-8.83-0.56-15.98-3.08
		c-7.15-2.52-15.14-6.73-20.61-14.02c-5.61-7.43-8.97-13.32-12.2-18.23c-3.08-4.91-6.03-8.83-10.65-12.06
		c-4.49-3.22-7.01-4.49-9.39-5.89c-2.24-1.4-4.35-2.8-8.13-6.59c-3.65-3.65-6.87-7.57-10.8-10.51c-3.93-2.94-8.69-4.91-15.14-4.91
		v1.4H163.19z"/>
	<path id="XMLID_378_" class="st0" d="M279.83,326.24c0,5.05,2.52,7.57,2.52,10.09c0,2.52,7.57,1.26,10.09,3.79
		c2.52,2.52,50.19,15,75.15,15c25.1,0,32.53-10.09,43.88-35.05c2.8-6.31,0-13.74-7.57-22.57c-7.57-8.83-13.74-13.74-20.05-13.74
		s-22.57,5.05-25.1,6.31c-2.52,1.26-25.1,7.57-27.62-8.83c-2.52-16.26,18.79-17.52,25.1-12.48c6.31,5.05,13.74,7.57,21.31,7.57
		c7.57,0,15-6.31,20.05-11.22c5.05-5.05,16.26-7.57,16.26-16.26c0-8.83-5.05-10.09-5.05-17.52c-2.52-5.05,2.52,13.74-7.57,16.26
		c-10.09,2.52-8.83,5.05-8.83,5.05c-1.26-7.57,5.05-18.79-11.22-23.83c10.09-12.48-12.48-12.48-7.57,0l6.31,7.57
		c1.26,2.52,2.52,2.52,3.79,11.22c-3.79,2.52-3.79,3.79-6.31,8.83c-2.52,5.05-17.52-1.26-25.1,2.52c-7.57,3.79-7.57-7.57,1.26-8.83
		c8.83-1.26,6.31,0,8.83-3.79c2.52-3.79-7.57,0-10.09-2.52c-2.52-2.52-7.57,1.26-10.09,2.52c-2.52,1.26-18.79,12.48-17.52,30.14
		c1.26,17.52,3.79,33.79,25.1,32.53c21.31-1.26,28.88-22.57,41.36-10.09c3.79,3.79,0,23.83-10.09,23.83
		c-62.67,0-50.19-12.48-87.76-12.48c-15,0-13.74,7.57-13.74,12.48v3.5H279.83z"/>
	<path id="XMLID_379_" class="st1" d="M279.83,326.24h-1.26c0,2.66,0.7,4.77,1.4,6.45s1.12,2.8,1.12,3.65c0,0.7,0.28,1.26,0.7,1.68
		c0.7,0.7,1.54,0.84,2.38,1.12c1.4,0.28,2.94,0.42,4.21,0.7c1.4,0.28,2.52,0.7,2.94,1.12c0.42,0.42,0.84,0.56,1.4,0.84
		c1.96,0.98,6.03,2.24,11.64,3.79c16.54,4.63,45.28,10.8,63.09,10.8c12.62,0,21.17-2.52,27.9-8.41c6.73-5.89,11.36-14.86,17.1-27.34
		l0,0l0,0c0.84-1.68,1.12-3.65,1.12-5.47c0-5.61-3.22-11.64-8.83-18.37c-3.79-4.49-7.29-7.99-10.65-10.37
		c-3.36-2.38-6.87-3.79-10.23-3.79s-8.97,1.26-14.3,2.66c-2.66,0.7-5.05,1.4-7.15,2.1c-1.96,0.7-3.5,1.26-4.21,1.54
		c-0.14,0.14-0.7,0.28-1.4,0.56c-2.24,0.7-6.17,1.54-10.37,1.54c-3.22,0-6.45-0.56-8.97-2.1s-4.35-3.79-5.05-7.85
		c-0.14-0.84-0.14-1.68-0.14-2.38c0-4.21,1.82-6.87,4.49-8.69c2.66-1.82,6.45-2.66,9.95-2.66c3.65,0,7.15,0.98,8.83,2.38
		c6.45,5.19,14.3,7.85,22.15,7.85c4.07,0,8.13-1.68,11.64-3.93c3.5-2.24,6.73-5.19,9.25-7.71c2.24-2.24,6.31-4.21,9.81-6.59
		c1.82-1.26,3.5-2.52,4.77-4.35c1.26-1.68,2.1-3.79,2.1-6.31c0-4.63-1.4-7.43-2.66-9.81c-1.26-2.38-2.38-4.21-2.38-7.71v-0.28
		l-0.14-0.28c-0.14-0.28-0.28-0.56-0.42-0.84l-0.28-0.42c-0.14-0.14-0.42-0.28-0.98-0.28c-0.42,0-0.84,0.28-1.12,0.56
		c-0.28,0.42-0.28,0.56-0.28,0.84c-0.14,0.56-0.14,1.26-0.14,2.24c0,2.1,0,5.33-0.84,8.13c-0.42,1.4-0.98,2.66-1.68,3.5
		c-0.84,0.98-1.82,1.68-3.22,1.96c-4.07,0.98-6.45,2.1-7.85,3.08c-1.4,0.98-1.96,2.1-1.96,2.94c0,0.42,0.14,0.7,0.14,0.84l2.38-0.7
		c-0.14-0.7-0.14-1.4-0.14-2.24c0-2.24,0.42-4.91,0.42-7.57c0-2.8-0.42-5.75-2.24-8.55c-1.82-2.66-5.05-4.91-10.09-6.45l-0.42,1.26
		l0.98,0.84c1.96-2.52,2.8-4.63,2.94-6.45c0-1.54-0.7-2.94-1.82-3.79c-1.12-0.84-2.52-1.12-3.93-1.12c-1.82,0-3.65,0.56-5.05,1.82
		c-1.54,1.12-2.52,3.08-2.52,5.47c0,1.26,0.28,2.52,0.84,3.93l0.14,0.14l6.45,7.71l0.98-0.84l-1.12,0.56
		c0.42,0.7,0.7,1.26,0.98,1.68c0.42,0.7,0.84,1.4,1.26,2.66c0.42,1.26,0.84,3.36,1.4,6.59l1.26-0.14l-0.7-0.98
		c-1.96,1.26-3.08,2.38-3.93,3.79c-0.84,1.4-1.54,2.94-2.66,5.47c-0.28,0.42-0.56,0.7-1.26,0.98s-1.82,0.42-3.08,0.42
		c-3.36,0-8.13-0.84-12.48-0.84c-2.66,0-5.33,0.28-7.57,1.4c-0.98,0.42-1.68,0.7-2.24,0.7s-0.84-0.14-1.12-0.42
		c-0.28-0.28-0.42-0.7-0.42-1.26c0-0.98,0.42-2.1,1.4-3.08c0.98-0.98,2.38-1.82,4.35-2.1c2.24-0.28,3.65-0.42,4.63-0.56
		c0.84-0.14,1.4-0.14,1.82-0.28c0.42-0.14,0.7-0.28,1.12-0.42c0.56-0.42,0.7-0.84,0.98-1.26c0.28-0.42,0.56-0.98,0.98-1.68
		c0.28-0.56,0.56-0.98,0.56-1.68c0-0.42-0.14-0.84-0.42-1.26c-0.42-0.42-0.98-0.56-1.4-0.7c-0.42-0.14-0.84-0.14-1.4-0.14
		c-1.4,0-3.22,0.28-4.77,0.28c-0.7,0-1.4,0-1.82-0.14c-0.56-0.14-0.84-0.28-0.98-0.42c-0.84-0.84-1.96-1.26-3.08-1.26
		c-1.68,0-3.22,0.7-4.77,1.4c-1.4,0.7-2.8,1.54-3.65,1.96c-0.7,0.42-2.1,1.26-3.93,2.8c-2.66,2.24-6.31,5.61-9.11,10.09
		c-2.94,4.49-5.19,10.09-5.19,16.54c0,0.7,0,1.26,0.14,1.96c0.56,8.55,1.54,16.82,4.77,23.13c1.68,3.22,3.93,5.89,7.15,7.71
		c3.22,1.82,7.15,2.94,12.2,2.94c0.7,0,1.54,0,2.38,0c8.55-0.56,15-4.21,20.19-7.57c2.66-1.68,4.91-3.36,7.15-4.49
		c2.1-1.12,4.07-1.96,6.03-1.82c2.1,0,4.35,0.84,7.01,3.5c0.28,0.28,0.56,0.84,0.7,1.54c0.14,0.84,0.28,1.82,0.28,2.94
		c0,3.36-0.98,7.85-2.8,11.36c-0.84,1.68-1.96,3.22-3.22,4.21c-1.26,0.98-2.66,1.54-4.21,1.54c-31.26,0-43.6-3.08-52.85-6.17
		c-9.25-3.08-15.98-6.31-34.91-6.31c-3.36,0-5.89,0.42-7.99,0.98c-3.08,0.98-5.05,2.66-6.03,4.63c-0.98,1.96-1.12,4.07-1.12,5.89
		c0,0.84,0,1.54,0,2.24v3.79h0.98h1.26v-3.79c0-0.7,0-1.54,0-2.24c0-1.12,0-2.24,0.28-3.36c0.42-1.54,1.12-2.8,2.8-3.93
		c1.82-1.12,4.63-1.82,9.39-1.82c18.65,0,24.53,3.08,34.07,6.17c9.53,3.22,22.29,6.31,53.7,6.31c2.24,0,4.21-0.84,5.75-2.1
		c2.38-1.96,4.07-4.91,5.19-7.99c1.12-3.22,1.68-6.59,1.68-9.39c0-1.26-0.14-2.52-0.42-3.65c-0.28-1.12-0.7-1.96-1.4-2.8
		c-2.94-2.94-5.89-4.35-8.83-4.35c-2.52,0-4.77,0.98-7.15,2.24c-7.01,3.93-14.44,11.08-26.36,11.78c-0.7,0-1.54,0-2.24,0
		c-4.63,0-8.13-0.98-10.94-2.52c-4.07-2.38-6.45-6.31-8.13-11.5c-1.54-5.05-2.24-11.22-2.66-17.52c0-0.56,0-1.26,0-1.82
		c0-7.85,3.65-14.3,7.57-18.93c1.96-2.38,4.07-4.21,5.75-5.61c1.68-1.4,3.08-2.24,3.5-2.52c1.12-0.56,2.38-1.4,3.65-2.1
		c1.26-0.7,2.66-1.26,3.65-1.12c0.56,0,0.98,0.14,1.26,0.42c0.56,0.56,1.4,0.98,2.1,1.12c0.84,0.14,1.54,0.28,2.38,0.28
		c1.68,0,3.5-0.28,4.77-0.28c0.56,0,0.98,0,0.98,0.14l0,0l0,0l0,0l0,0l0,0l0.28-0.56l-0.42,0.28l0.14,0.14l0.28-0.56l-0.42,0.28
		l0.56-0.28h-0.7l0.14,0.28l0.56-0.28h-0.7h0.28l-0.28-0.14v0.14h0.28l-0.28-0.14v0.14l-0.14,0.28c-0.7,0.98-0.98,1.68-1.26,2.1
		l-0.14,0.28l0,0l-0.28,0.14c-0.28,0.14-0.98,0.14-1.96,0.28c-0.98,0.14-2.38,0.28-4.35,0.56c-2.52,0.42-4.49,1.54-5.89,2.94
		c-1.26,1.4-1.96,3.22-1.96,4.77c0,1.12,0.28,2.1,0.98,2.94s1.82,1.26,2.94,1.26c0.98,0,2.1-0.28,3.36-0.84
		c1.68-0.84,3.93-1.12,6.45-1.12c4.07,0,8.83,0.84,12.48,0.84c1.4,0,2.66-0.14,3.93-0.42c1.12-0.42,2.24-1.12,2.8-2.24
		c1.26-2.52,1.96-4.07,2.66-5.19s1.4-1.82,3.22-3.08l0.7-0.42l-0.14-0.84c-0.7-4.49-1.26-6.73-1.96-8.27
		c-0.28-0.84-0.7-1.4-0.98-1.82c-0.28-0.56-0.56-0.98-0.84-1.4v-0.14l-6.31-7.57l-0.98,0.84l1.12-0.42c-0.42-1.12-0.7-2.1-0.7-2.94
		c0-1.68,0.7-2.66,1.54-3.5c0.98-0.84,2.24-1.26,3.5-1.26c0.98,0,1.82,0.28,2.38,0.7c0.56,0.42,0.84,0.84,0.84,1.82
		c0,0.98-0.56,2.66-2.38,4.91l-1.12,1.4l1.82,0.56c4.77,1.4,7.29,3.36,8.83,5.47c1.4,2.1,1.82,4.49,1.82,7.01
		c0,2.52-0.42,5.05-0.42,7.57c0,0.98,0,1.82,0.14,2.66l1.26-0.14l1.12-0.56l-0.56,0.28h0.7l-0.14-0.28l-0.56,0.28h0.7h-0.14h0.14
		l0,0h-0.14h0.14c0,0,0.14-0.42,1.26-1.12c1.12-0.7,3.08-1.54,6.59-2.38c1.96-0.42,3.5-1.54,4.49-2.8c1.68-1.96,2.38-4.49,2.8-6.87
		c0.42-2.38,0.42-4.77,0.42-6.31c0-0.7,0-1.26,0-1.54v-0.14l0,0l-0.84-0.14l0.7,0.42l0.14-0.28l-0.84-0.14l0.7,0.42l-0.98-0.7
		l0.56,0.98l0.28-0.28l-0.98-0.7l0.56,0.98l-0.56-0.98v1.12l0.56-0.14l-0.56-0.98v1.12v-1.12l-0.7,0.84c0.14,0,0.28,0.28,0.7,0.28
		v-1.12l-0.7,0.84l0.42-0.42l-0.42,0.28l0.14,0.14l0.42-0.42l-0.42,0.28c0,0,0.14,0.14,0.28,0.42l1.12-0.56h-1.26
		c0,4.07,1.4,6.59,2.66,8.83c1.26,2.38,2.38,4.49,2.38,8.69c0,1.96-0.56,3.36-1.54,4.77c-1.54,2.1-4.07,3.79-6.73,5.33
		c-2.66,1.68-5.47,3.22-7.57,5.19c-2.52,2.52-5.61,5.19-8.83,7.29c-3.36,2.1-6.87,3.5-10.23,3.5c-7.29,0-14.44-2.38-20.47-7.29
		c-2.38-1.96-6.31-2.8-10.37-2.94c-3.93,0-7.99,0.84-11.36,3.08c-3.22,2.1-5.61,5.75-5.61,10.8c0,0.84,0.14,1.82,0.28,2.8
		c0.7,4.77,3.08,7.85,6.17,9.67c3.08,1.82,6.73,2.38,10.23,2.38c2.94,0,5.89-0.42,8.13-0.98c1.12-0.28,2.1-0.56,2.94-0.7
		c0.84-0.28,1.4-0.42,1.82-0.7c0.42-0.28,1.96-0.84,3.93-1.4c2.94-0.98,7.01-2.1,10.8-3.08c3.93-0.98,7.57-1.68,9.67-1.68
		c2.8,0,5.61,1.12,8.83,3.36s6.59,5.61,10.23,9.95c5.47,6.45,8.27,12.06,8.27,16.68c0,1.54-0.28,3.08-0.98,4.49l0,0
		c-5.61,12.48-10.23,21.17-16.4,26.5c-6.17,5.33-13.88,7.85-26.22,7.85c-12.34,0-30.42-3.08-45.84-6.59
		c-7.71-1.68-14.58-3.5-19.77-5.05c-2.52-0.7-4.77-1.4-6.31-1.96c-0.84-0.28-1.4-0.56-1.82-0.7l-0.56-0.28l-0.14-0.14l0,0
		l-0.14,0.28l0.14-0.14l0,0l-0.14,0.28l0.14-0.14c-0.84-0.84-2.1-1.26-3.22-1.68c-1.68-0.42-3.65-0.56-4.91-0.84
		c-0.7-0.14-1.26-0.28-1.4-0.42l-0.14-0.14l0,0l-0.14,0.14h0.14v-0.14l-0.14,0.14h0.14c0-1.68-0.7-3.08-1.4-4.49
		c-0.56-1.54-1.12-3.22-1.12-5.47h-0.84V326.24z"/>
	<line id="XMLID_380_" class="st2" x1="403.91" y1="297.36" x2="391.43" y2="298.62"/>
	<polyline id="XMLID_381_" class="st1" points="403.77,296.1 391.29,297.36 391.43,299.88 404.05,298.62 	"/>
	<path id="XMLID_382_" class="st0" d="M167.96,427.6c10.8-33.09,12.2-28.32,19.63-19.21c3.79,4.77,11.36-0.98,11.08,4.21
		c-0.42,7.99-7.15,11.64-9.11,33.93C177.35,452.98,169.36,447.93,167.96,427.6L167.96,427.6z"/>
	<path id="XMLID_383_" class="st1" d="M167.96,427.6l1.12,0.42c3.22-9.81,5.61-16.26,7.43-20.19c0.98-1.96,1.82-3.22,2.52-4.07
		c0.7-0.7,1.12-0.84,1.4-0.84c0.14,0,0.42,0.14,0.84,0.28c1.26,0.7,2.94,3.08,5.19,5.89c0.84,0.98,1.82,1.68,2.94,2.1
		c0.98,0.42,2.1,0.42,3.08,0.42c1.4,0,2.8-0.14,3.65-0.14c0.56,0,0.98,0.14,0.98,0.14l0.14,0.14c0,0.14,0.14,0.28,0.14,0.56v0.14
		c-0.14,1.82-0.56,3.36-1.26,5.19c-0.98,2.66-2.66,5.61-4.21,9.95c-1.54,4.49-2.94,10.23-3.79,18.79l1.26,0.14l-0.56-1.12
		c-3.08,1.68-5.89,2.52-8.27,2.52c-1.54,0-2.94-0.42-4.21-1.12c-1.82-1.12-3.5-3.08-4.77-6.31s-2.1-7.57-2.52-13.04L167.96,427.6
		v1.26l0,0h0.84l0.28-0.84L167.96,427.6v-1.26l0,0h-1.4l0.14,1.4c0.56,7.57,1.96,13.04,4.35,16.96c1.12,1.96,2.52,3.36,4.21,4.35
		c1.68,0.98,3.5,1.4,5.47,1.4c2.94,0,6.03-0.98,9.39-2.8l0.56-0.28v-0.7c0.98-11.08,3.08-17.38,5.05-22.01
		c0.98-2.24,1.96-4.21,2.66-6.03c0.7-1.82,1.26-3.79,1.4-5.89v-0.28c0-0.56-0.14-1.12-0.28-1.54c-0.28-0.7-0.84-1.26-1.54-1.54
		c-0.7-0.28-1.26-0.28-1.82-0.28c-1.26,0-2.52,0.14-3.65,0.14c-0.84,0-1.54-0.14-2.24-0.28c-0.7-0.28-1.26-0.56-1.82-1.26
		c-1.54-1.82-2.8-3.5-3.93-4.77c-0.56-0.7-1.26-1.26-1.82-1.68c-0.7-0.42-1.4-0.7-2.24-0.7c-1.26,0-2.38,0.7-3.22,1.68
		c-1.4,1.54-2.8,4.07-4.49,8.13c-1.68,4.07-3.65,9.53-6.03,16.96L167.96,427.6v-1.26V427.6z"/>
	<path id="XMLID_384_" class="st0" d="M340.82,450.17c-56.22,13.18-25.66-0.56-27.34-10.94c-6.03-37.15-2.24-25.94,11.22-31.68
		c7.01-2.94,14.72-5.89,16.4-1.26C355.12,461.25,356.1,446.95,340.82,450.17L340.82,450.17z"/>
	<path id="XMLID_385_" class="st1" d="M340.82,450.17l-0.28-1.26c-16.4,3.93-25.52,5.47-29.72,5.47c-1.4,0-2.24-0.14-2.66-0.28
		l-0.14-0.14l0,0l0,0l0,0l0,0l0,0l0,0c0-0.14,0.28-0.98,0.84-1.96c0.84-1.4,2.38-3.22,3.65-5.19c1.26-1.96,2.38-4.21,2.38-6.45
		c0-0.42,0-0.7-0.14-1.12c-1.82-11.36-2.8-18.23-2.8-22.29c0-2.24,0.28-3.5,0.7-4.21c0.28-0.56,0.56-0.7,1.26-0.98
		c0.84-0.42,2.38-0.56,4.35-0.84c1.96-0.28,4.35-0.84,7.01-1.96c2.1-0.98,4.35-1.82,6.45-2.52c2.1-0.7,3.93-1.12,5.33-1.12
		c0.84,0,1.54,0.14,1.96,0.42c0.42,0.28,0.7,0.56,0.98,1.26l1.12-0.42l-1.26,0.28c3.5,13.88,6.31,23.27,7.99,29.72
		c0.84,3.22,1.54,5.61,2.1,7.57c0.42,1.82,0.7,3.08,0.7,3.79c0,0.28,0,0.56,0,0.56l0,0l0,0l0,0l0,0l0,0l0,0l-0.28,0.14
		c-0.14,0-0.56,0-0.84,0c-0.7,0-1.82,0-3.08,0c-1.68,0-3.65,0.14-6.03,0.56l0.28,2.52l0,0v-1.54l-0.28-1.26L340.82,450.17v-1.26l0,0
		V450.17l0.28,1.26c2.1-0.42,3.93-0.56,5.47-0.56c1.12,0,2.1,0,3.08,0c0.84,0,1.68,0,2.52-0.56c0.42-0.28,0.7-0.7,0.98-1.12
		c0.14-0.42,0.28-0.98,0.28-1.4c0-1.12-0.28-2.52-0.7-4.35c-1.4-5.75-4.77-16.54-10.09-37.29l0,0l0,0c-0.42-1.12-1.12-2.1-2.1-2.52
		c-0.98-0.56-2.1-0.7-3.22-0.7c-1.82,0-3.93,0.56-6.17,1.26s-4.49,1.68-6.59,2.52c-4.49,1.96-7.71,1.82-10.37,2.52
		c-0.7,0.14-1.26,0.42-1.96,0.84c-0.84,0.56-1.54,1.54-1.96,2.66c-0.42,1.12-0.56,2.52-0.56,4.49c0,4.35,0.98,11.22,2.8,22.71
		c0,0.28,0,0.42,0,0.7c0,1.96-1.54,4.63-3.22,7.01c-0.84,1.26-1.68,2.38-2.38,3.36c-0.7,1.12-1.26,2.1-1.26,3.22
		c0,0.42,0.14,0.98,0.42,1.4c0.42,0.7,1.12,1.12,1.96,1.26c0.84,0.28,1.68,0.28,2.94,0.28c4.77,0,13.88-1.54,30.42-5.47l-0.28-2.52
		v0.98H340.82z"/>
	<path id="XMLID_386_" class="st0" d="M170.2,459.01c-63.37-14.3,10.37-28.74,8.41-37.15c-6.45-27.62,3.36-22.57,8.97-16.12
		c3.93,4.63,11.36,1.68,11.08,6.87c-0.42,7.99-13.18,1.54-11.78,10.94C189.55,455.22,202.58,469.24,170.2,459.01z"/>
	<path id="XMLID_387_" class="st1" d="M170.2,459.01l0.28-1.26c-9.53-2.1-15.84-4.35-19.77-6.31c-1.96-0.98-3.22-1.96-4.07-2.94
		c-0.84-0.84-0.98-1.68-0.98-2.38c0-0.84,0.42-1.68,1.12-2.66c1.4-1.82,4.21-3.79,7.57-5.61c4.91-2.8,11.22-5.47,16.12-7.99
		c2.52-1.26,4.63-2.38,6.31-3.65c0.84-0.56,1.54-1.12,2.1-1.82c0.56-0.7,0.98-1.4,0.98-2.24l-0.14-0.56
		c-1.54-6.31-2.1-10.94-2.1-14.02c0-2.38,0.42-3.93,0.84-4.63c0.28-0.42,0.42-0.56,0.7-0.7c0.14-0.14,0.42-0.14,0.7-0.14
		c0.7,0,1.96,0.42,3.08,1.26c1.26,0.84,2.52,2.1,3.65,3.36c1.12,1.26,2.52,2.1,3.93,2.66c1.96,0.7,4.07,0.98,5.33,1.4
		c0.7,0.14,0.98,0.42,1.26,0.7c0.14,0.28,0.28,0.42,0.42,1.12v0.14c0,0.84-0.14,1.26-0.42,1.68c-0.42,0.7-1.12,1.12-2.1,1.4
		c-1.54,0.56-3.65,0.56-5.61,1.26c-0.98,0.28-1.96,0.84-2.66,1.68c-0.7,0.84-1.12,2.1-1.12,3.5c0,0.42,0,0.98,0.14,1.4l1.26-0.14
		l-1.26,0.14c0.7,7.57,1.82,14.16,2.94,19.49c1.12,5.47,1.96,9.81,1.96,12.76c0,1.96-0.42,3.22-0.98,3.93
		c-0.28,0.42-0.7,0.7-1.4,0.84c-0.7,0.28-1.54,0.28-2.52,0.28c-3.08,0-7.85-0.98-14.86-3.22l0,0l0,0L170.2,459.01l-0.42,1.26
		c7.01,2.24,12.06,3.36,15.56,3.36c1.26,0,2.38-0.14,3.36-0.42c1.54-0.42,2.66-1.4,3.22-2.66c0.7-1.26,0.84-2.8,0.84-4.49
		c0-3.36-0.98-7.85-1.96-13.18c-1.12-5.47-2.24-11.92-2.94-19.35l0,0l0,0c0-0.42-0.14-0.84-0.14-1.12c0-0.7,0.14-1.26,0.28-1.68
		c0.28-0.56,0.98-0.98,1.96-1.26c1.54-0.42,3.65-0.56,5.61-1.26c0.98-0.28,1.96-0.84,2.66-1.82c0.7-0.84,1.26-2.1,1.26-3.5v-0.28
		c0-0.7-0.14-1.4-0.42-2.1c-0.56-1.12-1.54-1.68-2.52-1.96c-1.4-0.56-3.08-0.7-4.49-1.12c-1.54-0.42-2.8-0.98-3.93-2.24
		c-1.26-1.4-2.66-2.8-4.07-3.79c-1.4-0.98-2.94-1.82-4.63-1.82c-0.7,0-1.4,0.14-1.96,0.56c-0.98,0.56-1.68,1.54-2.1,2.8
		c-0.42,1.26-0.7,2.8-0.7,4.77c0,3.5,0.7,8.13,2.24,14.72l0,0c0,0,0,0.14-0.14,0.42c-0.28,0.42-1.12,1.12-2.24,1.96
		c-1.96,1.26-4.91,2.8-8.27,4.35c-4.91,2.38-10.65,4.91-15.28,7.71c-2.24,1.4-4.35,2.8-5.75,4.35c-1.54,1.54-2.52,3.22-2.52,5.19
		c0,1.4,0.56,2.8,1.68,3.93c1.54,1.82,4.35,3.5,8.41,5.19c4.07,1.68,9.53,3.36,16.82,4.91L170.2,459.01l-0.42,1.26L170.2,459.01z"/>
	<path id="XMLID_388_" class="st0" d="M343.9,457.74c-56.22,13.18-11.22-24.25-25.38-35.05c-15.98-12.2-5.75-13.04,6.73-16.12
		c7.43-1.82,14.16-5.05,15.84-0.28c2.24,6.45-5.19,3.79-8.69,13.32C329.88,426.62,406.29,437.56,343.9,457.74L343.9,457.74z"/>
	<path id="XMLID_389_" class="st1" d="M343.9,457.74l-0.28-1.26c-8.27,1.96-14.16,2.8-18.51,2.8c-3.79,0-6.17-0.7-7.43-1.68
		c-0.7-0.42-0.98-0.98-1.26-1.68c-0.28-0.7-0.42-1.4-0.42-2.24c0-2.94,1.54-7.15,3.22-11.5c1.68-4.35,3.5-8.83,3.5-13.04
		c0-2.8-0.98-5.47-3.36-7.43c-2.8-2.24-4.91-4.07-6.03-5.47c-1.26-1.4-1.68-2.52-1.54-3.08c0-0.42,0.14-0.84,0.7-1.26
		c0.84-0.7,2.66-1.4,5.05-2.1c2.38-0.7,5.19-1.26,8.13-1.96c2.38-0.56,4.49-1.26,6.59-1.82c1.96-0.56,3.79-0.98,5.05-0.98
		c0.84,0,1.4,0.14,1.82,0.42c0.42,0.28,0.7,0.56,0.98,1.26c0.28,0.7,0.42,1.26,0.42,1.68c0,0.56-0.14,0.84-0.56,1.26
		c-0.7,0.7-2.24,1.4-3.79,2.8c-1.68,1.4-3.36,3.36-4.63,6.73c-0.14,0.28-0.14,0.56-0.14,0.84c0,0.7,0.28,1.26,0.7,1.68
		c0.7,0.84,1.68,1.54,3.08,2.24c4.49,2.38,12.76,5.05,19.91,8.27c3.5,1.54,6.73,3.22,9.11,5.05c1.12,0.84,1.96,1.82,2.66,2.66
		c0.56,0.84,0.84,1.68,0.84,2.38c0,0.84-0.28,1.68-0.98,2.66c-1.12,1.54-3.36,3.36-7.15,5.33c-3.65,1.96-8.83,4.07-15.56,6.17
		l0.42,2.38l0,0v-1.12l-0.28-1.26L343.9,457.74v-1.26l0,0V457.74l0.42,1.26c9.11-2.94,15.42-5.75,19.49-8.41
		c1.96-1.4,3.5-2.66,4.49-4.07c0.98-1.4,1.54-2.8,1.54-4.21c0-1.68-0.7-3.22-1.82-4.63c-1.96-2.38-5.05-4.35-8.69-6.17
		c-5.47-2.8-12.06-5.05-17.24-7.15c-2.66-0.98-4.91-1.96-6.31-2.8c-0.7-0.42-1.4-0.84-1.68-1.12l-0.28-0.28l0,0h-0.14h0.14l0,0
		h-0.14h0.14h-0.28l0.28,0.14v-0.14h-0.28l0.28,0.14c1.54-3.93,3.5-5.47,5.33-6.73c0.84-0.56,1.82-1.12,2.52-1.82
		c0.84-0.7,1.4-1.82,1.4-3.08c0-0.7-0.14-1.54-0.56-2.52c-0.42-1.12-1.12-2.1-2.1-2.52c-0.98-0.56-1.96-0.7-3.08-0.7
		c-1.68,0-3.65,0.42-5.75,0.98c-2.1,0.56-4.21,1.26-6.45,1.82c-3.93,0.98-7.71,1.68-10.51,2.66c-1.4,0.56-2.66,1.12-3.65,1.82
		c-0.98,0.7-1.68,1.96-1.68,3.22c0,1.54,0.84,2.94,2.24,4.63c1.4,1.68,3.5,3.5,6.45,5.75c1.82,1.4,2.38,3.08,2.38,5.33
		c0,3.36-1.54,7.71-3.22,12.06c-1.68,4.35-3.36,8.69-3.5,12.48c0,1.12,0.14,2.24,0.56,3.22c0.7,1.54,1.96,2.8,3.79,3.65
		c1.82,0.84,4.21,1.26,7.29,1.26c4.63,0,10.65-0.84,19.07-2.8l-0.28-2.52v1.26H343.9z"/>
	<path id="XMLID_390_" class="st0" d="M172.86,461.11c0.14-8.27,14.16-24.67,13.04-26.92c-7.43-14.02,4.35-8.83,17.95-6.73
		c8.69,1.4,38.41,9.95,52.29,8.83c3.5-0.28,12.76,1.54,24.25-4.21c20.89-10.37,22.57-0.84,34.07-7.01
		c13.04-7.01,12.62,1.26,12.9,7.71c0.42,9.11-1.4,0.42,1.54,11.78c1.54,6.03,11.22,7.99,9.67,18.51
		c-1.54,10.94-10.37,12.76-37.29,18.23c-24.11,4.91-15.28,6.73-43.6,6.87c-22.15,0.14-15-6.31-58.6-6.87
		C181.56,481.3,172.86,474.43,172.86,461.11L172.86,461.11z"/>
	<path id="XMLID_391_" class="st1" d="M172.86,461.11h1.26c0-1.68,0.7-4.07,1.96-6.59c1.82-3.79,4.49-8.13,6.87-11.64
		c1.12-1.82,2.24-3.5,2.94-4.77c0.42-0.7,0.7-1.26,0.98-1.82c0.28-0.56,0.42-1.12,0.42-1.68c0-0.28,0-0.56-0.28-0.98l0,0
		c-1.54-2.94-2.1-4.91-2.1-6.03c0-0.42,0-0.7,0.14-0.84c0.14-0.28,0.28-0.42,0.7-0.56c0.42-0.14,0.98-0.28,1.82-0.28
		c1.68,0,4.07,0.42,6.87,0.98c2.8,0.56,5.89,1.26,9.25,1.82c3.93,0.7,12.76,2.94,22.29,4.91c9.53,2.1,20.05,4.07,27.48,4.07
		c0.98,0,1.82,0,2.66-0.14l0,0c0.28,0,0.56,0,0.84,0c1.12,0,2.8,0.14,4.77,0.14c4.77,0,11.5-0.56,19.21-4.49
		c8.41-4.21,13.6-5.05,17.38-5.05c2.8,0,5.19,0.42,7.71,0.42s5.33-0.56,8.97-2.38c3.36-1.82,5.89-2.52,7.29-2.52
		c0.98,0,1.54,0.28,1.96,0.7c0.7,0.56,1.12,1.68,1.4,3.36c0.28,1.54,0.28,3.5,0.42,5.19l0,0c0,0.98,0,1.82,0,2.38
		c0,1.12,0,1.54-0.14,1.82v0.28c0,0.14-0.14,0.28-0.14,0.56c0,0.56,0.14,0.84,0.42,1.82c0.28,0.98,0.7,2.52,1.4,5.19
		c0.42,1.68,1.4,3.08,2.38,4.21c1.54,1.82,3.5,3.36,4.91,5.05c1.4,1.82,2.38,3.79,2.52,6.73c0,0.56,0,1.26-0.14,1.96
		c-0.42,2.66-1.12,4.49-2.52,6.17c-1.96,2.38-5.33,4.21-10.8,5.89c-5.47,1.68-13.04,3.22-23.13,5.33
		c-12.06,2.52-16.12,4.21-20.33,5.33c-4.21,1.12-8.97,1.54-22.99,1.68h-0.56c-10.51,0-14.02-1.54-20.47-3.22
		c-6.59-1.68-15.84-3.36-37.43-3.65c-8.55-0.14-14.86-1.82-18.93-4.91c-4.07-3.08-6.03-7.57-6.03-13.74v-0.28v-0.56l-0.42-0.42
		L172.86,461.11h1.26H172.86l-0.84,0.84l0,0L172.86,461.11h-1.26v0.28c0,6.73,2.38,12.2,7.15,15.7c4.77,3.5,11.5,5.33,20.47,5.47
		c21.45,0.28,30.56,1.96,36.87,3.65c6.31,1.68,10.37,3.22,21.17,3.22h0.7c14.16-0.14,19.21-0.56,23.69-1.68
		c4.49-1.12,8.13-2.8,20.19-5.19c13.46-2.8,22.43-4.49,28.46-7.15c2.94-1.26,5.33-2.8,6.87-4.77c1.68-1.96,2.52-4.49,2.94-7.29
		c0.14-0.84,0.14-1.68,0.14-2.38c0-2.38-0.56-4.35-1.54-6.03c-1.4-2.52-3.36-4.21-5.05-5.89s-2.94-3.08-3.36-4.77
		c-0.7-2.66-1.12-4.21-1.4-5.19c-0.14-0.42-0.14-0.7-0.28-0.98v-0.14l0,0h-0.42h0.42l0,0h-0.42h0.42h-0.56l0.56,0.14v-0.14h-0.56
		l0.56,0.14l-0.42-0.14l0.42,0.14l0,0l-0.42-0.14l0.42,0.14c0,0,0.14-0.28,0.14-0.7s0.14-0.98,0.14-1.96c0-0.7,0-1.54,0-2.52l0,0
		c-0.14-2.38-0.14-5.05-0.84-7.29c-0.28-1.12-0.84-2.24-1.82-3.08c-0.98-0.84-2.24-1.26-3.65-1.26c-2.24,0-4.91,0.84-8.41,2.8
		c-3.22,1.68-5.47,2.1-7.71,2.1s-4.63-0.42-7.71-0.42c-4.35,0-9.95,0.98-18.51,5.33c-7.29,3.65-13.46,4.21-18.09,4.21
		c-1.96,0-3.5-0.14-4.77-0.14c-0.42,0-0.7,0-1.12,0l0,0c-0.7,0-1.54,0.14-2.52,0.14c-7.15,0-17.52-1.82-27.06-3.93
		c-9.53-2.1-18.23-4.35-22.43-5.05c-3.22-0.56-6.31-1.26-9.11-1.82c-2.8-0.56-5.33-0.98-7.43-0.98c-1.4,0-2.52,0.14-3.65,0.84
		c-0.56,0.28-0.98,0.84-1.26,1.4c-0.28,0.56-0.42,1.26-0.42,1.96c0,1.82,0.84,4.07,2.38,7.15l0,0l0.42-0.28h-0.56l0.14,0.28
		l0.42-0.28h-0.56l-0.14,0.28c-0.28,0.84-1.26,2.52-2.52,4.49c-1.96,3.08-4.49,6.87-6.59,10.8c-2.1,3.93-3.79,7.71-3.93,10.94v0.56
		l0.42,0.42L172.86,461.11z"/>
	<path id="XMLID_392_" class="st0" d="M432.51,117.91c3.93,10.65,11.5,12.48,17.95,21.59c6.59,9.11,14.16,30.42,17.1,40.1
		c6.45,20.61,15,32.11,15,51.73c0,23.13,1.12,51.31-1.68,59.58c-2.8,8.27-10.51,28.74-14.16,52.29
		c-3.36,21.87-22.43,39.96-25.1,43.04s-10.51,24.39-31.12,40.52c-9.11,7.15-22.01,15.84-33.23,23.97
		c-9.95,7.29-14.72,14.3-20.61,13.46s-9.81-7.99-11.08-16.96c-0.7-5.61-1.82-9.81-9.53-19.07c-6.73-7.99-8.55-10.37,6.03-12.06
		c10.37-1.26,24.81-21.87,33.23-24.53c8.41-2.66,25.66-28.6,41.5-62.95c11.64-24.96,18.23-60,11.64-105.71
		c-6.17-43.18-14.58-46.55-28.32-67.29c-11.08-16.68-18.79-29.16-33.79-37.15c-2.38-1.26-9.11-2.8-17.52-10.65
		c-4.91-4.49-12.06-7.43-18.37-11.08c-6.31-3.65-49.77-19.63-73.46-20.33c-19.63-0.56-48.09,3.65-93.09,28.04
		c-15.28,8.27-30,20.75-49.07,42.34c-7.85,8.83-10.23,19.91-14.72,29.44c-2.52,5.33-7.15,9.53-10.09,14.3
		c-11.36,17.81-13.6,50.19-13.6,64.77c-0.14,24.53,9.11,42.2,9.25,53.98c0.42,17.95,10.65,30.28,23.27,51.73
		c7.43,12.76,22.99,27.34,31.96,33.23c9.39,6.17,13.88,14.16,26.64,20.19c21.03,10.09,4.63,13.18,1.26,23.69
		c-1.96,5.89-3.93,33.23-20.05,22.85c-7.85-5.05-21.17-11.64-33.51-21.73c-3.79-3.08-24.11-15.98-32.25-33.51
		c-2.52-5.33-14.44-17.95-24.96-34.35c-9.39-14.72-14.44-30.14-22.15-48.93c-7.85-19.07-7.29-47.67-9.11-67.15
		c-4.07-44.02,11.64-58.46,11.64-62.11c0-12.48,12.48-42.62,16.54-48.23c4.21-5.61,6.59-12.2,18.79-29.72
		c2.8-4.07,26.92-25.24,38.13-36.03c18.09-17.24,73.18-42.48,83.98-42.62c16.96-0.28,28.04-7.85,53.84-9.39
		c16.68-0.98,55.94,10.09,74.16,13.88c33.37,6.73,30.14,14.58,60,30.84C413.86,88.04,426.34,101.22,432.51,117.91L432.51,117.91z"/>
	<path id="XMLID_393_" class="st1" d="M432.51,117.91l-1.12,0.42c2.1,5.61,5.05,8.97,8.41,11.92c3.22,2.94,6.59,5.61,9.81,10.09
		c3.08,4.35,6.73,11.92,9.81,19.63c3.08,7.57,5.75,15.28,7.29,20.19c3.22,10.37,7.01,18.37,9.95,26.22
		c2.94,7.85,4.91,15.42,4.91,24.96v0.14l0,0c0,0.42,0,0.98,0,1.4c0,10.23,0.28,21.31,0.28,31.12c0,6.03-0.14,11.64-0.42,16.26
		c-0.28,4.63-0.7,8.27-1.4,10.23c-2.8,8.27-10.51,28.88-14.16,52.43c-1.68,10.65-7.15,20.47-12.62,28.04
		c-2.66,3.79-5.47,7.01-7.57,9.39c-2.24,2.52-3.93,4.07-4.63,4.91c-0.42,0.56-0.84,1.26-1.4,2.1c-1.82,3.22-4.77,9.25-9.39,16.26
		c-4.77,7.01-11.22,14.86-20.05,21.87c-8.97,7.01-22.01,15.84-33.09,23.83c-4.77,3.5-8.41,6.87-11.36,9.39
		c-1.54,1.26-2.8,2.24-4.07,2.94c-1.26,0.7-2.38,0.98-3.5,0.98c-0.28,0-0.56,0-0.84,0c-2.38-0.28-4.63-1.96-6.45-4.91
		c-1.82-2.8-2.94-6.73-3.5-11.08c-0.42-2.8-0.84-5.47-2.24-8.55s-3.65-6.45-7.57-11.08c-1.54-1.82-2.8-3.22-3.5-4.49
		c-0.84-1.26-1.12-2.1-1.12-2.52c0-0.28,0-0.42,0.28-0.56c0.28-0.42,1.26-0.84,2.8-1.26c1.54-0.42,3.79-0.84,6.87-1.12
		c2.94-0.42,5.89-1.96,8.97-4.21c4.49-3.36,9.25-7.99,13.46-12.06c2.1-1.96,4.21-3.93,6.17-5.33c1.82-1.54,3.65-2.52,4.91-2.94
		c2.52-0.84,5.19-3.08,8.41-6.45c9.25-10.23,22.01-31.26,33.93-57.06c8.55-18.37,14.44-42.2,14.44-71.36
		c0-10.94-0.84-22.57-2.66-35.05c-3.08-21.59-6.73-33.37-11.5-42.48c-4.63-8.97-10.23-15.14-16.96-25.38
		c-5.47-8.41-10.23-15.7-15.56-22.01c-5.33-6.31-11.08-11.5-18.79-15.56c-0.7-0.42-1.54-0.7-2.66-1.12
		c-3.22-1.26-8.41-3.65-14.58-9.39c-5.19-4.77-12.48-7.57-18.65-11.22c-1.68-0.98-5.61-2.66-10.94-4.77
		c-7.99-3.08-19.35-6.87-30.84-9.95c-11.5-3.08-23.27-5.61-32.25-5.75c-1.12,0-2.1,0-3.22,0c-19.63,0-47.81,5.05-90.43,28.18
		c-15.42,8.41-30.28,21.03-49.49,42.62c-8.13,9.25-10.51,20.33-15,29.72l0,0l0,0c-2.38,5.05-7.01,9.25-10.09,14.16
		c-5.89,9.11-9.25,21.87-11.22,34.07c-1.96,12.2-2.52,23.97-2.66,31.4v0.28c0,12.34,2.24,22.99,4.63,31.96
		c2.24,8.97,4.63,16.26,4.77,21.73c0.14,9.25,2.94,16.96,7.15,25.1c4.21,8.13,9.95,16.54,16.26,27.34
		c7.71,13.04,23.27,27.62,32.25,33.65l0,0c4.49,3.08,7.99,6.45,11.92,10.09c3.93,3.5,8.41,7.15,14.86,10.23
		c3.93,1.82,6.45,3.5,7.99,4.91c1.54,1.4,1.82,2.38,1.96,3.22c0,0.7-0.28,1.54-0.98,2.38c-0.98,1.4-2.52,3.08-4.21,4.91
		s-3.22,4.07-4.21,6.73c-0.42,1.4-0.84,3.5-1.4,6.17c-0.84,3.93-1.96,8.55-3.79,12.2c-0.84,1.82-1.96,3.36-3.08,4.35
		c-1.26,0.98-2.52,1.54-4.07,1.54c-1.54,0-3.5-0.56-5.89-2.1c-7.99-5.05-21.17-11.64-33.37-21.73c-0.98-0.84-2.94-2.24-5.47-4.07
		c-7.57-5.75-20.47-16.26-26.36-28.88c-0.7-1.54-1.96-3.22-3.65-5.47c-4.91-6.59-13.6-16.68-21.45-28.88
		c-9.25-14.58-14.3-30-22.15-48.79c-3.93-9.25-5.75-21.17-6.73-33.09c-1.12-11.92-1.4-23.97-2.24-33.79
		c-0.42-5.05-0.7-9.67-0.7-14.02c0-16.4,3.08-27.48,6.03-34.77c1.54-3.65,2.94-6.45,4.21-8.41c0.56-0.98,1.12-1.82,1.4-2.66
		c0.42-0.7,0.7-1.4,0.7-2.1c0-2.94,0.7-7.15,1.96-11.78c1.82-6.87,4.63-14.86,7.43-21.59c1.4-3.36,2.8-6.45,3.93-8.83
		c1.26-2.52,2.24-4.35,2.94-5.33l0,0c4.35-5.89,6.59-12.2,18.93-29.72c0.28-0.42,0.98-1.12,1.82-2.1
		c3.22-3.36,9.81-9.53,16.82-15.84c7.01-6.45,14.44-13.04,19.35-17.81c8.83-8.41,27.06-19.07,44.44-27.48
		c8.69-4.21,17.1-7.99,23.97-10.51c3.5-1.26,6.59-2.38,9.11-3.08c2.52-0.7,4.49-1.12,5.61-1.12c8.69-0.14,15.84-2.1,23.97-4.21
		c8.13-2.1,17.24-4.35,30-5.05c0.7,0,1.4,0,2.1,0c8.69,0,22.29,2.52,35.89,5.61c13.6,2.94,27.2,6.45,36.03,8.27
		c16.54,3.36,23.83,6.87,30.84,11.64s13.74,10.8,28.88,19.07c14.86,8.13,25.38,15.42,32.95,22.71c7.57,7.29,12.06,14.58,15.14,22.85
		l2.38-0.42v-0.14h-2.1l-1.12,0.42L432.51,117.91h-1.26v0.14L432.51,117.91l1.12-0.42c-3.08-8.55-7.99-16.26-15.7-23.83
		c-7.71-7.57-18.51-15-33.51-23.13c-14.86-8.13-21.45-14.02-28.6-18.93c-7.15-4.91-15-8.69-31.82-12.06
		c-8.69-1.82-22.29-5.19-36.03-8.27c-13.6-3.08-27.34-5.61-36.31-5.61c-0.7,0-1.54,0-2.24,0c-13.04,0.7-22.43,3.08-30.42,5.19
		c-8.13,2.1-15,4.07-23.27,4.21c-1.54,0-3.65,0.42-6.31,1.26c-9.11,2.66-24.67,9.25-40.1,17.1c-15.28,7.85-30.42,16.96-38.55,24.67
		c-5.61,5.33-14.44,13.32-22.29,20.47c-3.93,3.65-7.57,7.01-10.37,9.67c-1.4,1.4-2.66,2.52-3.65,3.65c-0.98,0.98-1.68,1.82-2.1,2.38
		C60,131.93,57.62,138.51,53.56,143.98l0,0l0,0c-1.12,1.54-2.66,4.49-4.49,8.41c-2.66,5.75-5.75,13.46-8.13,20.89
		c-2.38,7.43-4.21,14.72-4.21,19.63c0,0-0.14,0.42-0.42,1.12c-0.56,1.12-1.54,2.8-2.8,5.19c-3.65,7.01-9.11,19.91-9.11,41.78
		c0,4.35,0.28,9.11,0.7,14.16c0.84,9.67,1.26,21.73,2.24,33.79c1.12,12.06,2.94,23.97,7.01,33.79
		c7.71,18.65,12.76,34.35,22.29,49.21c5.33,8.27,10.94,15.56,15.56,21.45c2.24,2.94,4.35,5.47,6.03,7.71
		c1.68,2.1,2.8,3.93,3.36,5.05c4.21,8.97,11.5,16.68,18.09,22.57c3.36,2.94,6.45,5.47,9.11,7.29c2.52,1.96,4.63,3.36,5.47,4.07
		c12.48,10.23,25.8,16.96,33.65,21.87c2.66,1.68,5.05,2.52,7.29,2.52c2.94,0,5.47-1.54,7.15-3.65c2.66-3.22,4.21-7.99,5.33-12.34
		c0.56-2.24,0.98-4.21,1.4-6.03s0.7-3.22,0.98-4.07c0.98-2.94,3.08-5.47,5.19-7.71c0.98-1.12,1.96-2.24,2.8-3.36
		c0.84-1.12,1.4-2.38,1.4-3.79c0-1.68-0.98-3.5-2.66-5.05c-1.82-1.68-4.49-3.36-8.55-5.19c-6.17-2.94-10.37-6.31-14.3-9.81
		c-3.93-3.5-7.43-7.01-12.2-10.23l0,0c-8.69-5.75-24.25-20.33-31.54-32.81c-6.31-10.8-12.06-19.21-16.12-27.2
		c-4.07-7.85-6.73-15.28-6.87-23.97c-0.14-6.17-2.52-13.46-4.77-22.29c-2.24-8.83-4.49-19.21-4.49-31.26v-0.28
		c0-7.29,0.56-18.93,2.52-30.98s5.33-24.53,10.94-33.09c2.8-4.49,7.57-8.83,10.23-14.44l0,0c4.49-9.81,6.87-20.61,14.58-29.16
		c19.07-21.45,33.65-33.79,48.79-42.06c42.48-22.99,70.1-27.9,89.31-27.9c1.12,0,2.1,0,3.22,0c11.64,0.28,28.32,4.49,42.9,8.97
		c7.29,2.24,14.02,4.63,19.35,6.59c5.33,1.96,9.25,3.65,10.65,4.49c6.45,3.65,13.6,6.59,18.23,10.94c4.35,4.07,8.13,6.45,11.36,7.99
		c1.54,0.84,2.94,1.4,4.07,1.82c1.12,0.42,1.96,0.84,2.38,0.98c7.29,3.93,12.9,8.83,18.09,15c5.19,6.03,9.81,13.32,15.42,21.73
		c6.87,10.51,12.34,16.4,16.96,25.1c4.49,8.69,8.13,20.19,11.22,41.64c1.82,12.34,2.52,23.83,2.52,34.63
		c0,29.02-5.75,52.29-14.16,70.38c-7.99,17.1-16.26,32.11-23.55,43.18c-3.65,5.47-7.01,10.09-10.09,13.32
		c-2.94,3.22-5.61,5.33-7.29,5.75c-2.38,0.84-5.05,2.66-7.71,5.05c-4.07,3.5-8.69,8.27-13.18,12.2c-2.24,1.96-4.49,3.65-6.45,5.05
		c-2.1,1.26-4.07,2.1-5.75,2.24c-4.07,0.42-6.87,0.98-8.83,1.68c-0.98,0.42-1.82,0.84-2.38,1.4c-0.56,0.56-0.98,1.54-0.98,2.38
		c0,1.4,0.7,2.52,1.54,3.93c0.98,1.4,2.24,2.94,3.79,4.63c3.79,4.49,6.03,7.85,7.29,10.51c1.26,2.8,1.68,5.05,2.1,7.85
		c0.56,4.63,1.96,8.83,3.93,12.06c1.96,3.22,4.77,5.47,8.13,6.03c0.42,0,0.7,0.14,1.12,0.14c1.68,0,3.08-0.56,4.63-1.26
		c4.35-2.38,8.69-7.29,15.7-12.48c11.08-7.99,24.11-16.82,33.23-23.97c10.37-8.13,17.66-17.66,22.57-25.38
		c2.52-3.93,4.35-7.43,5.75-10.09c0.7-1.4,1.26-2.52,1.82-3.36c0.56-0.84,0.84-1.54,1.12-1.82c0.56-0.7,2.38-2.38,4.63-4.91
		c6.73-7.43,18.23-21.87,20.89-38.69c3.65-23.41,11.22-43.74,14.02-52.01c0.84-2.52,1.26-6.17,1.54-10.94
		c0.28-4.77,0.42-10.37,0.42-16.4c0-9.81-0.28-21.03-0.28-31.12c0-0.42,0-0.98,0-1.4l0,0l0,0v-0.14c0-9.95-2.24-17.95-5.19-25.94
		c-2.94-7.99-6.73-15.98-9.81-26.08c-1.54-4.91-4.21-12.62-7.29-20.33c-3.08-7.71-6.59-15.42-10.09-20.05
		c-3.36-4.77-7.01-7.57-10.09-10.37c-3.08-2.94-5.75-5.75-7.71-10.94l-2.38,0.42h0.84V117.91z"/>
	<polygon id="XMLID_394_" class="st0" points="256,62.95 267.08,85.38 291.75,89.03 273.95,106.41 278.15,130.94 256,119.45 
		233.85,130.94 238.05,106.41 220.25,89.03 244.92,85.38 	"/>
	<polygon id="XMLID_395_" class="st1" points="256,62.95 256,62.95 267.08,85.38 291.61,89.03 273.81,106.41 278.01,130.94 
		256,119.31 233.99,130.94 238.19,106.41 220.39,89.03 244.92,85.38 256,62.95 256,62.95 256,62.95 256,62.95 256,62.95 
		244.92,85.38 220.11,88.88 238.05,106.41 233.85,131.08 256,119.45 278.15,131.08 273.95,106.41 291.89,88.88 267.08,85.38 
		256,62.81 	"/>
	<polygon id="XMLID_396_" class="st1" points="256,100.52 256,62.95 267.08,85.38 	"/>
	<polygon id="XMLID_397_" class="st1" points="256,100.52 291.75,89.03 282.78,97.72 	"/>
	<polygon id="XMLID_398_" class="st1" points="256,100.52 273.95,106.41 278.15,130.94 	"/>
	<polygon id="XMLID_399_" class="st1" points="256,100.52 256,119.45 233.85,130.94 	"/>
	<polygon id="XMLID_400_" class="st1" points="256,100.52 220.25,89.03 244.92,85.38 	"/>
	<circle id="XMLID_401_" class="st1" cx="193.19" cy="449.05" r="5.33"/>
	<circle id="XMLID_402_" class="st1" cx="318.81" cy="449.05" r="5.33"/>
	<circle id="XMLID_403_" class="st1" cx="132.35" cy="417.09" r="5.33"/>
	<circle id="XMLID_404_" class="st1" cx="379.65" cy="417.09" r="5.33"/>
	<circle id="XMLID_405_" class="st1" cx="54.68" cy="282.5" r="5.33"/>
	<circle id="XMLID_406_" class="st1" cx="372.5" cy="89.73" r="5.33"/>
	
		<ellipse id="XMLID_407_" transform="matrix(0.1602 -0.9871 0.9871 0.1602 172.7674 309.6136)" class="st1" cx="268.34" cy="53.27" rx="5.33" ry="5.33"/>
	<polygon id="XMLID_408_" class="st1" points="112.72,379.65 114.12,380.07 114.4,379.79 108.65,372.92 108.23,373.2 108.51,374.61 
		91.41,388.91 85.38,381.76 85.94,380.35 85.66,380.07 79.63,384.98 97.3,406.15 103.19,401.24 102.9,400.82 101.5,401.1 
		95.47,393.95 	"/>
	<polygon id="XMLID_409_" class="st1" points="97.72,360.59 98.98,361.43 99.4,361.15 95.05,353.3 94.49,353.44 94.49,354.98 
		70.52,368.44 69.26,367.74 68.7,368.02 73.18,375.87 73.6,375.59 73.6,374.19 	"/>
	<polygon id="XMLID_410_" class="st1" points="84.26,336.61 84.26,335.07 84.68,334.93 89.17,342.78 88.6,343.06 87.34,342.22 
		63.37,355.82 63.37,357.22 62.81,357.5 58.46,349.65 58.88,349.37 60.14,350.07 	"/>
	
		<rect id="XMLID_411_" x="75.71" y="342.84" transform="matrix(0.8721 -0.4894 0.4894 0.8721 -163.8213 84.0952)" class="st1" width="6.45" height="25.1"/>
	<polygon id="XMLID_412_" class="st1" points="79.77,325.82 80.89,326.8 81.31,326.66 73.88,303.95 66.45,306.47 66.59,306.89 
		68.14,307.17 72.76,321.33 67.72,322.87 64.21,312.5 58.04,314.46 61.55,324.98 56.5,326.66 51.87,312.5 52.85,311.52 
		52.71,310.96 45.28,313.34 52.71,336.05 53.27,335.91 53.56,334.51 	"/>
	<path id="XMLID_413_" class="st1" d="M37.57,259.5l15,0.7c0.28,0,0.7,0,0.98,0c4.49,0,8.41-1.68,10.94-4.21
		c2.52-2.66,3.79-6.03,3.79-9.53c0-3.36-1.26-6.73-3.79-9.25c-2.52-2.66-6.17-4.35-10.8-4.49l-15-0.7l-0.28,6.45l15,0.7
		c3.08,0.14,5.05,1.26,6.31,2.52c1.26,1.26,1.96,3.08,1.96,4.77c0,1.82-0.7,3.65-1.96,4.91s-3.22,2.24-6.31,2.24h-0.7l-15-0.7
		L37.57,259.5L37.57,259.5z"/>
	<polygon id="XMLID_414_" class="st1" points="38.69,259.5 37.99,260.77 37.43,260.77 37.85,251.79 38.41,251.79 39.11,253.06 	"/>
	<polygon id="XMLID_415_" class="st1" points="40.1,232.03 39.4,230.76 38.83,230.76 38.41,239.74 38.97,239.74 39.82,238.48 	"/>
	<polygon id="XMLID_416_" class="st1" points="68.7,225.16 69.26,226.56 69.68,226.7 71.5,219.13 42.2,212.12 40.38,219.69 
		40.94,219.83 41.92,218.85 	"/>
	<polygon id="XMLID_417_" class="st1" points="75.15,198.38 76.27,197.4 76.69,197.54 74.87,205.11 45.7,197.96 47.39,190.53 
		47.95,190.53 48.37,191.93 	"/>
	<polygon id="XMLID_418_" class="st1" points="40.66,218.43 74.87,205.11 76.41,198.66 42.2,212.12 	"/>
	<polygon id="XMLID_419_" class="st1" points="79.07,188.71 79.35,190.25 79.77,190.39 83.14,181.98 82.72,181.84 81.45,182.68 
		55.94,172.44 55.66,171.04 55.24,170.76 51.87,179.17 52.29,179.45 53.42,178.47 	"/>
	<polygon id="XMLID_420_" class="st1" points="57.34,164.17 90.57,166.55 93.79,160.81 74.58,133.61 71.36,139.36 90.57,166.55 
		93.79,160.81 60.57,158.56 	"/>
	<polygon id="XMLID_421_" class="st1" points="103.75,143 103.61,144.4 103.89,144.82 119.17,126.46 113.28,121.55 113,121.83 
		113.42,123.23 103.89,134.59 99.96,131.22 106.97,122.81 101.92,118.61 94.91,127.02 90.85,123.65 100.38,112.3 101.78,112.58 
		102.2,112.16 96.18,107.11 80.89,125.48 81.31,125.76 82.58,125.2 	"/>
	<path id="XMLID_424_" class="st1" d="M129.54,116.64L114.4,98.56l5.61-4.63c2.66-2.24,4.91-2.94,6.03-2.94
		c0.7,0,0.98,0.14,1.12,0.28c0.14,0.14,0.14,0.14,0.28,0.7c0,0.42-0.14,1.26-0.7,2.24c-0.56,0.98-1.54,2.24-3.22,3.5l-8.13,6.73
		l4.21,5.05l8.13-6.73c1.96-1.68,3.5-3.5,4.63-5.33c0.98-1.82,1.68-3.65,1.68-5.61s-0.7-4.07-2.24-5.47s-3.5-2.1-5.61-2.1
		c-3.22,0-6.73,1.54-10.23,4.35l-10.51,8.83l19.35,22.99L129.54,116.64L129.54,116.64z M124.07,104.45l15.7,2.24l0.98-6.45
		L125.06,98L124.07,104.45z"/>
	<circle id="XMLID_425_" class="st1" cx="140.2" cy="103.47" r="3.22"/>
	<polygon id="XMLID_426_" class="st1" points="123.79,119.87 123.37,121.27 123.65,121.69 130.52,115.8 130.24,115.52 
		128.84,115.66 	"/>
	<path id="XMLID_427_" class="st1" d="M146.79,91.55c0,0.14-0.14,0.56-0.14,0.98c0,0.28,0,0.84,0.14,1.26
		c0.14,0.7,0.7,1.68,1.68,2.38c0.98,0.7,2.1,0.98,3.08,0.98c1.26,0,2.52-0.28,4.07-0.98c1.54-0.56,3.36-1.54,5.75-2.8
		c2.38-1.4,4.21-2.94,5.47-4.77c1.26-1.82,1.96-3.79,1.96-5.75c0-2.1-0.84-4.21-2.52-5.75c-1.54-1.4-3.79-2.1-6.03-2.1
		c-2.52,0-5.19,0.84-7.99,2.38c-1.96,1.12-3.65,1.54-4.77,1.54c-0.98,0-1.54-0.28-1.68-0.42c-0.28-0.28-0.28-0.42-0.28-0.84
		c0-0.42,0.14-1.12,0.7-1.96c0.56-0.84,1.68-1.82,3.36-2.8c2.1-1.26,3.65-1.96,4.77-2.38c1.12-0.42,1.68-0.42,1.82-0.42l0,0l0,0l0,0
		l0,0l0,0l0.14-1.26l-0.56,1.12c0.28,0.14,0.42,0.14,0.42,0.14l0.14-1.26l-0.56,1.12l0.98-1.82l-1.96,0.84
		c0.14,0.42,0.56,0.84,0.98,0.98l0.98-1.82l-1.96,0.84l1.68-0.7h-1.82c0,0.14,0,0.42,0.14,0.7l1.68-0.7h-1.82h1.82l-1.82-0.42v0.42
		h1.82l-1.82-0.42l6.31,1.4c0-0.14,0.14-0.56,0.14-0.98c0-0.28,0-0.84-0.14-1.26c-0.14-0.7-0.7-1.68-1.68-2.38
		c-0.98-0.7-2.1-0.98-3.08-0.98c-1.26,0-2.52,0.28-4.07,0.98c-1.54,0.56-3.36,1.54-5.75,2.8c-2.38,1.4-4.21,2.94-5.47,4.77
		c-1.26,1.82-1.96,3.79-1.96,5.75c0,2.1,0.84,4.21,2.52,5.75c1.54,1.4,3.79,2.1,6.03,2.1c2.52,0,5.19-0.84,7.99-2.38
		c1.96-1.12,3.65-1.54,4.77-1.54c0.98,0,1.54,0.28,1.68,0.42c0.28,0.28,0.28,0.42,0.28,0.84c0,0.42-0.14,1.12-0.7,1.96
		c-0.56,0.84-1.68,1.82-3.36,2.8c-2.1,1.26-3.65,1.96-4.77,2.38c-1.12,0.42-1.68,0.42-1.82,0.42l0,0l0,0l0,0l0,0l0,0l-0.14,1.26
		l0.56-1.12c-0.28-0.14-0.42-0.14-0.42-0.14l-0.14,1.26l0.56-1.12l-0.98,1.82l1.96-0.84c-0.14-0.42-0.56-0.84-0.98-0.98l-0.98,1.82
		l1.96-0.84l-1.68,0.7h1.82c0-0.14,0-0.42-0.14-0.7l-1.68,0.7h1.82h-1.82l1.82,0.42v-0.42h-1.82l1.82,0.42L146.79,91.55
		L146.79,91.55z"/>
	<circle id="XMLID_428_" class="st1" cx="150.01" cy="92.39" r="3.22"/>
	<circle id="XMLID_429_" class="st1" cx="157.72" cy="68.7" r="3.22"/>
	<polygon id="XMLID_430_" class="st1" points="179.03,83 178.19,84.26 178.33,84.68 186.74,81.17 186.46,80.75 185.06,80.47 
		174.27,55.1 175.11,53.98 174.97,53.56 166.69,57.06 166.83,57.48 168.24,57.62 	"/>
	<polygon id="XMLID_431_" class="st1" points="201.6,74.73 200.62,75.71 200.76,76.27 209.45,73.74 209.31,73.32 207.91,72.9 
		201.88,51.45 210.86,48.93 211.84,49.91 212.4,49.77 210.3,42.34 183.66,49.77 185.76,57.2 186.32,57.06 186.74,55.66 
		195.58,53.27 	"/>
	<polygon id="XMLID_432_" class="st1" points="218.29,40.66 218.29,41.22 220.95,42.48 219.55,40.52 231.89,58.18 238.48,57.48 
		226,39.82 226.14,41.08 227.26,40.24 227.26,39.68 	"/>
	<polygon id="XMLID_433_" class="st1" points="248.15,37.57 248.15,37.99 245.91,39.82 246.89,37.71 238.48,57.48 231.89,58.18 
		240.44,38.41 240.58,39.54 239.18,38.97 239.18,38.41 	"/>
	<polygon id="XMLID_434_" class="st1" points="231.89,57.9 233.01,68.14 231.75,68.98 231.89,69.54 240.86,68.56 240.72,68 
		239.46,67.43 238.34,57.2 	"/>
	<path id="XMLID_435_" class="st1" d="M309.42,47.95l-0.84,3.22c3.79,0.98,6.45,4.49,6.45,8.27c0,0.7-0.14,1.4-0.28,2.1
		c-0.98,3.79-4.49,6.45-8.27,6.45c-0.7,0-1.4-0.14-2.1-0.28c-3.79-0.98-6.45-4.49-6.45-8.27c0-0.7,0.14-1.4,0.28-2.1
		c0.98-3.79,4.49-6.45,8.27-6.45c0.7,0,1.4,0.14,2.1,0.28L309.42,47.95l0.84-3.22c-1.26-0.28-2.52-0.42-3.79-0.42
		c-6.73,0-12.76,4.49-14.58,11.36c-0.28,1.26-0.42,2.52-0.42,3.79c0,6.73,4.49,12.76,11.36,14.58c1.26,0.28,2.52,0.42,3.79,0.42
		c6.73,0,12.76-4.49,14.58-11.36c0.28-1.26,0.42-2.52,0.42-3.79c0-6.73-4.49-12.76-11.36-14.58L309.42,47.95z"/>
	<polygon id="XMLID_436_" class="st1" points="326.38,79.91 324.98,80.05 324.7,80.61 332.83,84.4 333.11,83.98 332.27,82.72 
		336.19,74.3 348.53,80.05 351.19,74.16 339,68.42 341.8,62.53 355.12,68.84 355.26,70.24 355.82,70.52 359.04,63.51 337.45,53.27 
		337.31,53.84 338.16,54.96 	"/>
	<path id="XMLID_437_" class="st1" d="M408.96,105.15l-2.38,2.24c1.68,1.68,2.38,3.79,2.52,6.03c0,2.24-0.84,4.35-2.52,6.03
		c-1.68,1.68-3.79,2.38-6.03,2.52c-2.24,0-4.35-0.84-6.03-2.52c-1.68-1.68-2.38-3.79-2.52-6.03c0-2.24,0.84-4.35,2.52-6.03
		c1.68-1.68,3.79-2.38,6.03-2.52c2.24,0,4.35,0.84,6.03,2.52L408.96,105.15l2.38-2.24c-2.94-2.94-6.87-4.49-10.65-4.49
		s-7.57,1.4-10.51,4.35c-2.94,2.94-4.49,6.87-4.49,10.65c0,3.79,1.4,7.57,4.35,10.51c2.94,2.94,6.87,4.49,10.65,4.49
		s7.57-1.4,10.51-4.35c2.94-2.94,4.49-6.87,4.49-10.65c0-3.79-1.4-7.57-4.35-10.51L408.96,105.15z"/>
	
		<rect id="XMLID_438_" x="401.28" y="111.05" transform="matrix(0.712 -0.7022 0.7022 0.712 33.336 319.6414)" class="st0" width="10.09" height="16.26"/>
	<polygon id="XMLID_439_" class="st1" points="402.79,137.67 405.17,137.53 402.51,136.27 402.09,136.55 407.27,143.98 
		407.69,143.7 407.41,140.9 406.57,143 414.56,140.2 418.35,145.66 423.68,141.88 421.57,138.8 436.99,134.31 432.65,127.86 
		432.23,128.14 432.37,131.08 433.35,128.98 	"/>
	<polygon id="XMLID_440_" class="st1" points="419.75,162.49 420.73,160.25 420.87,163.19 420.45,163.47 415.4,156.04 
		415.82,155.76 418.49,157.02 416.11,157.16 421.71,150.57 418.07,145.24 423.4,141.46 425.5,144.68 435.31,131.93 439.66,138.23 
		439.24,138.51 436.57,137.39 438.96,137.25 	"/>
	<polygon id="XMLID_441_" class="st1" points="425.08,169.92 423.82,169.08 423.4,169.22 433.77,193.47 440.92,190.39 
		440.64,189.97 439.24,189.69 432.37,173.84 454.1,164.59 451.01,157.44 450.59,157.58 450.31,159.12 	"/>
	<polygon id="XMLID_442_" class="st1" points="436.71,199.78 435.73,198.8 435.17,198.94 437.7,207.63 438.26,207.49 438.54,205.95 
		465.03,198.24 466.16,199.22 466.58,199.08 464.05,190.53 463.63,190.67 463.21,192.07 	"/>
	<polygon id="XMLID_443_" class="st1" points="441.48,216.89 440.64,215.76 440.08,215.76 441.48,224.74 441.9,224.74 
		442.46,223.33 451.72,221.93 453.68,235.39 460.13,234.41 458.16,220.95 464.47,219.97 466.72,234.69 465.59,235.53 465.73,236.09 
		473.31,234.97 469.8,211.42 469.38,211.42 468.82,212.82 	"/>
	<path id="XMLID_444_" class="st1" d="M470.78,260.49h-3.22c-0.14,4.63-3.93,8.41-8.55,8.41h-0.14l0,0
		c-4.63-0.14-8.41-3.93-8.41-8.55v-0.14l0,0c0.14-4.63,3.93-8.41,8.55-8.41h0.14l0,0c4.63,0.14,8.41,3.93,8.41,8.55v0.14l0,0
		L470.78,260.49h3.22v-0.28c0-8.13-6.59-14.86-14.72-15l0,0h-0.28c-8.13,0-14.86,6.59-15,14.72l0,0l0,0v0.28
		c0,8.13,6.59,14.86,14.72,15l0,0h0.28c8.13,0,14.86-6.59,15-14.72l0,0L470.78,260.49z"/>
	<path id="XMLID_447_" class="st1" d="M440.92,290.63l22.99,5.19l-1.54,7.15c-0.56,2.66-1.54,4.35-2.38,5.33
		c-0.84,0.98-1.4,1.12-1.68,1.12l-0.28-0.14c-0.14-0.14-0.42-0.28-0.7-0.98c-0.28-0.56-0.56-1.68-0.56-2.94
		c0-0.98,0.14-2.1,0.42-3.5l2.38-10.23l-6.31-1.4l-2.38,10.23c-0.42,1.82-0.56,3.36-0.56,4.91c0,2.8,0.7,5.33,2.1,7.29
		c0.7,0.98,1.54,1.82,2.66,2.38c0.98,0.56,2.24,0.84,3.36,0.84c2.52,0,4.77-1.26,6.59-3.22c1.68-1.96,3.08-4.77,3.79-8.13
		l3.08-13.46l-29.3-6.73L440.92,290.63L440.92,290.63z M452.7,296.94l-13.88,7.71l3.22,5.75l13.88-7.71L452.7,296.94z"/>
	<circle id="XMLID_448_" class="st1" cx="440.5" cy="307.45" r="3.22"/>
	<polygon id="XMLID_449_" class="st1" points="443.58,284.46 443.16,283.06 442.6,282.92 440.64,291.75 441.2,291.89 442.18,290.91 
			"/>
	<polygon id="XMLID_450_" class="st1" points="433.77,322.31 433.63,320.77 433.21,320.63 429.98,327.64 457.32,340.12 
		460.55,333.11 460.13,332.97 458.87,333.67 	"/>
	<polygon id="XMLID_451_" class="st1" points="422.27,347.27 421.15,348.11 420.73,347.97 423.96,340.82 451.29,353.44 
		448.07,360.45 447.51,360.31 447.37,358.76 	"/>
	<polygon id="XMLID_452_" class="st1" points="459.99,334.23 423.96,340.82 421.15,346.85 457.32,340.12 	"/>
	<polygon id="XMLID_453_" class="st1" points="416.53,356.38 416.53,354.84 416.11,354.56 411.2,362.13 411.62,362.41 
		413.02,361.85 436.01,376.85 436.01,378.25 436.43,378.53 441.34,370.96 440.92,370.68 439.66,371.38 	"/>
	<polygon id="XMLID_454_" class="st1" points="407.41,368.58 408.11,370.82 408.53,367.88 408.25,367.6 402.23,374.33 
		402.65,374.75 405.45,373.77 403.07,373.49 407.83,380.64 403.49,385.54 408.39,389.75 410.92,386.94 419.05,400.82 424.24,394.94 
		423.82,394.65 421.01,395.5 423.4,395.92 	"/>
	<polygon id="XMLID_455_" class="st1" points="387.5,391.15 389.89,391.57 387.08,392.41 386.66,392.13 392.69,385.26 
		393.11,385.68 392.55,388.49 391.85,386.24 399.56,390.03 403.91,385.12 408.81,389.33 406.15,392.27 421.01,398.58 415.96,404.33 
		415.54,404.05 416.11,401.1 416.81,403.49 	"/>
	<polygon id="XMLID_456_" class="st1" points="203.99,466.58 202.73,467 202.58,467.42 211.28,469.52 211.42,468.96 210.44,467.98 
		216.88,439.94 207.21,445.97 208.75,446.25 	"/>
	<path id="XMLID_457_" class="st1" d="M234.41,445.97l-0.42,3.22c0.84,0.14,1.68,0.42,2.1,0.98c0.42,0.42,0.7,0.98,0.7,1.4v0.14
		c0,0.42-0.28,0.84-0.7,1.26c-0.42,0.42-1.26,0.7-2.1,0.7h-0.42c-0.84-0.14-1.68-0.42-2.1-0.98c-0.42-0.42-0.7-0.98-0.7-1.4v-0.14
		c0-0.42,0.28-0.84,0.7-1.26c0.42-0.42,1.26-0.7,2.1-0.7h0.42L234.41,445.97l0.42-3.22c-0.42,0-0.84,0-1.12,0
		c-2.24,0-4.35,0.7-6.03,2.1c-1.68,1.26-2.94,3.36-3.22,5.61c0,0.28,0,0.56,0,0.98c0,2.38,0.98,4.49,2.52,6.03
		c1.54,1.54,3.65,2.52,6.03,2.8c0.42,0,0.84,0,1.12,0c2.24,0,4.35-0.7,6.03-2.1c1.68-1.26,2.94-3.36,3.22-5.61c0-0.28,0-0.56,0-0.98
		c0-2.38-0.98-4.49-2.52-6.03c-1.54-1.54-3.65-2.52-6.03-2.8L234.41,445.97z"/>
	<path id="XMLID_458_" class="st1" d="M233.15,457.04l-0.42,3.22c1.68,0.14,3.08,0.84,4.07,1.54c0.42,0.42,0.7,0.7,0.98,1.12
		c0.14,0.28,0.28,0.56,0.28,0.84v0.14c0,0.28-0.14,0.42-0.28,0.7c-0.28,0.42-0.7,0.84-1.54,1.12c-0.84,0.42-1.82,0.56-2.94,0.56
		c-0.28,0-0.7,0-0.98,0c-1.68-0.14-3.08-0.84-4.07-1.54c-0.42-0.42-0.7-0.7-0.98-1.12c-0.14-0.28-0.28-0.56-0.28-0.84v-0.14
		c0-0.28,0.14-0.42,0.28-0.7c0.28-0.42,0.7-0.84,1.54-1.12c0.84-0.42,1.82-0.56,2.94-0.56c0.28,0,0.7,0,0.98,0L233.15,457.04
		l0.42-3.22c-0.56,0-1.12-0.14-1.82-0.14c-2.66,0-5.19,0.7-7.29,1.96c-0.98,0.7-1.96,1.54-2.66,2.52c-0.7,0.98-1.26,2.24-1.4,3.65
		c0,0.28,0,0.56,0,0.84c0,1.4,0.42,2.66,0.98,3.93c0.98,1.68,2.38,3.08,4.07,4.07c1.68,0.98,3.65,1.68,5.89,1.96
		c0.56,0,1.12,0.14,1.82,0.14c2.66,0,5.19-0.7,7.29-1.96c0.98-0.7,1.96-1.54,2.66-2.52c0.7-0.98,1.26-2.24,1.4-3.65
		c0-0.28,0-0.56,0-0.84c0-1.4-0.42-2.66-0.98-3.93c-0.98-1.68-2.38-3.08-4.07-4.07c-1.68-0.98-3.65-1.68-5.89-1.96L233.15,457.04z"
		/>
	<path id="XMLID_459_" class="st1" d="M263.43,458.16l0.14,3.22h0.28c1.68,0,3.22,0.56,4.07,1.12c0.42,0.28,0.7,0.7,0.98,0.98
		c0.14,0.28,0.28,0.56,0.28,0.7l0,0l0,0c0,0.28,0,0.42-0.28,0.84c-0.28,0.42-0.84,1.12-1.82,1.54c-0.84,0.42-2.1,0.84-3.36,0.84
		h-0.28c-1.68,0-3.22-0.56-4.07-1.12c-0.42-0.28-0.7-0.7-0.98-0.98c-0.14-0.28-0.28-0.56-0.28-0.7l0,0c0-0.28,0-0.42,0.28-0.84
		c0.28-0.42,0.84-1.12,1.82-1.54c0.84-0.42,2.1-0.84,3.36-0.84L263.43,458.16l-0.14-3.22c-2.94,0.14-5.75,0.98-7.85,2.66
		c-1.12,0.84-1.96,1.82-2.66,2.94c-0.7,1.12-1.12,2.52-1.12,4.07v0.28c0,1.4,0.56,2.8,1.26,3.93c1.12,1.68,2.66,2.94,4.49,3.79
		c1.82,0.84,3.93,1.26,6.03,1.26h0.56c2.94-0.14,5.75-0.98,7.85-2.66c1.12-0.84,1.96-1.82,2.66-2.94c0.7-1.12,1.12-2.52,1.12-4.07
		v-0.28l0,0c0-1.4-0.56-2.8-1.26-3.93c-1.12-1.68-2.66-2.94-4.49-3.79c-1.82-0.84-3.93-1.26-6.03-1.26h-0.56L263.43,458.16z"/>
	<path id="XMLID_460_" class="st1" d="M258.1,464.61c0-0.56,0-0.98,0-1.4c0-5.61,1.26-8.97,2.66-10.65c0.7-0.84,1.4-1.4,2.24-1.82
		c0.84-0.42,1.68-0.56,2.66-0.56c1.96,0,4.21,0.84,5.19,1.96l4.49-4.77c-2.52-2.24-5.89-3.65-9.67-3.65c-1.68,0-3.5,0.28-5.19,1.12
		c-2.52,1.12-4.91,3.36-6.45,6.45c-1.54,3.08-2.38,7.01-2.38,11.92c0,0.56,0,1.12,0,1.68L258.1,464.61L258.1,464.61z"/>
	<path id="XMLID_461_" class="st1" d="M291.89,443.86l0.56,3.22c0.28,0,0.42,0,0.7,0c0.7,0,1.4,0.28,1.82,0.56
		c0.42,0.28,0.7,0.7,0.7,1.12v0.28c0,0.42-0.14,0.98-0.56,1.4c-0.42,0.42-1.12,0.84-1.96,0.98c-0.28,0-0.42,0-0.7,0
		c-0.7,0-1.4-0.28-1.82-0.56c-0.42-0.28-0.7-0.7-0.7-1.12v-0.28c0-0.42,0.14-0.98,0.56-1.4c0.42-0.42,1.12-0.84,1.96-0.98
		L291.89,443.86l-0.56-3.22c-2.24,0.42-4.21,1.54-5.61,3.08c-1.4,1.54-2.24,3.65-2.24,5.75c0,0.56,0,0.98,0.14,1.54
		c0.42,2.1,1.68,3.93,3.36,5.19c1.68,1.26,3.65,1.82,5.75,1.82c0.7,0,1.26,0,1.96-0.14c2.24-0.42,4.21-1.54,5.61-3.08
		s2.24-3.65,2.24-5.75c0-0.56,0-0.98-0.14-1.54c-0.42-2.1-1.68-3.93-3.36-5.19c-1.68-1.26-3.65-1.82-5.75-1.82
		c-0.7,0-1.26,0-1.96,0.14L291.89,443.86z"/>
	<path id="XMLID_462_" class="st1" d="M293.85,454.66l0.56,3.22c0.56-0.14,1.12-0.14,1.68-0.14c1.4,0,2.52,0.42,3.22,0.84
		c0.7,0.42,0.98,0.84,0.98,1.26v0.28c0,0.42-0.28,1.12-1.12,1.96c-0.84,0.84-2.24,1.54-3.79,1.82c-0.56,0.14-1.12,0.14-1.68,0.14
		c-1.4,0-2.52-0.42-3.22-0.84c-0.7-0.42-0.98-0.84-0.98-1.26v-0.28c0-0.42,0.28-1.12,1.12-1.96c0.84-0.84,2.24-1.54,3.79-1.82
		L293.85,454.66l-0.56-3.22c-2.8,0.56-5.19,1.68-7.01,3.36c-1.82,1.68-3.22,4.07-3.22,6.73c0,0.42,0,0.98,0.14,1.4
		c0.42,2.52,2.1,4.35,4.07,5.61c1.96,1.26,4.21,1.82,6.73,1.82c0.98,0,1.96-0.14,2.94-0.28c2.8-0.56,5.19-1.68,7.01-3.36
		c1.82-1.68,3.22-4.07,3.22-6.73c0-0.42,0-0.98-0.14-1.4c-0.42-2.52-2.1-4.35-4.07-5.61c-1.96-1.26-4.21-1.82-6.73-1.82
		c-0.98,0-1.96,0.14-2.94,0.28L293.85,454.66z"/>
	<polygon id="XMLID_463_" class="st1" points="155.2,325.4 154.36,325.54 154.36,325.82 167.68,331.43 169.22,327.5 169.08,327.5 
		168.38,327.92 159.68,324.14 164.73,312.22 160.81,310.54 160.67,310.82 161.09,311.52 	"/>
	<polygon id="XMLID_464_" class="st1" points="170.06,331.71 169.22,331.71 169.08,331.85 179.45,339.84 182.12,336.33 
		181.84,336.19 181.13,336.47 174.69,331.57 176.37,329.32 181.27,332.97 183.38,330.02 178.47,326.38 180.29,324.14 186.74,329.04 
		186.74,329.88 186.88,330.02 189.55,326.52 179.03,318.67 178.89,318.95 179.17,319.65 	"/>
	<polygon id="XMLID_465_" class="st1" points="183.66,344.18 182.96,343.9 182.68,344.04 185.62,348.11 185.76,347.97 
		185.76,347.13 195.72,339.98 198.66,344.04 198.38,344.74 198.52,345.03 202.02,342.5 193.05,330.16 189.55,332.69 189.83,332.97 
		190.53,332.83 193.61,337.03 	"/>
	<polygon id="XMLID_466_" class="st1" points="197.4,365.35 196.7,365.07 196.42,365.21 199.22,369.28 199.5,369.14 199.36,368.3 
		209.45,361.29 212.4,365.49 212.12,366.19 212.26,366.48 215.76,363.95 207.07,351.61 203.57,354 203.71,354.28 204.55,354.14 
		207.49,358.34 	"/>
	<polygon id="XMLID_467_" class="st1" points="203.99,375.87 203.15,375.59 203.01,375.87 206.23,379.65 206.37,379.37 
		206.23,378.67 217.87,368.86 218.71,369.14 218.85,369 215.62,365.21 215.48,365.35 215.62,366.19 	"/>
	<polygon id="XMLID_468_" class="st1" points="213.66,387.5 213.8,388.35 213.66,388.49 210.44,384.7 210.58,384.56 211.42,384.7 
		223.05,375.03 222.91,374.19 223.05,374.05 226.28,377.83 226.14,377.97 225.3,377.69 	"/>
	
		<rect id="XMLID_469_" x="212.86" y="369.99" transform="matrix(0.7661 -0.6428 0.6428 0.7661 -192.0091 226.1524)" class="st1" width="3.65" height="13.74"/>
	<polygon id="XMLID_470_" class="st1" points="219.83,392.69 219.13,392.69 218.99,392.97 230.06,399.84 232.31,396.34 
		232.03,396.2 231.33,396.48 224.46,392.13 226,389.75 231.19,392.97 233.01,389.89 227.96,386.66 229.5,384.28 236.37,388.49 
		236.37,389.33 236.51,389.47 238.76,385.82 227.68,378.95 227.54,379.23 227.96,379.93 	"/>
	<path id="XMLID_473_" class="st1" d="M241.42,403.77l2.94-11.08l2.38,0.7c1.26,0.28,1.96,0.84,2.24,0.98l0.14,0.14l0,0l0.56-0.28
		h-0.7v0.28l0.56-0.28h-0.7h1.12l-0.98-0.56l-0.14,0.56h1.12l-0.98-0.56l0.84,0.42l-0.56-0.7l-0.14,0.28l0.84,0.42l-0.56-0.7
		l0.14,0.14l-0.14-0.28l0,0l0.14,0.14l-0.14-0.28c0,0-0.28,0.14-0.84,0.14c-0.42,0-0.98,0-1.82-0.28l-5.61-1.54l-1.68,6.31
		l5.61,1.54c1.26,0.28,2.38,0.42,3.5,0.42c1.68,0,3.36-0.42,4.77-1.4c0.7-0.56,1.26-1.12,1.68-1.96c0.42-0.7,0.7-1.68,0.7-2.52
		c0-1.82-0.98-3.5-2.24-4.63c-1.26-1.12-2.94-1.96-4.91-2.52l-8.69-2.38l-4.63,17.38L241.42,403.77L241.42,403.77z M242.4,397.6
		l3.93,7.71l5.75-2.94l-3.93-7.71L242.4,397.6z"/>
	<circle id="XMLID_474_" class="st1" cx="249.27" cy="403.91" r="1.82"/>
	<polygon id="XMLID_475_" class="st1" points="236.65,401.81 235.95,401.95 235.81,402.23 240.58,403.49 240.72,403.21 
		240.16,402.65 	"/>
	<polygon id="XMLID_476_" class="st1" points="255.44,405.87 254.74,406.29 254.74,406.57 267.78,407.69 268.06,403.35 
		267.78,403.35 267.36,404.05 259.22,403.35 259.5,400.4 265.53,400.96 265.81,397.46 259.79,396.9 260.07,393.95 268.2,394.65 
		268.48,395.36 268.76,395.5 269.18,391.15 256.14,390.03 256.14,390.31 256.7,390.73 	"/>
	<path id="XMLID_479_" class="st1" d="M284.18,397.74l-1.82-4.63l2.38-0.98c0.98-0.42,1.68-0.56,2.1-0.56c0.28,0,0.42,0,0.42,0l0,0
		l0.28-0.7l-0.56,0.42l0.28,0.28l0.28-0.7l-0.56,0.42l0.98-0.7h-1.12l0.14,0.7l0.98-0.7h-1.12h0.7h-0.7v0.14h0.7l-0.7-0.14h0.28
		h-0.28l0,0h0.28h-0.28c0,0-0.14,0.28-0.42,0.56c-0.28,0.28-0.98,0.7-1.82,0.98l-5.33,2.1l2.38,6.03l5.33-2.1
		c1.82-0.7,3.22-1.68,4.35-2.94c1.12-1.26,1.82-2.66,1.82-4.49c0-1.68-0.84-3.36-2.1-4.35c-1.26-0.98-2.8-1.4-4.49-1.4
		c-1.4,0-2.94,0.28-4.63,0.98l-8.41,3.36l4.35,10.65L284.18,397.74L284.18,397.74z M276.75,396.9l4.35,10.65l8.41-3.36
		c1.82-0.7,3.22-1.68,4.35-2.94c1.12-1.26,1.82-2.66,1.82-4.49c0-1.68-0.84-3.36-2.1-4.35c-1.26-0.98-2.8-1.4-4.49-1.4
		c-1.4,0-2.94,0.28-4.63,0.98l-5.33,2.1l2.38,6.03l5.33-2.1c0.98-0.42,1.68-0.56,2.1-0.56c0.28,0,0.42,0,0.42,0l0,0l0.28-0.7
		l-0.56,0.42l0.28,0.28l0.28-0.7l-0.56,0.42l0.98-0.7h-1.12l0.14,0.7l0.98-0.7h-1.12h0.7l-0.7-0.14v0.14h0.7l-0.7-0.14h0.28
		l-0.28-0.14l0,0h0.28l-0.28-0.14c0,0-0.14,0.28-0.42,0.56c-0.28,0.28-0.98,0.7-1.82,0.98l-2.38,0.98l-1.82-4.63L276.75,396.9
		L276.75,396.9z"/>
	<polygon id="XMLID_480_" class="st1" points="281.66,405.03 281.1,405.59 281.24,405.87 283.62,405.03 	"/>
	<polygon id="XMLID_481_" class="st1" points="275.91,390.87 275.21,390.87 275.07,390.59 277.31,389.61 	"/>
	<polygon id="XMLID_482_" class="st1" points="299.88,396.76 299.46,397.6 299.6,397.74 310.82,390.87 308.43,387.22 308.29,387.36 
		308.29,388.21 301.42,392.41 299.88,390.03 304.93,386.8 303.11,383.72 297.92,386.94 296.38,384.56 303.25,380.21 304.09,380.64 
		304.23,380.35 301.98,376.85 290.91,383.72 291.05,384 291.89,384 	"/>
	<polygon id="XMLID_483_" class="st1" points="310.82,337.73 310.12,338.02 309.98,338.3 324.28,340.4 324.98,336.05 324.7,336.05 
		324.14,336.75 314.74,335.35 316.57,322.59 312.36,321.89 312.22,322.17 312.92,322.73 	"/>
	<polygon id="XMLID_484_" class="st1" points="328.06,340.12 327.36,340.4 327.36,340.68 332.27,341.52 332.27,341.24 
		331.71,340.68 334.23,325.82 335.07,325.54 335.07,325.26 330.16,324.42 330.16,324.7 330.73,325.12 	"/>
	<path id="XMLID_485_" class="st1" d="M353.16,330.73c-1.12-1.12-2.24-1.96-3.36-2.52c-1.26-0.56-2.52-0.84-3.79-0.84
		c-1.54,0-2.94,0.42-4.21,1.12c-1.82,1.12-3.08,2.66-4.07,4.35c-0.98,1.68-1.4,3.65-1.54,5.61c0,1.82,0.42,3.65,1.68,5.19
		c1.26,1.54,3.22,2.66,5.47,2.94l7.99,1.12l1.4-9.67l-6.45-0.84l-0.42,3.22l-1.54-0.28c-0.84-0.14-0.98-0.42-1.26-0.56
		c-0.14-0.14-0.28-0.56-0.28-1.26c0-0.98,0.42-2.38,1.26-3.36c0.42-0.42,0.7-0.84,1.12-0.98c0.42-0.14,0.7-0.28,0.98-0.28
		c0.28,0,0.56,0,0.98,0.28c0.42,0.14,0.98,0.56,1.54,1.26L353.16,330.73L353.16,330.73z"/>
	<polygon id="XMLID_486_" class="st1" points="347.69,338.02 346.99,337.59 347.13,337.31 352.04,338.02 351.89,338.3 
		351.19,338.58 	"/>
	<polygon id="XMLID_487_" class="st1" points="356.94,346.29 356.24,346.71 356.24,346.99 361.29,346.99 361.29,346.71 
		360.59,346.29 360.59,331.15 361.29,330.73 361.29,330.44 356.24,330.44 356.24,330.73 356.94,331.15 	"/>
	<polygon id="XMLID_488_" class="st1" points="372.08,346.29 372.78,346.71 372.78,346.99 367.88,346.99 367.88,346.71 
		368.58,346.29 368.58,331.15 367.88,330.73 367.88,330.44 372.78,330.44 372.78,330.73 372.08,331.15 	"/>
	<rect id="XMLID_489_" x="357.64" y="336.89" class="st1" width="13.74" height="3.65"/>
	<polygon id="XMLID_490_" class="st1" points="381.48,345.17 380.78,345.59 380.78,345.87 385.82,345.45 385.82,345.17 
		384.98,344.89 384,332.69 389.05,332.27 389.47,332.83 389.75,332.83 389.47,328.62 374.33,329.88 374.75,334.09 375.03,334.09 
		375.31,333.39 380.35,332.97 	"/>
</g>
</svg>
