<?xml version="1.0" encoding="utf-8"?>
<!-- Generator: Adobe Illustrator 27.0.0, SVG Export Plug-In . SVG Version: 6.00 Build 0)  -->
<svg version="1.1" id="Layer_1" xmlns="http://www.w3.org/2000/svg" xmlns:xlink="http://www.w3.org/1999/xlink" x="0px" y="0px"
	 viewBox="0 0 512 512" style="enable-background:new 0 0 512 512;" xml:space="preserve">
<style type="text/css">
	.st0{fill:#FDB827;}
	.st1{fill:#004A8D;}
</style>
<g id="XMLID_1_">
	<polygon id="XMLID_3_" class="st0" points="80.66,285.88 50.36,285.88 50.36,268.91 56.53,268.91 56.53,252.49 40.26,275.08 
		24.41,252.35 24.41,268.34 30.58,268.34 30.58,285.6 0,285.6 0,269.05 6.73,269.05 6.73,242.25 0.56,242.25 0.56,226.12 
		24.41,226.12 40.82,249.69 56.67,226.12 80.24,226.12 80.24,242.95 74.35,242.95 74.35,269.19 80.66,269.19 	"/>
	<path id="XMLID_4_" class="st1" d="M102.12,251.65v10.66c0,2.38,0,4.07,0.14,5.05c0.14,0.7,0.14,1.12,0.42,1.4
		c0.14,0.14,0.7,0.28,1.54,0.28l0.98,0.14v0.98c-1.12-0.14-2.1-0.14-3.09-0.14c-0.7,0-2.1,0-4.35,0.14v-0.98h1.12
		c0.7,0,1.12-0.14,1.26-0.28c0.14-0.14,0.28-0.56,0.42-1.12c0.14-1.12,0.14-2.67,0.14-4.63v-7.72c0-1.4,0-2.81,0-4.35
		c0-0.56-0.14-0.98-0.28-1.26c-0.14-0.28-0.28-0.42-0.56-0.56c-0.28-0.14-0.7-0.28-1.12-0.28h-0.98V248
		c1.26,0.14,2.38,0.14,3.09,0.14s1.54,0,2.52-0.14c0.98,1.26,1.96,2.52,2.95,3.65s1.82,2.38,2.81,3.51l5.33,6.45
		c1.96,2.38,3.37,3.93,4.21,4.91v-9.96c0-4.21-0.14-6.45-0.28-6.87c-0.14-0.42-0.7-0.7-1.82-0.7l-1.12-0.14v-0.98
		c1.68,0.14,2.95,0.14,3.93,0.14c0.98,0,2.24,0,3.79-0.14v0.98h-1.26c-0.98,0-1.54,0.28-1.68,0.98c-0.14,0.42-0.14,2.67-0.14,6.73
		v7.01c0,1.82,0.14,4.07,0.28,6.73c-1.4-0.28-2.24-0.42-2.52-0.42c-0.28-0.14-0.42-0.28-0.7-0.42c-1.12-1.26-2.38-2.67-3.65-4.21
		L102.12,251.65z"/>
	<path id="XMLID_5_" class="st1" d="M124.56,269.19h0.98c0.98,0,1.54-0.28,1.68-0.7c0.14-0.42,0.28-2.67,0.28-6.73v-5.19
		c0-4.07-0.14-6.45-0.28-6.87c-0.14-0.42-0.7-0.7-1.54-0.7h-1.26V248c1.68,0.14,3.51,0.14,5.19,0.14c1.4,0,2.67,0,3.79-0.14v0.98
		h-1.26c-0.7,0-1.26,0.14-1.4,0.28c-0.14,0.14-0.28,0.56-0.28,1.26c0,1.12-0.14,3.09-0.14,5.89v5.33c0,4.07,0.14,6.17,0.28,6.59
		s0.7,0.56,1.68,0.56h0.98v0.98c-1.26-0.14-2.67-0.14-4.21-0.14c-1.82,0-3.37,0-4.77,0.14L124.56,269.19L124.56,269.19z"/>
	<path id="XMLID_6_" class="st1" d="M145.18,270.45c-0.42-1.4-0.98-2.67-1.4-3.93l-5.61-13.89c-0.84-1.96-1.26-3.09-1.4-3.23
		c-0.14-0.14-0.56-0.28-1.4-0.28h-0.7v-0.98c1.68,0.14,2.95,0.14,4.21,0.14c1.26,0,2.67,0,4.35-0.14v0.98h-1.54
		c-0.56,0-0.84,0-0.98,0.14c-0.14,0.14-0.28,0.28-0.28,0.42c0,0.14,0,0.28,0.14,0.42l1.96,5.33l4.21,10.66l4.07-10.24
		c1.4-3.37,2.1-5.47,2.1-6.03c0-0.42-0.28-0.7-0.84-0.7h-0.7l-1.4-0.14V248c1.4,0.14,2.52,0.14,3.37,0.14c0.98,0,2.1,0,3.51-0.14
		v0.98h-0.42c-0.56,0-0.84,0.14-1.12,0.28c-0.28,0.28-0.56,1.12-1.26,2.52l-5.33,12.76c-0.98,2.38-1.68,4.35-2.1,5.75L145.18,270.45
		L145.18,270.45z"/>
	<path id="XMLID_7_" class="st1" d="M164.54,259.65v3.79v2.24c0,1.4,0,2.38,0,2.95c1.54,0.14,3.23,0.14,4.91,0.14
		c1.12,0,2.1,0,2.95-0.14c0.56,0,1.12-0.14,1.68-0.42c0.28-0.84,0.56-2.1,0.84-3.37h0.98c-0.28,2.24-0.42,3.79-0.42,4.49v0.7
		c-1.26,0.14-2.38,0.14-3.51,0.14h-2.38c-2.67-0.14-4.63-0.14-6.03-0.14c-1.26,0-2.81,0-4.91,0.14v-0.98h0.42
		c0.84,0,1.54-0.14,1.68-0.28c0.28-0.14,0.42-0.56,0.42-1.26c0.14-0.7,0.14-2.1,0.14-4.35v-8.56c0-1.4,0-2.52-0.14-3.37
		c0-0.84-0.14-1.4-0.28-1.54s-0.14-0.28-0.28-0.42c-0.14-0.14-0.56-0.14-1.4-0.28l-1.26-0.14V248h1.68h1.68c0.98,0,1.68,0,2.1,0
		l6.03-0.14h2.81c0.98,0,1.96,0,2.95,0.14c-0.42,1.26-0.56,2.81-0.7,4.77h-1.12c0-1.12,0-2.1-0.14-2.81
		c-1.26-0.42-2.81-0.7-4.49-0.7c-1.4,0-2.95,0-4.49,0.14c0,0.98,0,1.96,0,2.95v2.38v3.09c0.98,0.14,1.96,0.14,2.67,0.14
		c2.52,0,3.93-0.14,4.21-0.28c0.28-0.14,0.56-0.7,0.56-1.54v-0.98h1.12c-0.14,1.54-0.14,2.81-0.14,3.79c0,0.98,0,2.1,0.14,3.51
		h-1.12v-0.84c0-0.98-0.14-1.54-0.56-1.82c-0.42-0.28-1.82-0.28-4.07-0.28C166.36,259.65,165.52,259.65,164.54,259.65z"/>
	<path id="XMLID_8_" class="st1" d="M189.37,259.09c0.98,1.4,2.24,3.09,3.79,5.05l2.95,3.79c0.56,0.7,0.84,0.98,1.12,1.12
		c0.14,0.14,0.42,0.14,0.56,0.14h0.42v0.98c-0.84-0.14-1.68-0.14-2.24-0.14c-0.56,0-1.26,0-1.82,0.14l-5.47-7.43
		c-0.98-1.4-2.1-2.67-3.37-3.93l0.14-0.56c0.56,0,1.12,0.14,1.4,0.14c1.68,0,3.09-0.42,4.07-1.26c0.98-0.84,1.54-2.1,1.54-3.51
		c0-1.26-0.42-2.38-1.26-3.09c-0.84-0.7-2.1-1.12-3.65-1.12c-1.12,0-2.24,0.14-3.37,0.56c-0.14,1.68-0.14,3.37-0.14,5.19v7.43
		c0,3.65,0.14,5.61,0.28,6.03c0.14,0.42,0.7,0.56,1.68,0.56h1.26v0.98c-1.68-0.14-3.23-0.14-4.35-0.14c-0.84,0-2.52,0-4.91,0.14
		v-0.98h1.12c0.84,0,1.4-0.14,1.54-0.56c0.14-0.42,0.28-2.38,0.28-6.03v-7.43c0-3.23-0.14-5.05-0.28-5.33
		c-0.14-0.42-0.84-0.56-1.82-0.56h-0.84v-0.98c1.96,0.14,3.37,0.14,4.49,0.14c0.7,0,1.68,0,2.95-0.14c1.54,0,2.52-0.14,3.23-0.14
		c1.82,0,3.23,0.14,4.07,0.56c0.98,0.42,1.68,0.98,2.1,1.68c0.42,0.7,0.7,1.54,0.7,2.52c0,1.4-0.56,2.81-1.54,3.79
		C192.88,257.82,191.33,258.67,189.37,259.09z"/>
	<path id="XMLID_9_" class="st1" d="M213.36,249.27c-0.28,1.12-0.42,2.52-0.42,4.21h-1.12v-1.26c0-0.84-0.14-1.4-0.28-1.68
		c-0.28-0.28-0.84-0.56-1.68-0.98c-0.98-0.28-1.96-0.42-2.95-0.42c-1.68,0-2.95,0.42-3.93,1.26c-0.98,0.84-1.4,1.96-1.4,3.23
		c0,0.84,0.14,1.54,0.56,2.1c0.42,0.56,0.98,0.98,1.54,1.26c0.7,0.28,2.1,0.56,4.21,0.7s3.65,0.42,4.35,0.84
		c0.7,0.28,1.4,0.84,1.82,1.68c0.42,0.7,0.7,1.68,0.7,2.67c0,2.1-0.84,3.93-2.67,5.33c-1.68,1.54-4.07,2.24-7.01,2.24
		c-0.98,0-1.96-0.14-3.09-0.28c-0.98-0.14-2.1-0.56-3.09-0.84c0.14-1.26,0.28-2.81,0.28-4.77h1.12v0.84c0,0.98,0,1.68,0.14,1.82
		c0.14,0.28,0.28,0.42,0.7,0.7c0.56,0.42,1.26,0.7,2.1,0.98c0.84,0.28,1.68,0.28,2.52,0.28c1.96,0,3.51-0.42,4.63-1.4
		c1.12-0.98,1.54-2.1,1.54-3.51c0-0.84-0.14-1.54-0.56-2.1c-0.42-0.56-0.84-0.98-1.54-1.26c-0.7-0.28-1.82-0.42-3.65-0.7
		c-2.38-0.14-3.93-0.42-4.77-0.84c-0.84-0.42-1.54-0.98-1.96-1.82c-0.42-0.84-0.7-1.82-0.7-2.95c0-1.96,0.7-3.65,2.24-4.91
		c1.4-1.26,3.51-1.96,6.03-1.96c0.98,0,2.1,0.14,3.09,0.28C211.25,248.43,212.37,248.85,213.36,249.27z"/>
	<path id="XMLID_10_" class="st1" d="M216.16,269.19h0.98c0.98,0,1.54-0.28,1.68-0.7c0.14-0.42,0.28-2.67,0.28-6.73v-5.19
		c0-4.07-0.14-6.45-0.28-6.87c-0.14-0.42-0.7-0.7-1.54-0.7h-1.26V248c1.68,0.14,3.51,0.14,5.19,0.14c1.4,0,2.67,0,3.79-0.14v0.98
		h-1.26c-0.7,0-1.26,0.14-1.4,0.28c-0.14,0.14-0.28,0.56-0.28,1.26c0,1.12-0.14,3.09-0.14,5.89v5.33c0,4.07,0.14,6.17,0.28,6.59
		s0.7,0.56,1.68,0.56h0.98v0.98c-1.26-0.14-2.67-0.14-4.21-0.14c-1.82,0-3.37,0-4.77,0.14L216.16,269.19L216.16,269.19z"/>
	<path id="XMLID_11_" class="st1" d="M237.48,249.69c-0.14,1.54-0.14,3.23-0.14,4.91v8.84c0,3.23,0.14,5.05,0.28,5.47
		c0.14,0.28,0.7,0.56,1.82,0.56h1.12v0.98c-1.82-0.14-3.37-0.14-4.63-0.14c-1.26,0-2.81,0-4.63,0.14v-0.98h1.26
		c0.7,0,1.12-0.14,1.4-0.28c0.14-0.14,0.28-0.56,0.42-1.12c0.14-1.26,0.14-2.81,0.14-4.63v-8.84c0-1.68,0-3.37-0.14-4.77h-1.54
		c-2.52,0-3.93,0-4.21,0.14c-0.28,0.14-0.42,0.56-0.56,1.4l-0.28,2.1h-0.98v-1.82c0-0.7,0-1.82-0.14-3.23
		c5.61,0.14,8.98,0.14,9.96,0.14l8.7-0.14c-0.14,1.68-0.28,3.37-0.28,5.05h-0.98l-0.14-1.96c0-0.7-0.14-1.12-0.28-1.26
		c-0.14-0.14-0.42-0.14-0.7-0.28c-1.12-0.14-2.38-0.14-3.93-0.14L237.48,249.69L237.48,249.69z"/>
	<path id="XMLID_12_" class="st1" d="M257.26,259.37c0.7-0.98,1.68-2.67,2.95-4.91l3.65-6.17h2.38v0.42
		c-1.26,1.4-2.81,3.51-4.63,6.45c-1.82,2.81-2.95,4.77-3.37,5.75c-0.14,0.28-0.14,1.26-0.14,2.67c0,1.82,0,3.37,0.14,4.49
		c0,0.56,0.14,0.98,0.28,1.12c0.14,0.14,0.7,0.28,1.54,0.28l1.12,0.14v0.98c-1.82-0.14-3.23-0.14-4.21-0.14l-5.05,0.14v-0.98h1.4
		c0.84,0,1.4-0.14,1.54-0.56c0.14-0.42,0.28-1.96,0.28-4.91c0-0.84,0-1.82-0.14-2.81c-1.4-2.38-2.52-4.49-3.79-6.31
		c-1.12-1.82-2.1-3.09-2.81-3.93c-0.42-0.42-0.84-0.7-1.12-0.84c-0.28-0.14-0.84-0.28-1.54-0.28v-0.98
		c0.42-0.14,1.26-0.28,2.52-0.56l1.26-0.28c0.42,0.14,0.84,0.42,1.12,0.7c0.56,0.42,1.26,1.54,2.38,3.37
		C253.9,253.33,255.3,255.72,257.26,259.37z"/>
	<path id="XMLID_15_" class="st1" d="M275.92,259.09c0-3.37,1.12-6.17,3.37-8.14c2.24-2.1,5.19-3.09,8.84-3.09
		c3.65,0,6.45,0.98,8.42,2.95c2.1,1.96,3.09,4.49,3.09,7.72c0,3.37-1.12,6.31-3.51,8.56s-5.33,3.51-8.98,3.51
		c-2.24,0-4.21-0.42-5.89-1.4c-1.68-0.84-2.95-2.24-3.93-3.93C276.48,263.29,275.92,261.33,275.92,259.09z M279.15,257.82
		c0,2.38,0.42,4.35,1.26,6.03c0.84,1.68,1.82,3.09,3.23,3.93c1.4,0.84,2.95,1.26,4.63,1.26c1.68,0,3.09-0.42,4.21-1.12
		c1.26-0.7,2.1-1.82,2.81-3.23c0.7-1.4,0.98-3.23,0.98-5.33c0-2.24-0.42-4.07-1.12-5.61c-0.7-1.54-1.82-2.67-3.09-3.51
		c-1.4-0.84-2.95-1.12-4.77-1.12c-1.68,0-3.09,0.28-4.35,0.98c-1.26,0.7-2.1,1.68-2.81,3.09C279.43,254.46,279.15,256,279.15,257.82
		z"/>
	<path id="XMLID_16_" class="st1" d="M307.2,259.51v5.33c0,2.1,0.14,3.37,0.28,3.65c0.28,0.42,0.84,0.56,1.68,0.56h1.12v0.98
		c-1.96-0.14-3.51-0.14-4.77-0.14c-1.12,0-2.67,0-4.63,0.14v-0.98h1.26c0.84,0,1.4-0.14,1.68-0.56c0.14-0.28,0.28-1.54,0.28-3.79
		v-11.5c0-2.1-0.14-3.37-0.28-3.65c-0.28-0.28-0.84-0.56-1.68-0.56h-1.12V248c1.68,0.14,3.23,0.14,4.63,0.14l8.98-0.14
		c0.98,0,1.82,0,2.67,0.14c-0.28,1.12-0.56,2.67-0.56,4.63h-0.98c0-1.12-0.14-1.96-0.42-2.95c-1.4-0.42-2.81-0.56-4.35-0.56
		c-1.26,0-2.52,0-3.79,0.14c-0.14,1.4-0.14,2.52-0.14,3.65v4.91c0.56,0,1.26,0,1.82,0c1.54,0,2.95,0,4.07-0.14
		c0.42,0,0.7-0.14,0.84-0.28c0.14-0.14,0.28-0.56,0.42-1.26l0.14-1.12h0.98c-0.14,1.82-0.14,3.09-0.14,3.65v3.65h-0.98v-1.12
		c0-0.98-0.14-1.54-0.56-1.68c-0.42-0.14-1.82-0.28-4.21-0.28C308.88,259.51,308.04,259.51,307.2,259.51z"/>
	<path id="XMLID_17_" class="st1" d="M366.82,269.05h0.98c0.98,0,1.54-0.28,1.68-0.7c0.14-0.42,0.28-2.67,0.28-6.73v-5.19
		c0-4.07-0.14-6.45-0.28-6.87c-0.14-0.42-0.7-0.7-1.54-0.7h-1.12v-0.98c1.68,0.14,3.51,0.14,5.19,0.14c1.4,0,2.67,0,3.79-0.14v0.98
		h-1.26c-0.7,0-1.26,0.14-1.4,0.28s-0.28,0.56-0.28,1.26c0,1.12-0.14,3.09-0.14,5.89v5.33c0,4.07,0.14,6.17,0.28,6.59
		c0.14,0.42,0.7,0.56,1.68,0.56h0.98v0.98c-1.26-0.14-2.67-0.14-4.21-0.14c-1.82,0-3.37,0-4.77,0.14v-0.7H366.82z"/>
	<path id="XMLID_18_" class="st1" d="M396.69,253.62l-0.14-2.81c-0.98-0.56-1.96-1.12-2.95-1.4c-0.98-0.28-2.1-0.42-3.23-0.42
		c-2.81,0-5.05,0.84-6.73,2.52c-1.68,1.68-2.52,3.93-2.52,6.73c0,1.96,0.42,3.79,1.26,5.33c0.84,1.54,2.1,2.81,3.65,3.65
		c1.54,0.84,3.23,1.4,5.05,1.4c1.4,0,2.81-0.14,4.21-0.42c0.98-0.28,2.1-0.7,3.09-1.54l0.28,0.28c-0.28,0.42-0.42,0.98-0.56,1.4
		c-1.26,0.56-2.38,0.98-3.65,1.4c-1.26,0.28-2.52,0.42-3.79,0.42c-2.52,0-4.77-0.42-6.73-1.4c-1.96-0.98-3.37-2.38-4.49-4.07
		c-0.98-1.68-1.54-3.65-1.54-5.89c0-2.24,0.56-4.07,1.54-5.89c1.12-1.68,2.52-3.09,4.49-3.93c1.96-0.98,4.35-1.4,7.15-1.4
		c1.4,0,3.23,0.28,5.19,0.7c0.98,0.28,1.82,0.42,2.38,0.56c-0.42,1.12-0.7,2.67-0.84,4.63L396.69,253.62L396.69,253.62z"/>
	<path id="XMLID_19_" class="st1" d="M406.23,259.09v4.35c0,0.7,0,1.68,0.14,2.67c0,1.4,0.14,2.24,0.14,2.38
		c0,0.14,0.14,0.28,0.42,0.42c0.28,0.14,0.7,0.28,1.26,0.28h1.12v0.98c-1.4-0.14-2.67-0.14-3.93-0.14s-2.95,0-5.19,0.14v-0.98h0.98
		c1.12,0,1.68-0.14,1.96-0.56c0.28-0.42,0.28-2.1,0.28-5.05v-9.26c0-2.67-0.14-4.21-0.28-4.63c-0.14-0.42-0.84-0.56-1.68-0.56h-1.12
		v-0.98c1.68,0.14,3.37,0.14,4.77,0.14c1.54,0,2.95,0,4.35-0.14v0.98h-0.7c-0.98,0-1.54,0.14-1.82,0.28
		c-0.28,0.14-0.42,0.42-0.42,0.7c-0.14,0.56-0.14,1.96-0.14,4.07v3.51c1.82,0.14,4.21,0.14,7.01,0.14c2.38,0,4.35,0,5.89-0.14v-3.09
		c0-1.82,0-3.23-0.14-4.49c0-0.42-0.14-0.7-0.42-0.98c-0.28-0.14-0.7-0.28-1.4-0.28h-1.12v-0.98c1.54,0.14,3.09,0.14,4.49,0.14
		c1.54,0,3.09,0,4.77-0.14v0.98h-1.12c-0.84,0-1.26,0.14-1.54,0.28c-0.28,0.14-0.42,0.56-0.42,0.98c0,0.42-0.14,1.96-0.14,4.49v8.56
		c0,3.23,0.14,4.91,0.28,5.33s0.7,0.56,1.68,0.56h1.26v0.98c-1.4-0.14-2.95-0.14-4.49-0.14c-1.68,0-3.37,0-4.91,0.14v-0.98h1.12
		c0.84,0,1.26-0.14,1.54-0.28s0.42-0.56,0.42-0.98c0.14-1.12,0.14-2.67,0.14-4.63v-4.07c-1.4-0.14-3.37-0.14-5.61-0.14
		C410.3,258.95,407.92,259.09,406.23,259.09z"/>
	<path id="XMLID_20_" class="st1" d="M426.99,269.05h0.98c0.98,0,1.54-0.28,1.68-0.7s0.28-2.67,0.28-6.73v-5.19
		c0-4.07-0.14-6.45-0.28-6.87c-0.14-0.42-0.7-0.7-1.54-0.7h-1.26v-0.98c1.68,0.14,3.51,0.14,5.19,0.14c1.4,0,2.67,0,3.79-0.14v0.98
		h-1.26c-0.7,0-1.26,0.14-1.4,0.28c-0.14,0.14-0.28,0.56-0.28,1.26c0,1.12-0.14,3.09-0.14,5.89v5.33c0,4.07,0.14,6.17,0.28,6.59
		c0.14,0.42,0.7,0.56,1.68,0.56h0.98v0.98c-1.26-0.14-2.67-0.14-4.21-0.14c-1.82,0-3.37,0-4.77,0.14v-0.7H426.99z"/>
	<path id="XMLID_21_" class="st1" d="M459.12,262.73c-0.14,0.84-0.28,1.68-0.28,2.67s0.14,1.96,0.28,3.23
		c-1.4,0.56-2.95,0.98-4.63,1.26c-1.68,0.28-3.37,0.42-5.05,0.42c-2.52,0-4.63-0.42-6.45-1.4c-1.82-0.98-3.23-2.24-4.35-3.93
		c-0.98-1.68-1.54-3.65-1.54-5.75c0-2.24,0.56-4.21,1.54-5.89c1.12-1.68,2.52-3.09,4.49-4.07c1.96-0.98,4.35-1.4,7.29-1.4
		c1.26,0,2.24,0.14,3.37,0.28c0.98,0.14,2.38,0.42,3.93,0.98l1.26,0.42c-0.28,1.12-0.56,2.67-0.7,4.63h-0.98v-0.98
		c0-0.98-0.14-1.54-0.28-1.82c-0.28-0.28-1.12-0.7-2.52-1.26c-1.4-0.42-2.95-0.7-4.63-0.7c-3.09,0-5.47,0.84-7.01,2.38
		c-1.82,1.82-2.67,4.07-2.67,7.01c0,2.81,0.84,5.19,2.38,7.01c1.82,2.24,4.49,3.37,7.72,3.37c1.68,0,3.51-0.42,5.47-1.12
		c0-0.84,0.14-1.82,0.14-2.81c0-1.26,0-1.96,0-2.24c0-0.14-0.14-0.28-0.28-0.42c-0.14,0-0.7-0.14-1.68-0.14l-1.82-0.14v-0.98
		c2.38,0.14,4.21,0.14,5.33,0.14c0.98,0,1.82,0,2.52-0.14v0.84L459.12,262.73z"/>
	<path id="XMLID_24_" class="st1" d="M477.63,262.59h-8.98l-1.12,2.52c-0.7,1.68-0.98,2.67-0.98,3.09c0,0.28,0,0.42,0.14,0.56
		c0.14,0.14,0.42,0.14,0.98,0.28l1.54,0.14v0.98c-0.98-0.14-2.1-0.14-3.37-0.14c-1.54,0-2.81,0-3.93,0.14v-0.98h0.42
		c0.7,0,1.26-0.14,1.4-0.28c0.28-0.14,0.42-0.42,0.7-0.98c0.7-1.54,1.54-3.09,2.24-4.77l4.35-9.68c1.12-2.52,1.96-4.35,2.38-5.61
		h1.12l7.86,18.24c0.56,1.26,0.84,1.96,1.12,2.24c0.14,0.28,0.42,0.42,0.56,0.56c0.28,0.14,0.7,0.14,1.54,0.28v0.98
		c-1.4-0.14-2.67-0.14-3.93-0.14c-1.12,0-2.67,0-4.63,0.14v-0.98l1.54-0.14c0.56,0,0.84-0.14,0.98-0.14
		c0.14-0.14,0.28-0.28,0.28-0.42c0-0.14-0.14-0.7-0.42-1.4L477.63,262.59z M469.08,261.33h7.86l-3.93-9.26L469.08,261.33z"/>
	<path id="XMLID_25_" class="st1" d="M491.24,251.51v10.66c0,2.38,0,4.07,0.14,5.05c0.14,0.7,0.14,1.12,0.42,1.4
		c0.14,0.14,0.7,0.28,1.54,0.28l0.98,0.14v0.98c-1.12-0.14-2.1-0.14-3.09-0.14c-0.7,0-2.1,0-4.35,0.14v-0.98h1.12
		c0.7,0,1.12-0.14,1.26-0.28c0.14-0.14,0.28-0.56,0.42-1.12c0.14-1.12,0.14-2.67,0.14-4.63v-7.72c0-1.4,0-2.81,0-4.35
		c0-0.56-0.14-0.98-0.28-1.26s-0.28-0.42-0.56-0.56c-0.28-0.14-0.7-0.28-1.12-0.28h-0.98v-0.98c1.26,0.14,2.38,0.14,3.09,0.14
		c0.7,0,1.54,0,2.52-0.14c0.98,1.26,1.96,2.52,2.95,3.65c0.84,1.12,1.82,2.38,2.81,3.51l5.33,6.45c1.96,2.38,3.37,3.93,4.21,4.91
		v-9.96c0-4.21-0.14-6.45-0.28-6.87c-0.14-0.42-0.7-0.7-1.82-0.7l-1.4,0.14V248c1.68,0.14,2.95,0.14,3.93,0.14
		c0.98,0,2.24,0,3.79-0.14v0.98h-1.26c-0.98,0-1.54,0.28-1.68,0.98c-0.14,0.42-0.14,2.67-0.14,6.73v7.01c0,1.82,0.14,4.07,0.28,6.73
		c-1.4-0.28-2.24-0.42-2.52-0.42c-0.28-0.14-0.42-0.28-0.7-0.42c-1.12-1.26-2.38-2.67-3.65-4.21L491.24,251.51z"/>
	<path id="XMLID_26_" class="st1" d="M357.14,246.74l-5.61,11.92c-2.1,4.49-3.93,8.42-5.19,11.64h-0.7
		c-0.42-1.12-1.82-4.07-4.07-8.84l-6.87-14.17v14.87c0,3.51,0.14,5.47,0.42,5.89c0.28,0.42,1.12,0.7,2.52,0.7h0.7v1.26
		c-1.82-0.14-3.23-0.14-4.35-0.14c-0.84,0-2.38,0-4.77,0.14v-1.4h1.26c0.84,0,1.4-0.14,1.68-0.42c0.28-0.28,0.42-0.7,0.56-1.26
		c0.14-1.82,0.28-3.79,0.28-5.75v-10.8c0-2.67,0-4.35-0.14-5.19c0-0.42-0.28-0.7-0.56-0.98c-0.28-0.28-0.98-0.28-1.96-0.28h-0.98
		v-1.26c2.24,0.14,3.65,0.14,4.21,0.14c0.7,0,1.82,0,3.09-0.14c1.54,3.51,3.37,7.29,5.33,11.36l5.05,10.38l4.63-9.68
		c1.68-3.37,3.51-7.43,5.61-12.2c1.54,0.14,2.67,0.14,3.37,0.14c0.7,0,2.1,0,4.07-0.14v1.26h-1.26c-1.12,0-1.82,0.14-2.1,0.56
		c-0.28,0.42-0.42,1.82-0.42,4.21v14.03c0,3.09,0.14,4.91,0.42,5.33c0.28,0.42,0.98,0.7,2.24,0.7h1.12v1.26
		c-1.82-0.14-3.51-0.14-5.05-0.14c-1.82,0-3.65,0-5.61,0.14v-1.26h1.26c0.98,0,1.54-0.28,1.82-0.7c0.14-0.42,0.28-2.38,0.28-5.75
		L357.14,246.74L357.14,246.74z"/>
	<path id="XMLID_27_" class="st1" d="M102.12,251.65v10.66c0,2.38,0,4.07,0.14,5.05c0.14,0.7,0.14,1.12,0.42,1.4
		c0.14,0.14,0.7,0.28,1.54,0.28l0.98,0.14v0.98c-1.12-0.14-2.1-0.14-3.09-0.14c-0.7,0-2.1,0-4.35,0.14v-0.98h1.12
		c0.7,0,1.12-0.14,1.26-0.28c0.14-0.14,0.28-0.56,0.42-1.12c0.14-1.12,0.14-2.67,0.14-4.63v-7.72c0-1.4,0-2.81,0-4.35
		c0-0.56-0.14-0.98-0.28-1.26c-0.14-0.28-0.28-0.42-0.56-0.56c-0.28-0.14-0.7-0.28-1.12-0.28h-0.98V248
		c1.26,0.14,2.38,0.14,3.09,0.14s1.54,0,2.52-0.14c0.98,1.26,1.96,2.52,2.95,3.65s1.82,2.38,2.81,3.51l5.33,6.45
		c1.96,2.38,3.37,3.93,4.21,4.91v-9.96c0-4.21-0.14-6.45-0.28-6.87c-0.14-0.42-0.7-0.7-1.82-0.7l-1.12-0.14v-0.98
		c1.68,0.14,2.95,0.14,3.93,0.14c0.98,0,2.24,0,3.79-0.14v0.98h-1.26c-0.98,0-1.54,0.28-1.68,0.98c-0.14,0.42-0.14,2.67-0.14,6.73
		v7.01c0,1.82,0.14,4.07,0.28,6.73c-1.4-0.28-2.24-0.42-2.52-0.42c-0.28-0.14-0.42-0.28-0.7-0.42c-1.12-1.26-2.38-2.67-3.65-4.21
		L102.12,251.65z"/>
	<path id="XMLID_28_" class="st1" d="M124.56,269.19h0.98c0.98,0,1.54-0.28,1.68-0.7c0.14-0.42,0.28-2.67,0.28-6.73v-5.19
		c0-4.07-0.14-6.45-0.28-6.87c-0.14-0.42-0.7-0.7-1.54-0.7h-1.26V248c1.68,0.14,3.51,0.14,5.19,0.14c1.4,0,2.67,0,3.79-0.14v0.98
		h-1.26c-0.7,0-1.26,0.14-1.4,0.28c-0.14,0.14-0.28,0.56-0.28,1.26c0,1.12-0.14,3.09-0.14,5.89v5.33c0,4.07,0.14,6.17,0.28,6.59
		s0.7,0.56,1.68,0.56h0.98v0.98c-1.26-0.14-2.67-0.14-4.21-0.14c-1.82,0-3.37,0-4.77,0.14L124.56,269.19L124.56,269.19z"/>
	<path id="XMLID_29_" class="st1" d="M145.18,270.45c-0.42-1.4-0.98-2.67-1.4-3.93l-5.61-13.89c-0.84-1.96-1.26-3.09-1.4-3.23
		c-0.14-0.14-0.56-0.28-1.4-0.28h-0.7v-0.98c1.68,0.14,2.95,0.14,4.21,0.14c1.26,0,2.67,0,4.35-0.14v0.98h-1.54
		c-0.56,0-0.84,0-0.98,0.14c-0.14,0.14-0.28,0.28-0.28,0.42c0,0.14,0,0.28,0.14,0.42l1.96,5.33l4.21,10.66l4.07-10.24
		c1.4-3.37,2.1-5.47,2.1-6.03c0-0.42-0.28-0.7-0.84-0.7h-0.7l-1.4-0.14V248c1.4,0.14,2.52,0.14,3.37,0.14c0.98,0,2.1,0,3.51-0.14
		v0.98h-0.42c-0.56,0-0.84,0.14-1.12,0.28c-0.28,0.28-0.56,1.12-1.26,2.52l-5.33,12.76c-0.98,2.38-1.68,4.35-2.1,5.75L145.18,270.45
		L145.18,270.45z"/>
	<path id="XMLID_30_" class="st1" d="M164.54,259.65v3.79v2.24c0,1.4,0,2.38,0,2.95c1.54,0.14,3.23,0.14,4.91,0.14
		c1.12,0,2.1,0,2.95-0.14c0.56,0,1.12-0.14,1.68-0.42c0.28-0.84,0.56-2.1,0.84-3.37h0.98c-0.28,2.24-0.42,3.79-0.42,4.49v0.7
		c-1.26,0.14-2.38,0.14-3.51,0.14h-2.38c-2.67-0.14-4.63-0.14-6.03-0.14c-1.26,0-2.81,0-4.91,0.14v-0.98h0.42
		c0.84,0,1.54-0.14,1.68-0.28c0.28-0.14,0.42-0.56,0.42-1.26c0.14-0.7,0.14-2.1,0.14-4.35v-8.56c0-1.4,0-2.52-0.14-3.37
		c0-0.84-0.14-1.4-0.28-1.54s-0.14-0.28-0.28-0.42c-0.14-0.14-0.56-0.14-1.4-0.28l-1.26-0.14V248h1.68h1.68c0.98,0,1.68,0,2.1,0
		l6.03-0.14h2.81c0.98,0,1.96,0,2.95,0.14c-0.42,1.26-0.56,2.81-0.7,4.77h-1.12c0-1.12,0-2.1-0.14-2.81
		c-1.26-0.42-2.81-0.7-4.49-0.7c-1.4,0-2.95,0-4.49,0.14c0,0.98,0,1.96,0,2.95v2.38v3.09c0.98,0.14,1.96,0.14,2.67,0.14
		c2.52,0,3.93-0.14,4.21-0.28c0.28-0.14,0.56-0.7,0.56-1.54v-0.98h1.12c-0.14,1.54-0.14,2.81-0.14,3.79c0,0.98,0,2.1,0.14,3.51
		h-1.12v-0.84c0-0.98-0.14-1.54-0.56-1.82c-0.42-0.28-1.82-0.28-4.07-0.28C166.36,259.65,165.52,259.65,164.54,259.65z"/>
	<path id="XMLID_31_" class="st1" d="M189.37,259.09c0.98,1.4,2.24,3.09,3.79,5.05l2.95,3.79c0.56,0.7,0.84,0.98,1.12,1.12
		c0.14,0.14,0.42,0.14,0.56,0.14h0.42v0.98c-0.84-0.14-1.68-0.14-2.24-0.14c-0.56,0-1.26,0-1.82,0.14l-5.47-7.43
		c-0.98-1.4-2.1-2.67-3.37-3.93l0.14-0.56c0.56,0,1.12,0.14,1.4,0.14c1.68,0,3.09-0.42,4.07-1.26c0.98-0.84,1.54-2.1,1.54-3.51
		c0-1.26-0.42-2.38-1.26-3.09c-0.84-0.7-2.1-1.12-3.65-1.12c-1.12,0-2.24,0.14-3.37,0.56c-0.14,1.68-0.14,3.37-0.14,5.19v7.43
		c0,3.65,0.14,5.61,0.28,6.03c0.14,0.42,0.7,0.56,1.68,0.56h1.26v0.98c-1.68-0.14-3.23-0.14-4.35-0.14c-0.84,0-2.52,0-4.91,0.14
		v-0.98h1.12c0.84,0,1.4-0.14,1.54-0.56c0.14-0.42,0.28-2.38,0.28-6.03v-7.43c0-3.23-0.14-5.05-0.28-5.33
		c-0.14-0.42-0.84-0.56-1.82-0.56h-0.84v-0.98c1.96,0.14,3.37,0.14,4.49,0.14c0.7,0,1.68,0,2.95-0.14c1.54,0,2.52-0.14,3.23-0.14
		c1.82,0,3.23,0.14,4.07,0.56c0.98,0.42,1.68,0.98,2.1,1.68c0.42,0.7,0.7,1.54,0.7,2.52c0,1.4-0.56,2.81-1.54,3.79
		C192.88,257.82,191.33,258.67,189.37,259.09z"/>
	<path id="XMLID_32_" class="st1" d="M213.36,249.27c-0.28,1.12-0.42,2.52-0.42,4.21h-1.12v-1.26c0-0.84-0.14-1.4-0.28-1.68
		c-0.28-0.28-0.84-0.56-1.68-0.98c-0.98-0.28-1.96-0.42-2.95-0.42c-1.68,0-2.95,0.42-3.93,1.26c-0.98,0.84-1.4,1.96-1.4,3.23
		c0,0.84,0.14,1.54,0.56,2.1c0.42,0.56,0.98,0.98,1.54,1.26c0.7,0.28,2.1,0.56,4.21,0.7s3.65,0.42,4.35,0.84
		c0.7,0.28,1.4,0.84,1.82,1.68c0.42,0.7,0.7,1.68,0.7,2.67c0,2.1-0.84,3.93-2.67,5.33c-1.68,1.54-4.07,2.24-7.01,2.24
		c-0.98,0-1.96-0.14-3.09-0.28c-0.98-0.14-2.1-0.56-3.09-0.84c0.14-1.26,0.28-2.81,0.28-4.77h1.12v0.84c0,0.98,0,1.68,0.14,1.82
		c0.14,0.28,0.28,0.42,0.7,0.7c0.56,0.42,1.26,0.7,2.1,0.98c0.84,0.28,1.68,0.28,2.52,0.28c1.96,0,3.51-0.42,4.63-1.4
		c1.12-0.98,1.54-2.1,1.54-3.51c0-0.84-0.14-1.54-0.56-2.1c-0.42-0.56-0.84-0.98-1.54-1.26c-0.7-0.28-1.82-0.42-3.65-0.7
		c-2.38-0.14-3.93-0.42-4.77-0.84c-0.84-0.42-1.54-0.98-1.96-1.82c-0.42-0.84-0.7-1.82-0.7-2.95c0-1.96,0.7-3.65,2.24-4.91
		c1.4-1.26,3.51-1.96,6.03-1.96c0.98,0,2.1,0.14,3.09,0.28C211.25,248.43,212.37,248.85,213.36,249.27z"/>
	<path id="XMLID_33_" class="st1" d="M216.16,269.19h0.98c0.98,0,1.54-0.28,1.68-0.7c0.14-0.42,0.28-2.67,0.28-6.73v-5.19
		c0-4.07-0.14-6.45-0.28-6.87c-0.14-0.42-0.7-0.7-1.54-0.7h-1.26V248c1.68,0.14,3.51,0.14,5.19,0.14c1.4,0,2.67,0,3.79-0.14v0.98
		h-1.26c-0.7,0-1.26,0.14-1.4,0.28c-0.14,0.14-0.28,0.56-0.28,1.26c0,1.12-0.14,3.09-0.14,5.89v5.33c0,4.07,0.14,6.17,0.28,6.59
		s0.7,0.56,1.68,0.56h0.98v0.98c-1.26-0.14-2.67-0.14-4.21-0.14c-1.82,0-3.37,0-4.77,0.14L216.16,269.19L216.16,269.19z"/>
	<path id="XMLID_34_" class="st1" d="M237.48,249.69c-0.14,1.54-0.14,3.23-0.14,4.91v8.84c0,3.23,0.14,5.05,0.28,5.47
		c0.14,0.28,0.7,0.56,1.82,0.56h1.12v0.98c-1.82-0.14-3.37-0.14-4.63-0.14c-1.26,0-2.81,0-4.63,0.14v-0.98h1.26
		c0.7,0,1.12-0.14,1.4-0.28c0.14-0.14,0.28-0.56,0.42-1.12c0.14-1.26,0.14-2.81,0.14-4.63v-8.84c0-1.68,0-3.37-0.14-4.77h-1.54
		c-2.52,0-3.93,0-4.21,0.14c-0.28,0.14-0.42,0.56-0.56,1.4l-0.28,2.1h-0.98v-1.82c0-0.7,0-1.82-0.14-3.23
		c5.61,0.14,8.98,0.14,9.96,0.14l8.7-0.14c-0.14,1.68-0.28,3.37-0.28,5.05h-0.98l-0.14-1.96c0-0.7-0.14-1.12-0.28-1.26
		c-0.14-0.14-0.42-0.14-0.7-0.28c-1.12-0.14-2.38-0.14-3.93-0.14L237.48,249.69L237.48,249.69z"/>
	<path id="XMLID_35_" class="st1" d="M257.26,259.37c0.7-0.98,1.68-2.67,2.95-4.91l3.65-6.17h2.38v0.42
		c-1.26,1.4-2.81,3.51-4.63,6.45c-1.82,2.81-2.95,4.77-3.37,5.75c-0.14,0.28-0.14,1.26-0.14,2.67c0,1.82,0,3.37,0.14,4.49
		c0,0.56,0.14,0.98,0.28,1.12c0.14,0.14,0.7,0.28,1.54,0.28l1.12,0.14v0.98c-1.82-0.14-3.23-0.14-4.21-0.14l-5.05,0.14v-0.98h1.4
		c0.84,0,1.4-0.14,1.54-0.56c0.14-0.42,0.28-1.96,0.28-4.91c0-0.84,0-1.82-0.14-2.81c-1.4-2.38-2.52-4.49-3.79-6.31
		c-1.12-1.82-2.1-3.09-2.81-3.93c-0.42-0.42-0.84-0.7-1.12-0.84c-0.28-0.14-0.84-0.28-1.54-0.28v-0.98
		c0.42-0.14,1.26-0.28,2.52-0.56l1.26-0.28c0.42,0.14,0.84,0.42,1.12,0.7c0.56,0.42,1.26,1.54,2.38,3.37
		C253.9,253.33,255.3,255.72,257.26,259.37z"/>
	<path id="XMLID_36_" class="st1" d="M66.91,243.66v-1.26c2.67,0.14,4.63,0.14,5.89,0.14c1.26,0,3.23,0,5.61-0.14v1.26h-1.4
		c-1.26,0-1.96,0.28-2.24,0.7c-0.28,0.42-0.42,2.67-0.42,6.45v7.72c0,2.81,0.14,4.77,0.42,5.89c0.28,1.12,1.12,1.96,2.38,2.81
		c1.26,0.7,2.95,1.12,5.19,1.12c2.24,0,4.07-0.42,5.61-1.26c0.98-0.56,1.82-1.4,2.24-2.67c0.42-1.12,0.7-3.51,0.7-6.73v-7.43
		c0-3.37-0.14-5.33-0.42-5.89c-0.28-0.56-1.12-0.7-2.52-0.7h-0.98v-1.26c2.67,0.14,4.49,0.14,5.19,0.14c1.12,0,2.67,0,4.49-0.14
		v1.26h-1.4c-0.98,0-1.68,0.28-1.96,0.84c-0.28,0.56-0.42,2.52-0.42,5.89v7.43c0,3.37-0.14,5.61-0.56,6.87
		c-0.28,1.12-0.98,2.24-1.82,3.23c-0.84,0.98-2.1,1.68-3.51,2.24c-1.4,0.56-3.23,0.84-5.19,0.84c-2.1,0-3.79-0.28-5.33-0.7
		c-1.54-0.56-2.67-1.12-3.51-1.82c-0.84-0.7-1.4-1.54-1.68-2.67c-0.28-0.98-0.56-2.81-0.56-5.33v-3.79v-6.03
		c0-3.65-0.14-5.75-0.28-6.17c-0.28-0.42-0.84-0.7-2.1-0.7h-1.4V243.66z"/>
</g>
</svg>
